<?xml version="1.0" encoding="utf-8" standalone="no"?>
<!DOCTYPE svg PUBLIC "-//W3C//DTD SVG 1.1//EN"
  "http://www.w3.org/Graphics/SVG/1.1/DTD/svg11.dtd">
<svg xmlns:xlink="http://www.w3.org/1999/xlink" width="1008pt" height="792pt" viewBox="0 0 1008 792" xmlns="http://www.w3.org/2000/svg" version="1.1">
 <metadata>
  <rdf:RDF xmlns:dc="http://purl.org/dc/elements/1.1/" xmlns:cc="http://creativecommons.org/ns#" xmlns:rdf="http://www.w3.org/1999/02/22-rdf-syntax-ns#">
   <cc:Work>
    <dc:type rdf:resource="http://purl.org/dc/dcmitype/StillImage"/>
    <dc:date>2025-11-28T14:02:23.296890</dc:date>
    <dc:format>image/svg+xml</dc:format>
    <dc:creator>
     <cc:Agent>
      <dc:title>Matplotlib v3.8.4, https://matplotlib.org/</dc:title>
     </cc:Agent>
    </dc:creator>
   </cc:Work>
  </rdf:RDF>
 </metadata>
 <defs>
  <style type="text/css">*{stroke-linejoin: round; stroke-linecap: butt}</style>
 </defs>
 <g id="figure_1">
  <g id="patch_1">
   <path d="M 0 792 
L 1008 792 
L 1008 0 
L 0 0 
z
" style="fill: #ffffff"/>
  </g>
  <g id="axes_1">
   <g id="patch_2">
    <path d="M 79.56 718.574125 
L 995.04 718.574125 
L 995.04 37.68 
L 79.56 37.68 
z
" style="fill: #ffffff"/>
   </g>
   <g id="matplotlib.axis_1">
    <g id="xtick_1">
     <g id="text_1">
      <!-- x448 -->
      <g style="fill: #262626" transform="translate(142.920344 746.684437) scale(0.26 -0.26)">
       <defs>
        <path id="ArialMT-78" d="M 47 0 
L 1259 1725 
L 138 3319 
L 841 3319 
L 1350 2541 
Q 1494 2319 1581 2169 
Q 1719 2375 1834 2534 
L 2394 3319 
L 3066 3319 
L 1919 1756 
L 3153 0 
L 2463 0 
L 1781 1031 
L 1600 1309 
L 728 0 
L 47 0 
z
" transform="scale(0.015625)"/>
        <path id="ArialMT-34" d="M 2069 0 
L 2069 1097 
L 81 1097 
L 81 1613 
L 2172 4581 
L 2631 4581 
L 2631 1613 
L 3250 1613 
L 3250 1097 
L 2631 1097 
L 2631 0 
L 2069 0 
z
M 2069 1613 
L 2069 3678 
L 634 1613 
L 2069 1613 
z
" transform="scale(0.015625)"/>
        <path id="ArialMT-38" d="M 1131 2484 
Q 781 2613 612 2850 
Q 444 3088 444 3419 
Q 444 3919 803 4259 
Q 1163 4600 1759 4600 
Q 2359 4600 2725 4251 
Q 3091 3903 3091 3403 
Q 3091 3084 2923 2848 
Q 2756 2613 2416 2484 
Q 2838 2347 3058 2040 
Q 3278 1734 3278 1309 
Q 3278 722 2862 322 
Q 2447 -78 1769 -78 
Q 1091 -78 675 323 
Q 259 725 259 1325 
Q 259 1772 486 2073 
Q 713 2375 1131 2484 
z
M 1019 3438 
Q 1019 3113 1228 2906 
Q 1438 2700 1772 2700 
Q 2097 2700 2305 2904 
Q 2513 3109 2513 3406 
Q 2513 3716 2298 3927 
Q 2084 4138 1766 4138 
Q 1444 4138 1231 3931 
Q 1019 3725 1019 3438 
z
M 838 1322 
Q 838 1081 952 856 
Q 1066 631 1291 507 
Q 1516 384 1775 384 
Q 2178 384 2440 643 
Q 2703 903 2703 1303 
Q 2703 1709 2433 1975 
Q 2163 2241 1756 2241 
Q 1359 2241 1098 1978 
Q 838 1716 838 1322 
z
" transform="scale(0.015625)"/>
       </defs>
       <use xlink:href="#ArialMT-78"/>
       <use xlink:href="#ArialMT-34" x="50"/>
       <use xlink:href="#ArialMT-34" x="105.615234"/>
       <use xlink:href="#ArialMT-38" x="161.230469"/>
      </g>
     </g>
    </g>
    <g id="xtick_2">
     <g id="text_2">
      <!-- x448_ -->
      <g style="fill: #262626" transform="translate(318.787125 746.761625) scale(0.26 -0.26)">
       <defs>
        <path id="ArialMT-5f" d="M -97 -1272 
L -97 -866 
L 3631 -866 
L 3631 -1272 
L -97 -1272 
z
" transform="scale(0.015625)"/>
       </defs>
       <use xlink:href="#ArialMT-78"/>
       <use xlink:href="#ArialMT-34" x="50"/>
       <use xlink:href="#ArialMT-34" x="105.615234"/>
       <use xlink:href="#ArialMT-38" x="161.230469"/>
       <use xlink:href="#ArialMT-5f" x="216.845703"/>
      </g>
      <!-- mlkem768 -->
      <g style="fill: #262626" transform="translate(294.2415 774.2615) scale(0.26 -0.26)">
       <defs>
        <path id="ArialMT-6d" d="M 422 0 
L 422 3319 
L 925 3319 
L 925 2853 
Q 1081 3097 1340 3245 
Q 1600 3394 1931 3394 
Q 2300 3394 2536 3241 
Q 2772 3088 2869 2813 
Q 3263 3394 3894 3394 
Q 4388 3394 4653 3120 
Q 4919 2847 4919 2278 
L 4919 0 
L 4359 0 
L 4359 2091 
Q 4359 2428 4304 2576 
Q 4250 2725 4106 2815 
Q 3963 2906 3769 2906 
Q 3419 2906 3187 2673 
Q 2956 2441 2956 1928 
L 2956 0 
L 2394 0 
L 2394 2156 
Q 2394 2531 2256 2718 
Q 2119 2906 1806 2906 
Q 1569 2906 1367 2781 
Q 1166 2656 1075 2415 
Q 984 2175 984 1722 
L 984 0 
L 422 0 
z
" transform="scale(0.015625)"/>
        <path id="ArialMT-6c" d="M 409 0 
L 409 4581 
L 972 4581 
L 972 0 
L 409 0 
z
" transform="scale(0.015625)"/>
        <path id="ArialMT-6b" d="M 425 0 
L 425 4581 
L 988 4581 
L 988 1969 
L 2319 3319 
L 3047 3319 
L 1778 2088 
L 3175 0 
L 2481 0 
L 1384 1697 
L 988 1316 
L 988 0 
L 425 0 
z
" transform="scale(0.015625)"/>
        <path id="ArialMT-65" d="M 2694 1069 
L 3275 997 
Q 3138 488 2766 206 
Q 2394 -75 1816 -75 
Q 1088 -75 661 373 
Q 234 822 234 1631 
Q 234 2469 665 2931 
Q 1097 3394 1784 3394 
Q 2450 3394 2872 2941 
Q 3294 2488 3294 1666 
Q 3294 1616 3291 1516 
L 816 1516 
Q 847 969 1125 678 
Q 1403 388 1819 388 
Q 2128 388 2347 550 
Q 2566 713 2694 1069 
z
M 847 1978 
L 2700 1978 
Q 2663 2397 2488 2606 
Q 2219 2931 1791 2931 
Q 1403 2931 1139 2672 
Q 875 2413 847 1978 
z
" transform="scale(0.015625)"/>
        <path id="ArialMT-37" d="M 303 3981 
L 303 4522 
L 3269 4522 
L 3269 4084 
Q 2831 3619 2401 2847 
Q 1972 2075 1738 1259 
Q 1569 684 1522 0 
L 944 0 
Q 953 541 1156 1306 
Q 1359 2072 1739 2783 
Q 2119 3494 2547 3981 
L 303 3981 
z
" transform="scale(0.015625)"/>
        <path id="ArialMT-36" d="M 3184 3459 
L 2625 3416 
Q 2550 3747 2413 3897 
Q 2184 4138 1850 4138 
Q 1581 4138 1378 3988 
Q 1113 3794 959 3422 
Q 806 3050 800 2363 
Q 1003 2672 1297 2822 
Q 1591 2972 1913 2972 
Q 2475 2972 2870 2558 
Q 3266 2144 3266 1488 
Q 3266 1056 3080 686 
Q 2894 316 2569 119 
Q 2244 -78 1831 -78 
Q 1128 -78 684 439 
Q 241 956 241 2144 
Q 241 3472 731 4075 
Q 1159 4600 1884 4600 
Q 2425 4600 2770 4297 
Q 3116 3994 3184 3459 
z
M 888 1484 
Q 888 1194 1011 928 
Q 1134 663 1356 523 
Q 1578 384 1822 384 
Q 2178 384 2434 671 
Q 2691 959 2691 1453 
Q 2691 1928 2437 2201 
Q 2184 2475 1800 2475 
Q 1419 2475 1153 2201 
Q 888 1928 888 1484 
z
" transform="scale(0.015625)"/>
       </defs>
       <use xlink:href="#ArialMT-6d"/>
       <use xlink:href="#ArialMT-6c" x="83.300781"/>
       <use xlink:href="#ArialMT-6b" x="105.517578"/>
       <use xlink:href="#ArialMT-65" x="155.517578"/>
       <use xlink:href="#ArialMT-6d" x="211.132812"/>
       <use xlink:href="#ArialMT-37" x="294.433594"/>
       <use xlink:href="#ArialMT-36" x="350.048828"/>
       <use xlink:href="#ArialMT-38" x="405.664062"/>
      </g>
     </g>
    </g>
    <g id="xtick_3">
     <g id="text_3">
      <!-- mlkem768 -->
      <g style="fill: #262626" transform="translate(477.3375 746.684437) scale(0.26 -0.26)">
       <use xlink:href="#ArialMT-6d"/>
       <use xlink:href="#ArialMT-6c" x="83.300781"/>
       <use xlink:href="#ArialMT-6b" x="105.517578"/>
       <use xlink:href="#ArialMT-65" x="155.517578"/>
       <use xlink:href="#ArialMT-6d" x="211.132812"/>
       <use xlink:href="#ArialMT-37" x="294.433594"/>
       <use xlink:href="#ArialMT-36" x="350.048828"/>
       <use xlink:href="#ArialMT-38" x="405.664062"/>
      </g>
     </g>
    </g>
    <g id="xtick_4">
     <g id="text_4">
      <!-- x448_ -->
      <g style="fill: #262626" transform="translate(684.979125 746.761625) scale(0.26 -0.26)">
       <use xlink:href="#ArialMT-78"/>
       <use xlink:href="#ArialMT-34" x="50"/>
       <use xlink:href="#ArialMT-34" x="105.615234"/>
       <use xlink:href="#ArialMT-38" x="161.230469"/>
       <use xlink:href="#ArialMT-5f" x="216.845703"/>
      </g>
      <!-- hqc192 -->
      <g style="fill: #262626" transform="translate(677.749906 774.354125) scale(0.26 -0.26)">
       <defs>
        <path id="ArialMT-68" d="M 422 0 
L 422 4581 
L 984 4581 
L 984 2938 
Q 1378 3394 1978 3394 
Q 2347 3394 2619 3248 
Q 2891 3103 3008 2847 
Q 3125 2591 3125 2103 
L 3125 0 
L 2563 0 
L 2563 2103 
Q 2563 2525 2380 2717 
Q 2197 2909 1863 2909 
Q 1613 2909 1392 2779 
Q 1172 2650 1078 2428 
Q 984 2206 984 1816 
L 984 0 
L 422 0 
z
" transform="scale(0.015625)"/>
        <path id="ArialMT-71" d="M 2538 -1272 
L 2538 353 
Q 2406 169 2170 47 
Q 1934 -75 1669 -75 
Q 1078 -75 651 397 
Q 225 869 225 1691 
Q 225 2191 398 2587 
Q 572 2984 901 3189 
Q 1231 3394 1625 3394 
Q 2241 3394 2594 2875 
L 2594 3319 
L 3100 3319 
L 3100 -1272 
L 2538 -1272 
z
M 803 1669 
Q 803 1028 1072 708 
Q 1341 388 1716 388 
Q 2075 388 2334 692 
Q 2594 997 2594 1619 
Q 2594 2281 2320 2615 
Q 2047 2950 1678 2950 
Q 1313 2950 1058 2639 
Q 803 2328 803 1669 
z
" transform="scale(0.015625)"/>
        <path id="ArialMT-63" d="M 2588 1216 
L 3141 1144 
Q 3050 572 2676 248 
Q 2303 -75 1759 -75 
Q 1078 -75 664 370 
Q 250 816 250 1647 
Q 250 2184 428 2587 
Q 606 2991 970 3192 
Q 1334 3394 1763 3394 
Q 2303 3394 2647 3120 
Q 2991 2847 3088 2344 
L 2541 2259 
Q 2463 2594 2264 2762 
Q 2066 2931 1784 2931 
Q 1359 2931 1093 2626 
Q 828 2322 828 1663 
Q 828 994 1084 691 
Q 1341 388 1753 388 
Q 2084 388 2306 591 
Q 2528 794 2588 1216 
z
" transform="scale(0.015625)"/>
        <path id="ArialMT-31" d="M 2384 0 
L 1822 0 
L 1822 3584 
Q 1619 3391 1289 3197 
Q 959 3003 697 2906 
L 697 3450 
Q 1169 3672 1522 3987 
Q 1875 4303 2022 4600 
L 2384 4600 
L 2384 0 
z
" transform="scale(0.015625)"/>
        <path id="ArialMT-39" d="M 350 1059 
L 891 1109 
Q 959 728 1153 556 
Q 1347 384 1650 384 
Q 1909 384 2104 503 
Q 2300 622 2425 820 
Q 2550 1019 2634 1356 
Q 2719 1694 2719 2044 
Q 2719 2081 2716 2156 
Q 2547 1888 2255 1720 
Q 1963 1553 1622 1553 
Q 1053 1553 659 1965 
Q 266 2378 266 3053 
Q 266 3750 677 4175 
Q 1088 4600 1706 4600 
Q 2153 4600 2523 4359 
Q 2894 4119 3086 3673 
Q 3278 3228 3278 2384 
Q 3278 1506 3087 986 
Q 2897 466 2520 194 
Q 2144 -78 1638 -78 
Q 1100 -78 759 220 
Q 419 519 350 1059 
z
M 2653 3081 
Q 2653 3566 2395 3850 
Q 2138 4134 1775 4134 
Q 1400 4134 1122 3828 
Q 844 3522 844 3034 
Q 844 2597 1108 2323 
Q 1372 2050 1759 2050 
Q 2150 2050 2401 2323 
Q 2653 2597 2653 3081 
z
" transform="scale(0.015625)"/>
        <path id="ArialMT-32" d="M 3222 541 
L 3222 0 
L 194 0 
Q 188 203 259 391 
Q 375 700 629 1000 
Q 884 1300 1366 1694 
Q 2113 2306 2375 2664 
Q 2638 3022 2638 3341 
Q 2638 3675 2398 3904 
Q 2159 4134 1775 4134 
Q 1369 4134 1125 3890 
Q 881 3647 878 3216 
L 300 3275 
Q 359 3922 746 4261 
Q 1134 4600 1788 4600 
Q 2447 4600 2831 4234 
Q 3216 3869 3216 3328 
Q 3216 3053 3103 2787 
Q 2991 2522 2730 2228 
Q 2469 1934 1863 1422 
Q 1356 997 1212 845 
Q 1069 694 975 541 
L 3222 541 
z
" transform="scale(0.015625)"/>
       </defs>
       <use xlink:href="#ArialMT-68"/>
       <use xlink:href="#ArialMT-71" x="55.615234"/>
       <use xlink:href="#ArialMT-63" x="111.230469"/>
       <use xlink:href="#ArialMT-31" x="161.230469"/>
       <use xlink:href="#ArialMT-39" x="216.845703"/>
       <use xlink:href="#ArialMT-32" x="272.460938"/>
      </g>
     </g>
    </g>
    <g id="xtick_5">
     <g id="text_5">
      <!-- hqc192 -->
      <g style="fill: #262626" transform="translate(860.845906 746.761625) scale(0.26 -0.26)">
       <use xlink:href="#ArialMT-68"/>
       <use xlink:href="#ArialMT-71" x="55.615234"/>
       <use xlink:href="#ArialMT-63" x="111.230469"/>
       <use xlink:href="#ArialMT-31" x="161.230469"/>
       <use xlink:href="#ArialMT-39" x="216.845703"/>
       <use xlink:href="#ArialMT-32" x="272.460938"/>
      </g>
     </g>
    </g>
   </g>
   <g id="matplotlib.axis_2">
    <g id="ytick_1">
     <g id="line2d_1">
      <path d="M 79.56 715.418466 
L 995.04 715.418466 
" clip-path="url(#p000b354da3)" style="fill: none; stroke: #cccccc; stroke-linecap: round"/>
     </g>
     <g id="text_6">
      <!-- 0 -->
      <g style="fill: #262626" transform="translate(55.601563 724.723622) scale(0.26 -0.26)">
       <defs>
        <path id="ArialMT-30" d="M 266 2259 
Q 266 3072 433 3567 
Q 600 4063 929 4331 
Q 1259 4600 1759 4600 
Q 2128 4600 2406 4451 
Q 2684 4303 2865 4023 
Q 3047 3744 3150 3342 
Q 3253 2941 3253 2259 
Q 3253 1453 3087 958 
Q 2922 463 2592 192 
Q 2263 -78 1759 -78 
Q 1097 -78 719 397 
Q 266 969 266 2259 
z
M 844 2259 
Q 844 1131 1108 757 
Q 1372 384 1759 384 
Q 2147 384 2411 759 
Q 2675 1134 2675 2259 
Q 2675 3391 2411 3762 
Q 2147 4134 1753 4134 
Q 1366 4134 1134 3806 
Q 844 3388 844 2259 
z
" transform="scale(0.015625)"/>
       </defs>
       <use xlink:href="#ArialMT-30"/>
      </g>
     </g>
    </g>
    <g id="ytick_2">
     <g id="line2d_2">
      <path d="M 79.56 594.046964 
L 995.04 594.046964 
" clip-path="url(#p000b354da3)" style="fill: none; stroke: #cccccc; stroke-linecap: round"/>
     </g>
     <g id="text_7">
      <!-- 10 -->
      <g style="fill: #262626" transform="translate(41.143125 603.35212) scale(0.26 -0.26)">
       <use xlink:href="#ArialMT-31"/>
       <use xlink:href="#ArialMT-30" x="55.615234"/>
      </g>
     </g>
    </g>
    <g id="ytick_3">
     <g id="line2d_3">
      <path d="M 79.56 472.675462 
L 995.04 472.675462 
" clip-path="url(#p000b354da3)" style="fill: none; stroke: #cccccc; stroke-linecap: round"/>
     </g>
     <g id="text_8">
      <!-- 20 -->
      <g style="fill: #262626" transform="translate(41.143125 481.980619) scale(0.26 -0.26)">
       <use xlink:href="#ArialMT-32"/>
       <use xlink:href="#ArialMT-30" x="55.615234"/>
      </g>
     </g>
    </g>
    <g id="ytick_4">
     <g id="line2d_4">
      <path d="M 79.56 351.303961 
L 995.04 351.303961 
" clip-path="url(#p000b354da3)" style="fill: none; stroke: #cccccc; stroke-linecap: round"/>
     </g>
     <g id="text_9">
      <!-- 30 -->
      <g style="fill: #262626" transform="translate(41.143125 360.609117) scale(0.26 -0.26)">
       <defs>
        <path id="ArialMT-33" d="M 269 1209 
L 831 1284 
Q 928 806 1161 595 
Q 1394 384 1728 384 
Q 2125 384 2398 659 
Q 2672 934 2672 1341 
Q 2672 1728 2419 1979 
Q 2166 2231 1775 2231 
Q 1616 2231 1378 2169 
L 1441 2663 
Q 1497 2656 1531 2656 
Q 1891 2656 2178 2843 
Q 2466 3031 2466 3422 
Q 2466 3731 2256 3934 
Q 2047 4138 1716 4138 
Q 1388 4138 1169 3931 
Q 950 3725 888 3313 
L 325 3413 
Q 428 3978 793 4289 
Q 1159 4600 1703 4600 
Q 2078 4600 2393 4439 
Q 2709 4278 2876 4000 
Q 3044 3722 3044 3409 
Q 3044 3113 2884 2869 
Q 2725 2625 2413 2481 
Q 2819 2388 3044 2092 
Q 3269 1797 3269 1353 
Q 3269 753 2831 336 
Q 2394 -81 1725 -81 
Q 1122 -81 723 278 
Q 325 638 269 1209 
z
" transform="scale(0.015625)"/>
       </defs>
       <use xlink:href="#ArialMT-33"/>
       <use xlink:href="#ArialMT-30" x="55.615234"/>
      </g>
     </g>
    </g>
    <g id="ytick_5">
     <g id="line2d_5">
      <path d="M 79.56 229.932459 
L 995.04 229.932459 
" clip-path="url(#p000b354da3)" style="fill: none; stroke: #cccccc; stroke-linecap: round"/>
     </g>
     <g id="text_10">
      <!-- 40 -->
      <g style="fill: #262626" transform="translate(41.143125 239.237615) scale(0.26 -0.26)">
       <use xlink:href="#ArialMT-34"/>
       <use xlink:href="#ArialMT-30" x="55.615234"/>
      </g>
     </g>
    </g>
    <g id="ytick_6">
     <g id="line2d_6">
      <path d="M 79.56 108.560957 
L 995.04 108.560957 
" clip-path="url(#p000b354da3)" style="fill: none; stroke: #cccccc; stroke-linecap: round"/>
     </g>
     <g id="text_11">
      <!-- 50 -->
      <g style="fill: #262626" transform="translate(41.143125 117.866113) scale(0.26 -0.26)">
       <defs>
        <path id="ArialMT-35" d="M 266 1200 
L 856 1250 
Q 922 819 1161 601 
Q 1400 384 1738 384 
Q 2144 384 2425 690 
Q 2706 997 2706 1503 
Q 2706 1984 2436 2262 
Q 2166 2541 1728 2541 
Q 1456 2541 1237 2417 
Q 1019 2294 894 2097 
L 366 2166 
L 809 4519 
L 3088 4519 
L 3088 3981 
L 1259 3981 
L 1013 2750 
Q 1425 3038 1878 3038 
Q 2478 3038 2890 2622 
Q 3303 2206 3303 1553 
Q 3303 931 2941 478 
Q 2500 -78 1738 -78 
Q 1113 -78 717 272 
Q 322 622 266 1200 
z
" transform="scale(0.015625)"/>
       </defs>
       <use xlink:href="#ArialMT-35"/>
       <use xlink:href="#ArialMT-30" x="55.615234"/>
      </g>
     </g>
    </g>
    <g id="text_12">
     <!-- Handshake Time (ms) -->
     <g style="fill: #262626" transform="translate(31.670938 505.271125) rotate(-90) scale(0.26 -0.26)">
      <defs>
       <path id="ArialMT-48" d="M 513 0 
L 513 4581 
L 1119 4581 
L 1119 2700 
L 3500 2700 
L 3500 4581 
L 4106 4581 
L 4106 0 
L 3500 0 
L 3500 2159 
L 1119 2159 
L 1119 0 
L 513 0 
z
" transform="scale(0.015625)"/>
       <path id="ArialMT-61" d="M 2588 409 
Q 2275 144 1986 34 
Q 1697 -75 1366 -75 
Q 819 -75 525 192 
Q 231 459 231 875 
Q 231 1119 342 1320 
Q 453 1522 633 1644 
Q 813 1766 1038 1828 
Q 1203 1872 1538 1913 
Q 2219 1994 2541 2106 
Q 2544 2222 2544 2253 
Q 2544 2597 2384 2738 
Q 2169 2928 1744 2928 
Q 1347 2928 1158 2789 
Q 969 2650 878 2297 
L 328 2372 
Q 403 2725 575 2942 
Q 747 3159 1072 3276 
Q 1397 3394 1825 3394 
Q 2250 3394 2515 3294 
Q 2781 3194 2906 3042 
Q 3031 2891 3081 2659 
Q 3109 2516 3109 2141 
L 3109 1391 
Q 3109 606 3145 398 
Q 3181 191 3288 0 
L 2700 0 
Q 2613 175 2588 409 
z
M 2541 1666 
Q 2234 1541 1622 1453 
Q 1275 1403 1131 1340 
Q 988 1278 909 1158 
Q 831 1038 831 891 
Q 831 666 1001 516 
Q 1172 366 1500 366 
Q 1825 366 2078 508 
Q 2331 650 2450 897 
Q 2541 1088 2541 1459 
L 2541 1666 
z
" transform="scale(0.015625)"/>
       <path id="ArialMT-6e" d="M 422 0 
L 422 3319 
L 928 3319 
L 928 2847 
Q 1294 3394 1984 3394 
Q 2284 3394 2536 3286 
Q 2788 3178 2913 3003 
Q 3038 2828 3088 2588 
Q 3119 2431 3119 2041 
L 3119 0 
L 2556 0 
L 2556 2019 
Q 2556 2363 2490 2533 
Q 2425 2703 2258 2804 
Q 2091 2906 1866 2906 
Q 1506 2906 1245 2678 
Q 984 2450 984 1813 
L 984 0 
L 422 0 
z
" transform="scale(0.015625)"/>
       <path id="ArialMT-64" d="M 2575 0 
L 2575 419 
Q 2259 -75 1647 -75 
Q 1250 -75 917 144 
Q 584 363 401 755 
Q 219 1147 219 1656 
Q 219 2153 384 2558 
Q 550 2963 881 3178 
Q 1213 3394 1622 3394 
Q 1922 3394 2156 3267 
Q 2391 3141 2538 2938 
L 2538 4581 
L 3097 4581 
L 3097 0 
L 2575 0 
z
M 797 1656 
Q 797 1019 1065 703 
Q 1334 388 1700 388 
Q 2069 388 2326 689 
Q 2584 991 2584 1609 
Q 2584 2291 2321 2609 
Q 2059 2928 1675 2928 
Q 1300 2928 1048 2622 
Q 797 2316 797 1656 
z
" transform="scale(0.015625)"/>
       <path id="ArialMT-73" d="M 197 991 
L 753 1078 
Q 800 744 1014 566 
Q 1228 388 1613 388 
Q 2000 388 2187 545 
Q 2375 703 2375 916 
Q 2375 1106 2209 1216 
Q 2094 1291 1634 1406 
Q 1016 1563 777 1677 
Q 538 1791 414 1992 
Q 291 2194 291 2438 
Q 291 2659 392 2848 
Q 494 3038 669 3163 
Q 800 3259 1026 3326 
Q 1253 3394 1513 3394 
Q 1903 3394 2198 3281 
Q 2494 3169 2634 2976 
Q 2775 2784 2828 2463 
L 2278 2388 
Q 2241 2644 2061 2787 
Q 1881 2931 1553 2931 
Q 1166 2931 1000 2803 
Q 834 2675 834 2503 
Q 834 2394 903 2306 
Q 972 2216 1119 2156 
Q 1203 2125 1616 2013 
Q 2213 1853 2448 1751 
Q 2684 1650 2818 1456 
Q 2953 1263 2953 975 
Q 2953 694 2789 445 
Q 2625 197 2315 61 
Q 2006 -75 1616 -75 
Q 969 -75 630 194 
Q 291 463 197 991 
z
" transform="scale(0.015625)"/>
       <path id="ArialMT-20" transform="scale(0.015625)"/>
       <path id="ArialMT-54" d="M 1659 0 
L 1659 4041 
L 150 4041 
L 150 4581 
L 3781 4581 
L 3781 4041 
L 2266 4041 
L 2266 0 
L 1659 0 
z
" transform="scale(0.015625)"/>
       <path id="ArialMT-69" d="M 425 3934 
L 425 4581 
L 988 4581 
L 988 3934 
L 425 3934 
z
M 425 0 
L 425 3319 
L 988 3319 
L 988 0 
L 425 0 
z
" transform="scale(0.015625)"/>
       <path id="ArialMT-28" d="M 1497 -1347 
Q 1031 -759 709 28 
Q 388 816 388 1659 
Q 388 2403 628 3084 
Q 909 3875 1497 4659 
L 1900 4659 
Q 1522 4009 1400 3731 
Q 1209 3300 1100 2831 
Q 966 2247 966 1656 
Q 966 153 1900 -1347 
L 1497 -1347 
z
" transform="scale(0.015625)"/>
       <path id="ArialMT-29" d="M 791 -1347 
L 388 -1347 
Q 1322 153 1322 1656 
Q 1322 2244 1188 2822 
Q 1081 3291 891 3722 
Q 769 4003 388 4659 
L 791 4659 
Q 1378 3875 1659 3084 
Q 1900 2403 1900 1659 
Q 1900 816 1576 28 
Q 1253 -759 791 -1347 
z
" transform="scale(0.015625)"/>
      </defs>
      <use xlink:href="#ArialMT-48"/>
      <use xlink:href="#ArialMT-61" x="72.216797"/>
      <use xlink:href="#ArialMT-6e" x="127.832031"/>
      <use xlink:href="#ArialMT-64" x="183.447266"/>
      <use xlink:href="#ArialMT-73" x="239.0625"/>
      <use xlink:href="#ArialMT-68" x="289.0625"/>
      <use xlink:href="#ArialMT-61" x="344.677734"/>
      <use xlink:href="#ArialMT-6b" x="400.292969"/>
      <use xlink:href="#ArialMT-65" x="450.292969"/>
      <use xlink:href="#ArialMT-20" x="505.908203"/>
      <use xlink:href="#ArialMT-54" x="531.941406"/>
      <use xlink:href="#ArialMT-69" x="589.275391"/>
      <use xlink:href="#ArialMT-6d" x="611.492188"/>
      <use xlink:href="#ArialMT-65" x="694.792969"/>
      <use xlink:href="#ArialMT-20" x="750.408203"/>
      <use xlink:href="#ArialMT-28" x="778.191406"/>
      <use xlink:href="#ArialMT-6d" x="811.492188"/>
      <use xlink:href="#ArialMT-73" x="894.792969"/>
      <use xlink:href="#ArialMT-29" x="944.792969"/>
     </g>
    </g>
   </g>
   <g id="patch_3">
    <path d="M 171.108 715.418466 
L 171.108 715.418466 
L 171.108 715.418466 
L 171.108 715.418466 
z
" clip-path="url(#p000b354da3)" style="fill: #72b6a1; stroke: #595959; stroke-width: 0.6; stroke-linejoin: miter"/>
   </g>
   <g id="PolyCollection_1">
    <defs>
     <path id="m96d96c1a4e" d="M 171.108 -106.074809 
L 98.567293 -106.074809 
L 98.148184 -106.877822 
L 97.915096 -107.680836 
L 97.8696 -108.483849 
L 98.011793 -109.286863 
L 98.340301 -110.089876 
L 98.852294 -110.89289 
L 99.543516 -111.695903 
L 100.408341 -112.498917 
L 101.439838 -113.30193 
L 102.629854 -114.104944 
L 103.969115 -114.907957 
L 105.447329 -115.710971 
L 107.05331 -116.513984 
L 108.775104 -117.316998 
L 110.60012 -118.120011 
L 112.51527 -118.923025 
L 114.507105 -119.726038 
L 116.561951 -120.529051 
L 118.666049 -121.332065 
L 120.805678 -122.135078 
L 122.967283 -122.938092 
L 125.137589 -123.741105 
L 127.303707 -124.544119 
L 129.45323 -125.347132 
L 131.574315 -126.150146 
L 133.655757 -126.953159 
L 135.68705 -127.756173 
L 137.658434 -128.559186 
L 139.560927 -129.3622 
L 141.386355 -130.165213 
L 143.127361 -130.968227 
L 144.777409 -131.77124 
L 146.330776 -132.574254 
L 147.782538 -133.377267 
L 149.128549 -134.18028 
L 150.365411 -134.983294 
L 151.490441 -135.786307 
L 152.501637 -136.589321 
L 153.397638 -137.392334 
L 154.177684 -138.195348 
L 154.841578 -138.998361 
L 155.389646 -139.801375 
L 155.822701 -140.604388 
L 156.142007 -141.407402 
L 156.34925 -142.210415 
L 156.446508 -143.013429 
L 156.436224 -143.816442 
L 156.321192 -144.619456 
L 156.104534 -145.422469 
L 155.789689 -146.225483 
L 155.380404 -147.028496 
L 154.880724 -147.831509 
L 154.294988 -148.634523 
L 153.627829 -149.437536 
L 152.884166 -150.24055 
L 152.069207 -151.043563 
L 151.188446 -151.846577 
L 150.247659 -152.64959 
L 149.2529 -153.452604 
L 148.21049 -154.255617 
L 147.127014 -155.058631 
L 146.0093 -155.861644 
L 144.864405 -156.664658 
L 143.69959 -157.467671 
L 142.522296 -158.270685 
L 141.340108 -159.073698 
L 140.160722 -159.876712 
L 138.991901 -160.679725 
L 137.84143 -161.482739 
L 136.71707 -162.285752 
L 135.626496 -163.088765 
L 134.577252 -163.891779 
L 133.576684 -164.694792 
L 132.631884 -165.497806 
L 131.749631 -166.300819 
L 130.93633 -167.103833 
L 130.197955 -167.906846 
L 129.539992 -168.70986 
L 128.967387 -169.512873 
L 128.484501 -170.315887 
L 128.095062 -171.1189 
L 127.802132 -171.921914 
L 127.608075 -172.724927 
L 127.514537 -173.527941 
L 127.522424 -174.330954 
L 127.631903 -175.133968 
L 127.842398 -175.936981 
L 128.152598 -176.739994 
L 128.560483 -177.543008 
L 129.063337 -178.346021 
L 129.657795 -179.149035 
L 130.339874 -179.952048 
L 131.105022 -180.755062 
L 131.948174 -181.558075 
L 132.863809 -182.361089 
L 133.846011 -183.164102 
L 134.888532 -183.967116 
L 135.984866 -184.770129 
L 137.128313 -185.573143 
L 171.108 -185.573143 
L 171.108 -185.573143 
L 171.108 -184.770129 
L 171.108 -183.967116 
L 171.108 -183.164102 
L 171.108 -182.361089 
L 171.108 -181.558075 
L 171.108 -180.755062 
L 171.108 -179.952048 
L 171.108 -179.149035 
L 171.108 -178.346021 
L 171.108 -177.543008 
L 171.108 -176.739994 
L 171.108 -175.936981 
L 171.108 -175.133968 
L 171.108 -174.330954 
L 171.108 -173.527941 
L 171.108 -172.724927 
L 171.108 -171.921914 
L 171.108 -171.1189 
L 171.108 -170.315887 
L 171.108 -169.512873 
L 171.108 -168.70986 
L 171.108 -167.906846 
L 171.108 -167.103833 
L 171.108 -166.300819 
L 171.108 -165.497806 
L 171.108 -164.694792 
L 171.108 -163.891779 
L 171.108 -163.088765 
L 171.108 -162.285752 
L 171.108 -161.482739 
L 171.108 -160.679725 
L 171.108 -159.876712 
L 171.108 -159.073698 
L 171.108 -158.270685 
L 171.108 -157.467671 
L 171.108 -156.664658 
L 171.108 -155.861644 
L 171.108 -155.058631 
L 171.108 -154.255617 
L 171.108 -153.452604 
L 171.108 -152.64959 
L 171.108 -151.846577 
L 171.108 -151.043563 
L 171.108 -150.24055 
L 171.108 -149.437536 
L 171.108 -148.634523 
L 171.108 -147.831509 
L 171.108 -147.028496 
L 171.108 -146.225483 
L 171.108 -145.422469 
L 171.108 -144.619456 
L 171.108 -143.816442 
L 171.108 -143.013429 
L 171.108 -142.210415 
L 171.108 -141.407402 
L 171.108 -140.604388 
L 171.108 -139.801375 
L 171.108 -138.998361 
L 171.108 -138.195348 
L 171.108 -137.392334 
L 171.108 -136.589321 
L 171.108 -135.786307 
L 171.108 -134.983294 
L 171.108 -134.18028 
L 171.108 -133.377267 
L 171.108 -132.574254 
L 171.108 -131.77124 
L 171.108 -130.968227 
L 171.108 -130.165213 
L 171.108 -129.3622 
L 171.108 -128.559186 
L 171.108 -127.756173 
L 171.108 -126.953159 
L 171.108 -126.150146 
L 171.108 -125.347132 
L 171.108 -124.544119 
L 171.108 -123.741105 
L 171.108 -122.938092 
L 171.108 -122.135078 
L 171.108 -121.332065 
L 171.108 -120.529051 
L 171.108 -119.726038 
L 171.108 -118.923025 
L 171.108 -118.120011 
L 171.108 -117.316998 
L 171.108 -116.513984 
L 171.108 -115.710971 
L 171.108 -114.907957 
L 171.108 -114.104944 
L 171.108 -113.30193 
L 171.108 -112.498917 
L 171.108 -111.695903 
L 171.108 -110.89289 
L 171.108 -110.089876 
L 171.108 -109.286863 
L 171.108 -108.483849 
L 171.108 -107.680836 
L 171.108 -106.877822 
L 171.108 -106.074809 
z
" style="stroke: #595959; stroke-width: 1.2"/>
    </defs>
    <g clip-path="url(#p000b354da3)">
     <use xlink:href="#m96d96c1a4e" x="0" y="792" style="fill: #72b6a1; stroke: #595959; stroke-width: 1.2"/>
    </g>
   </g>
   <g id="patch_4">
    <path d="M 171.108 715.418466 
L 171.108 715.418466 
L 171.108 715.418466 
L 171.108 715.418466 
z
" clip-path="url(#p000b354da3)" style="fill: #e99675; stroke: #595959; stroke-width: 0.6; stroke-linejoin: miter"/>
   </g>
   <g id="PolyCollection_2">
    <defs>
     <path id="md8b9160c0e" d="M 226.181136 -132.04831 
L 171.108 -132.04831 
L 171.108 -132.672332 
L 171.108 -133.296353 
L 171.108 -133.920374 
L 171.108 -134.544395 
L 171.108 -135.168416 
L 171.108 -135.792437 
L 171.108 -136.416458 
L 171.108 -137.04048 
L 171.108 -137.664501 
L 171.108 -138.288522 
L 171.108 -138.912543 
L 171.108 -139.536564 
L 171.108 -140.160585 
L 171.108 -140.784607 
L 171.108 -141.408628 
L 171.108 -142.032649 
L 171.108 -142.65667 
L 171.108 -143.280691 
L 171.108 -143.904712 
L 171.108 -144.528733 
L 171.108 -145.152755 
L 171.108 -145.776776 
L 171.108 -146.400797 
L 171.108 -147.024818 
L 171.108 -147.648839 
L 171.108 -148.27286 
L 171.108 -148.896882 
L 171.108 -149.520903 
L 171.108 -150.144924 
L 171.108 -150.768945 
L 171.108 -151.392966 
L 171.108 -152.016987 
L 171.108 -152.641008 
L 171.108 -153.26503 
L 171.108 -153.889051 
L 171.108 -154.513072 
L 171.108 -155.137093 
L 171.108 -155.761114 
L 171.108 -156.385135 
L 171.108 -157.009157 
L 171.108 -157.633178 
L 171.108 -158.257199 
L 171.108 -158.88122 
L 171.108 -159.505241 
L 171.108 -160.129262 
L 171.108 -160.753284 
L 171.108 -161.377305 
L 171.108 -162.001326 
L 171.108 -162.625347 
L 171.108 -163.249368 
L 171.108 -163.873389 
L 171.108 -164.49741 
L 171.108 -165.121432 
L 171.108 -165.745453 
L 171.108 -166.369474 
L 171.108 -166.993495 
L 171.108 -167.617516 
L 171.108 -168.241537 
L 171.108 -168.865559 
L 171.108 -169.48958 
L 171.108 -170.113601 
L 171.108 -170.737622 
L 171.108 -171.361643 
L 171.108 -171.985664 
L 171.108 -172.609685 
L 171.108 -173.233707 
L 171.108 -173.857728 
L 171.108 -174.481749 
L 171.108 -175.10577 
L 171.108 -175.729791 
L 171.108 -176.353812 
L 171.108 -176.977834 
L 171.108 -177.601855 
L 171.108 -178.225876 
L 171.108 -178.849897 
L 171.108 -179.473918 
L 171.108 -180.097939 
L 171.108 -180.721961 
L 171.108 -181.345982 
L 171.108 -181.970003 
L 171.108 -182.594024 
L 171.108 -183.218045 
L 171.108 -183.842066 
L 171.108 -184.466087 
L 171.108 -185.090109 
L 171.108 -185.71413 
L 171.108 -186.338151 
L 171.108 -186.962172 
L 171.108 -187.586193 
L 171.108 -188.210214 
L 171.108 -188.834236 
L 171.108 -189.458257 
L 171.108 -190.082278 
L 171.108 -190.706299 
L 171.108 -191.33032 
L 171.108 -191.954341 
L 171.108 -192.578362 
L 171.108 -193.202384 
L 171.108 -193.826405 
L 174.518775 -193.826405 
L 174.518775 -193.826405 
L 174.608263 -193.202384 
L 174.686351 -192.578362 
L 174.754183 -191.954341 
L 174.813223 -191.33032 
L 174.865161 -190.706299 
L 174.911814 -190.082278 
L 174.955027 -189.458257 
L 174.996576 -188.834236 
L 175.03807 -188.210214 
L 175.080886 -187.586193 
L 175.126108 -186.962172 
L 175.174496 -186.338151 
L 175.226475 -185.71413 
L 175.282151 -185.090109 
L 175.341339 -184.466087 
L 175.40362 -183.842066 
L 175.468394 -183.218045 
L 175.534954 -182.594024 
L 175.602554 -181.970003 
L 175.670471 -181.345982 
L 175.738068 -180.721961 
L 175.804838 -180.097939 
L 175.870441 -179.473918 
L 175.934726 -178.849897 
L 175.997741 -178.225876 
L 176.059734 -177.601855 
L 176.121139 -176.977834 
L 176.18256 -176.353812 
L 176.244751 -175.729791 
L 176.30859 -175.10577 
L 176.375047 -174.481749 
L 176.445165 -173.857728 
L 176.520029 -173.233707 
L 176.600737 -172.609685 
L 176.688381 -171.985664 
L 176.784025 -171.361643 
L 176.888679 -170.737622 
L 177.00329 -170.113601 
L 177.128732 -169.48958 
L 177.2658 -168.865559 
L 177.415223 -168.241537 
L 177.57768 -167.617516 
L 177.753832 -166.993495 
L 177.944374 -166.369474 
L 178.150086 -165.745453 
L 178.371914 -165.121432 
L 178.611053 -164.49741 
L 178.869039 -163.873389 
L 179.147842 -163.249368 
L 179.449967 -162.625347 
L 179.778539 -162.001326 
L 180.137385 -161.377305 
L 180.531091 -160.753284 
L 180.965048 -160.129262 
L 181.44547 -159.505241 
L 181.979383 -158.88122 
L 182.574587 -158.257199 
L 183.239594 -157.633178 
L 183.983523 -157.009157 
L 184.815972 -156.385135 
L 185.746855 -155.761114 
L 186.786207 -155.137093 
L 187.943954 -154.513072 
L 189.229645 -153.889051 
L 190.652152 -153.26503 
L 192.219336 -152.641008 
L 193.937673 -152.016987 
L 195.811856 -151.392966 
L 197.844371 -150.768945 
L 200.035057 -150.144924 
L 202.380666 -149.520903 
L 204.87444 -148.896882 
L 207.505724 -148.27286 
L 210.259637 -147.648839 
L 213.11683 -147.024818 
L 216.05336 -146.400797 
L 219.040691 -145.776776 
L 222.045861 -145.152755 
L 225.031828 -144.528733 
L 227.957994 -143.904712 
L 230.780925 -143.280691 
L 233.455251 -142.65667 
L 235.934727 -142.032649 
L 238.173428 -141.408628 
L 240.127039 -140.784607 
L 241.754195 -140.160585 
L 243.01781 -139.536564 
L 243.886343 -138.912543 
L 244.33494 -138.288522 
L 244.3464 -137.664501 
L 243.911907 -137.04048 
L 243.031498 -136.416458 
L 241.714225 -135.792437 
L 239.97802 -135.168416 
L 237.849233 -134.544395 
L 235.361888 -133.920374 
L 232.556672 -133.296353 
L 229.479702 -132.672332 
L 226.181136 -132.04831 
z
" style="stroke: #595959; stroke-width: 1.2"/>
    </defs>
    <g clip-path="url(#p000b354da3)">
     <use xlink:href="#md8b9160c0e" x="0" y="792" style="fill: #e99675; stroke: #595959; stroke-width: 1.2"/>
    </g>
   </g>
   <g id="PolyCollection_3">
    <defs>
     <path id="m4ad7065eea" d="M 354.204 -108.866354 
L 283.172164 -108.866354 
L 281.703757 -110.929669 
L 280.9656 -112.992985 
L 280.971364 -115.0563 
L 281.709913 -117.119616 
L 283.145758 -119.182931 
L 285.220748 -121.246247 
L 287.85684 -123.309562 
L 290.959765 -125.372878 
L 294.423315 -127.436193 
L 298.133995 -129.499509 
L 301.975727 -131.562824 
L 305.834379 -133.62614 
L 309.601888 -135.689455 
L 313.17982 -137.752771 
L 316.48226 -139.816086 
L 319.437992 -141.879402 
L 321.991969 -143.942718 
L 324.106109 -146.006033 
L 325.75949 -148.069349 
L 326.948011 -150.132664 
L 327.683597 -152.19598 
L 327.993014 -154.259295 
L 327.916348 -156.322611 
L 327.505187 -158.385926 
L 326.820542 -160.449242 
L 325.930546 -162.512557 
L 324.907958 -164.575873 
L 323.827531 -166.639188 
L 322.76331 -168.702504 
L 321.785943 -170.765819 
L 320.960112 -172.829135 
L 320.342194 -174.89245 
L 319.978263 -176.955766 
L 319.902556 -179.019082 
L 320.136474 -181.082397 
L 320.68819 -183.145713 
L 321.552887 -185.209028 
L 322.713602 -187.272344 
L 324.142638 -189.335659 
L 325.803416 -191.398975 
L 327.652685 -193.46229 
L 329.642907 -195.525606 
L 331.724691 -197.588921 
L 333.849123 -199.652237 
L 335.969855 -201.715552 
L 338.044859 -203.778868 
L 340.037777 -205.842183 
L 341.91881 -207.905499 
L 343.665177 -209.968815 
L 345.26114 -212.03213 
L 346.697674 -214.095446 
L 347.971845 -216.158761 
L 349.085968 -218.222077 
L 350.046654 -220.285392 
L 350.863794 -222.348708 
L 351.549575 -224.412023 
L 352.117558 -226.475339 
L 352.581879 -228.538654 
L 352.956587 -230.60197 
L 353.255118 -232.665285 
L 353.489924 -234.728601 
L 353.67223 -236.791916 
L 353.8119 -238.855232 
L 353.917404 -240.918547 
L 353.995853 -242.981863 
L 354.053078 -245.045179 
L 354.093749 -247.108494 
L 354.121502 -249.17181 
L 354.139071 -251.235125 
L 354.148418 -253.298441 
L 354.150843 -255.361756 
L 354.147093 -257.425072 
L 354.137446 -259.488387 
L 354.12179 -261.551703 
L 354.099692 -263.615018 
L 354.070461 -265.678334 
L 354.033209 -267.741649 
L 353.986917 -269.804965 
L 353.930505 -271.86828 
L 353.862909 -273.931596 
L 353.783167 -275.994911 
L 353.690507 -278.058227 
L 353.58445 -280.121543 
L 353.464899 -282.184858 
L 353.332232 -284.248174 
L 353.187378 -286.311489 
L 353.031869 -288.374805 
L 352.86787 -290.43812 
L 352.698167 -292.501436 
L 352.526125 -294.564751 
L 352.355595 -296.628067 
L 352.19079 -298.691382 
L 352.036119 -300.754698 
L 351.895998 -302.818013 
L 351.774643 -304.881329 
L 351.675861 -306.944644 
L 351.602852 -309.00796 
L 351.558039 -311.071275 
L 351.54293 -313.134591 
L 354.204 -313.134591 
L 354.204 -313.134591 
L 354.204 -311.071275 
L 354.204 -309.00796 
L 354.204 -306.944644 
L 354.204 -304.881329 
L 354.204 -302.818013 
L 354.204 -300.754698 
L 354.204 -298.691382 
L 354.204 -296.628067 
L 354.204 -294.564751 
L 354.204 -292.501436 
L 354.204 -290.43812 
L 354.204 -288.374805 
L 354.204 -286.311489 
L 354.204 -284.248174 
L 354.204 -282.184858 
L 354.204 -280.121543 
L 354.204 -278.058227 
L 354.204 -275.994911 
L 354.204 -273.931596 
L 354.204 -271.86828 
L 354.204 -269.804965 
L 354.204 -267.741649 
L 354.204 -265.678334 
L 354.204 -263.615018 
L 354.204 -261.551703 
L 354.204 -259.488387 
L 354.204 -257.425072 
L 354.204 -255.361756 
L 354.204 -253.298441 
L 354.204 -251.235125 
L 354.204 -249.17181 
L 354.204 -247.108494 
L 354.204 -245.045179 
L 354.204 -242.981863 
L 354.204 -240.918547 
L 354.204 -238.855232 
L 354.204 -236.791916 
L 354.204 -234.728601 
L 354.204 -232.665285 
L 354.204 -230.60197 
L 354.204 -228.538654 
L 354.204 -226.475339 
L 354.204 -224.412023 
L 354.204 -222.348708 
L 354.204 -220.285392 
L 354.204 -218.222077 
L 354.204 -216.158761 
L 354.204 -214.095446 
L 354.204 -212.03213 
L 354.204 -209.968815 
L 354.204 -207.905499 
L 354.204 -205.842183 
L 354.204 -203.778868 
L 354.204 -201.715552 
L 354.204 -199.652237 
L 354.204 -197.588921 
L 354.204 -195.525606 
L 354.204 -193.46229 
L 354.204 -191.398975 
L 354.204 -189.335659 
L 354.204 -187.272344 
L 354.204 -185.209028 
L 354.204 -183.145713 
L 354.204 -181.082397 
L 354.204 -179.019082 
L 354.204 -176.955766 
L 354.204 -174.89245 
L 354.204 -172.829135 
L 354.204 -170.765819 
L 354.204 -168.702504 
L 354.204 -166.639188 
L 354.204 -164.575873 
L 354.204 -162.512557 
L 354.204 -160.449242 
L 354.204 -158.385926 
L 354.204 -156.322611 
L 354.204 -154.259295 
L 354.204 -152.19598 
L 354.204 -150.132664 
L 354.204 -148.069349 
L 354.204 -146.006033 
L 354.204 -143.942718 
L 354.204 -141.879402 
L 354.204 -139.816086 
L 354.204 -137.752771 
L 354.204 -135.689455 
L 354.204 -133.62614 
L 354.204 -131.562824 
L 354.204 -129.499509 
L 354.204 -127.436193 
L 354.204 -125.372878 
L 354.204 -123.309562 
L 354.204 -121.246247 
L 354.204 -119.182931 
L 354.204 -117.119616 
L 354.204 -115.0563 
L 354.204 -112.992985 
L 354.204 -110.929669 
L 354.204 -108.866354 
z
" style="stroke: #595959; stroke-width: 1.2"/>
    </defs>
    <g clip-path="url(#p000b354da3)">
     <use xlink:href="#m4ad7065eea" x="0" y="792" style="fill: #72b6a1; stroke: #595959; stroke-width: 1.2"/>
    </g>
   </g>
   <g id="PolyCollection_4">
    <defs>
     <path id="m4f90d94748" d="M 423.855036 -137.752771 
L 354.204 -137.752771 
L 354.204 -139.595411 
L 354.204 -141.438051 
L 354.204 -143.280691 
L 354.204 -145.123331 
L 354.204 -146.965971 
L 354.204 -148.808611 
L 354.204 -150.651251 
L 354.204 -152.493892 
L 354.204 -154.336532 
L 354.204 -156.179172 
L 354.204 -158.021812 
L 354.204 -159.864452 
L 354.204 -161.707092 
L 354.204 -163.549732 
L 354.204 -165.392372 
L 354.204 -167.235012 
L 354.204 -169.077652 
L 354.204 -170.920292 
L 354.204 -172.762932 
L 354.204 -174.605572 
L 354.204 -176.448212 
L 354.204 -178.290853 
L 354.204 -180.133493 
L 354.204 -181.976133 
L 354.204 -183.818773 
L 354.204 -185.661413 
L 354.204 -187.504053 
L 354.204 -189.346693 
L 354.204 -191.189333 
L 354.204 -193.031973 
L 354.204 -194.874613 
L 354.204 -196.717253 
L 354.204 -198.559893 
L 354.204 -200.402533 
L 354.204 -202.245173 
L 354.204 -204.087814 
L 354.204 -205.930454 
L 354.204 -207.773094 
L 354.204 -209.615734 
L 354.204 -211.458374 
L 354.204 -213.301014 
L 354.204 -215.143654 
L 354.204 -216.986294 
L 354.204 -218.828934 
L 354.204 -220.671574 
L 354.204 -222.514214 
L 354.204 -224.356854 
L 354.204 -226.199494 
L 354.204 -228.042134 
L 354.204 -229.884775 
L 354.204 -231.727415 
L 354.204 -233.570055 
L 354.204 -235.412695 
L 354.204 -237.255335 
L 354.204 -239.097975 
L 354.204 -240.940615 
L 354.204 -242.783255 
L 354.204 -244.625895 
L 354.204 -246.468535 
L 354.204 -248.311175 
L 354.204 -250.153815 
L 354.204 -251.996455 
L 354.204 -253.839096 
L 354.204 -255.681736 
L 354.204 -257.524376 
L 354.204 -259.367016 
L 354.204 -261.209656 
L 354.204 -263.052296 
L 354.204 -264.894936 
L 354.204 -266.737576 
L 354.204 -268.580216 
L 354.204 -270.422856 
L 354.204 -272.265496 
L 354.204 -274.108136 
L 354.204 -275.950776 
L 354.204 -277.793416 
L 354.204 -279.636057 
L 354.204 -281.478697 
L 354.204 -283.321337 
L 354.204 -285.163977 
L 354.204 -287.006617 
L 354.204 -288.849257 
L 354.204 -290.691897 
L 354.204 -292.534537 
L 354.204 -294.377177 
L 354.204 -296.219817 
L 354.204 -298.062457 
L 354.204 -299.905097 
L 354.204 -301.747737 
L 354.204 -303.590377 
L 354.204 -305.433018 
L 354.204 -307.275658 
L 354.204 -309.118298 
L 354.204 -310.960938 
L 354.204 -312.803578 
L 354.204 -314.646218 
L 354.204 -316.488858 
L 354.204 -318.331498 
L 354.204 -320.174138 
L 362.408166 -320.174138 
L 362.408166 -320.174138 
L 362.950614 -318.331498 
L 363.499337 -316.488858 
L 364.050513 -314.646218 
L 364.599921 -312.803578 
L 365.142982 -310.960938 
L 365.674804 -309.118298 
L 366.190244 -307.275658 
L 366.683982 -305.433018 
L 367.150607 -303.590377 
L 367.584712 -301.747737 
L 367.980996 -299.905097 
L 368.334374 -298.062457 
L 368.640087 -296.219817 
L 368.893812 -294.377177 
L 369.091767 -292.534537 
L 369.230809 -290.691897 
L 369.308522 -288.849257 
L 369.323291 -287.006617 
L 369.274355 -285.163977 
L 369.161851 -283.321337 
L 368.986827 -281.478697 
L 368.751244 -279.636057 
L 368.457948 -277.793416 
L 368.110631 -275.950776 
L 367.713769 -274.108136 
L 367.272537 -272.265496 
L 366.792725 -270.422856 
L 366.280628 -268.580216 
L 365.742932 -266.737576 
L 365.186608 -264.894936 
L 364.618781 -263.052296 
L 364.04663 -261.209656 
L 363.477269 -259.367016 
L 362.917651 -257.524376 
L 362.374482 -255.681736 
L 361.85414 -253.839096 
L 361.362619 -251.996455 
L 360.905478 -250.153815 
L 360.487812 -248.311175 
L 360.114234 -246.468535 
L 359.788876 -244.625895 
L 359.515394 -242.783255 
L 359.296996 -240.940615 
L 359.136471 -239.097975 
L 359.036231 -237.255335 
L 358.998357 -235.412695 
L 359.024651 -233.570055 
L 359.116691 -231.727415 
L 359.275886 -229.884775 
L 359.503532 -228.042134 
L 359.800865 -226.199494 
L 360.169113 -224.356854 
L 360.609542 -222.514214 
L 361.123496 -220.671574 
L 361.712431 -218.828934 
L 362.377943 -216.986294 
L 363.121783 -215.143654 
L 363.945864 -213.301014 
L 364.852256 -211.458374 
L 365.843168 -209.615734 
L 366.920914 -207.773094 
L 368.087863 -205.930454 
L 369.346375 -204.087814 
L 370.698716 -202.245173 
L 372.146956 -200.402533 
L 373.692852 -198.559893 
L 375.337706 -196.717253 
L 377.082218 -194.874613 
L 378.926316 -193.031973 
L 380.868981 -191.189333 
L 382.908066 -189.346693 
L 385.040114 -187.504053 
L 387.260177 -185.661413 
L 389.561658 -183.818773 
L 391.936161 -181.976133 
L 394.373377 -180.133493 
L 396.860998 -178.290853 
L 399.38468 -176.448212 
L 401.928052 -174.605572 
L 404.47278 -172.762932 
L 406.998692 -170.920292 
L 409.483965 -169.077652 
L 411.905373 -167.235012 
L 414.238597 -165.392372 
L 416.458596 -163.549732 
L 418.540023 -161.707092 
L 420.457684 -159.864452 
L 422.187032 -158.021812 
L 423.704673 -156.179172 
L 424.988883 -154.336532 
L 426.020104 -152.493892 
L 426.781419 -150.651251 
L 427.258985 -148.808611 
L 427.4424 -146.965971 
L 427.325009 -145.123331 
L 426.90412 -143.280691 
L 426.181134 -141.438051 
L 425.161579 -139.595411 
L 423.855036 -137.752771 
z
" style="stroke: #595959; stroke-width: 1.2"/>
    </defs>
    <g clip-path="url(#p000b354da3)">
     <use xlink:href="#m4f90d94748" x="0" y="792" style="fill: #e99675; stroke: #595959; stroke-width: 1.2"/>
    </g>
   </g>
   <g id="PolyCollection_5">
    <defs>
     <path id="m0165369c4c" d="M 537.3 -104.375608 
L 466.103053 -104.375608 
L 464.896109 -106.579911 
L 464.21624 -108.784213 
L 464.0616 -110.988516 
L 464.414865 -113.192818 
L 465.243774 -115.397121 
L 466.502356 -117.601424 
L 468.132764 -119.805726 
L 470.067648 -122.010029 
L 472.232938 -124.214332 
L 474.550903 -126.418634 
L 476.943321 -128.622937 
L 479.334623 -130.827239 
L 481.654841 -133.031542 
L 483.842233 -135.235845 
L 485.845458 -137.440147 
L 487.625226 -139.64445 
L 489.155353 -141.848753 
L 490.423183 -144.053055 
L 491.429415 -146.257358 
L 492.187328 -148.461661 
L 492.721495 -150.665963 
L 493.066068 -152.870266 
L 493.262709 -155.074568 
L 493.35832 -157.278871 
L 493.402649 -159.483174 
L 493.445914 -161.687476 
L 493.53654 -163.891779 
L 493.71912 -166.096082 
L 494.032658 -168.300384 
L 494.509182 -170.504687 
L 495.172752 -172.708989 
L 496.038884 -174.913292 
L 497.114396 -177.117595 
L 498.397639 -179.321897 
L 499.87909 -181.5262 
L 501.542233 -183.730503 
L 503.364679 -185.934805 
L 505.319444 -188.139108 
L 507.376313 -190.34341 
L 509.503223 -192.547713 
L 511.66759 -194.752016 
L 513.837532 -196.956318 
L 515.982943 -199.160621 
L 518.076374 -201.364924 
L 520.093714 -203.569226 
L 522.014658 -205.773529 
L 523.82297 -207.977831 
L 525.506544 -210.182134 
L 527.057306 -212.386437 
L 528.470965 -214.590739 
L 529.746656 -216.795042 
L 530.886501 -218.999345 
L 531.895124 -221.203647 
L 532.779148 -223.40795 
L 533.546687 -225.612253 
L 534.206882 -227.816555 
L 534.769458 -230.020858 
L 535.244348 -232.22516 
L 535.641368 -234.429463 
L 535.969953 -236.633766 
L 536.238954 -238.838068 
L 536.456485 -241.042371 
L 536.629829 -243.246674 
L 536.765376 -245.450976 
L 536.868604 -247.655279 
L 536.944088 -249.859581 
L 536.995527 -252.063884 
L 537.025798 -254.268187 
L 537.037008 -256.472489 
L 537.030573 -258.676792 
L 537.007289 -260.881095 
L 536.96742 -263.085397 
L 536.910788 -265.2897 
L 536.836863 -267.494002 
L 536.744871 -269.698305 
L 536.633893 -271.902608 
L 536.502983 -274.10691 
L 536.351281 -276.311213 
L 536.178128 -278.515516 
L 535.983185 -280.719818 
L 535.766548 -282.924121 
L 535.528844 -285.128423 
L 535.271324 -287.332726 
L 534.995928 -289.537029 
L 534.705328 -291.741331 
L 534.402938 -293.945634 
L 534.092891 -296.149937 
L 533.779977 -298.354239 
L 533.469547 -300.558542 
L 533.167375 -302.762845 
L 532.87949 -304.967147 
L 532.611991 -307.17145 
L 532.370828 -309.375752 
L 532.161589 -311.580055 
L 531.989287 -313.784358 
L 531.858158 -315.98866 
L 531.77149 -318.192963 
L 531.731486 -320.397266 
L 531.73917 -322.601568 
L 537.3 -322.601568 
L 537.3 -322.601568 
L 537.3 -320.397266 
L 537.3 -318.192963 
L 537.3 -315.98866 
L 537.3 -313.784358 
L 537.3 -311.580055 
L 537.3 -309.375752 
L 537.3 -307.17145 
L 537.3 -304.967147 
L 537.3 -302.762845 
L 537.3 -300.558542 
L 537.3 -298.354239 
L 537.3 -296.149937 
L 537.3 -293.945634 
L 537.3 -291.741331 
L 537.3 -289.537029 
L 537.3 -287.332726 
L 537.3 -285.128423 
L 537.3 -282.924121 
L 537.3 -280.719818 
L 537.3 -278.515516 
L 537.3 -276.311213 
L 537.3 -274.10691 
L 537.3 -271.902608 
L 537.3 -269.698305 
L 537.3 -267.494002 
L 537.3 -265.2897 
L 537.3 -263.085397 
L 537.3 -260.881095 
L 537.3 -258.676792 
L 537.3 -256.472489 
L 537.3 -254.268187 
L 537.3 -252.063884 
L 537.3 -249.859581 
L 537.3 -247.655279 
L 537.3 -245.450976 
L 537.3 -243.246674 
L 537.3 -241.042371 
L 537.3 -238.838068 
L 537.3 -236.633766 
L 537.3 -234.429463 
L 537.3 -232.22516 
L 537.3 -230.020858 
L 537.3 -227.816555 
L 537.3 -225.612253 
L 537.3 -223.40795 
L 537.3 -221.203647 
L 537.3 -218.999345 
L 537.3 -216.795042 
L 537.3 -214.590739 
L 537.3 -212.386437 
L 537.3 -210.182134 
L 537.3 -207.977831 
L 537.3 -205.773529 
L 537.3 -203.569226 
L 537.3 -201.364924 
L 537.3 -199.160621 
L 537.3 -196.956318 
L 537.3 -194.752016 
L 537.3 -192.547713 
L 537.3 -190.34341 
L 537.3 -188.139108 
L 537.3 -185.934805 
L 537.3 -183.730503 
L 537.3 -181.5262 
L 537.3 -179.321897 
L 537.3 -177.117595 
L 537.3 -174.913292 
L 537.3 -172.708989 
L 537.3 -170.504687 
L 537.3 -168.300384 
L 537.3 -166.096082 
L 537.3 -163.891779 
L 537.3 -161.687476 
L 537.3 -159.483174 
L 537.3 -157.278871 
L 537.3 -155.074568 
L 537.3 -152.870266 
L 537.3 -150.665963 
L 537.3 -148.461661 
L 537.3 -146.257358 
L 537.3 -144.053055 
L 537.3 -141.848753 
L 537.3 -139.64445 
L 537.3 -137.440147 
L 537.3 -135.235845 
L 537.3 -133.031542 
L 537.3 -130.827239 
L 537.3 -128.622937 
L 537.3 -126.418634 
L 537.3 -124.214332 
L 537.3 -122.010029 
L 537.3 -119.805726 
L 537.3 -117.601424 
L 537.3 -115.397121 
L 537.3 -113.192818 
L 537.3 -110.988516 
L 537.3 -108.784213 
L 537.3 -106.579911 
L 537.3 -104.375608 
z
" style="stroke: #595959; stroke-width: 1.2"/>
    </defs>
    <g clip-path="url(#p000b354da3)">
     <use xlink:href="#m0165369c4c" x="0" y="792" style="fill: #72b6a1; stroke: #595959; stroke-width: 1.2"/>
    </g>
   </g>
   <g id="PolyCollection_6">
    <defs>
     <path id="mce919f293c" d="M 605.165557 -130.349109 
L 537.3 -130.349109 
L 537.3 -131.825183 
L 537.3 -133.301257 
L 537.3 -134.77733 
L 537.3 -136.253404 
L 537.3 -137.729477 
L 537.3 -139.205551 
L 537.3 -140.681625 
L 537.3 -142.157698 
L 537.3 -143.633772 
L 537.3 -145.109846 
L 537.3 -146.585919 
L 537.3 -148.061993 
L 537.3 -149.538066 
L 537.3 -151.01414 
L 537.3 -152.490214 
L 537.3 -153.966287 
L 537.3 -155.442361 
L 537.3 -156.918434 
L 537.3 -158.394508 
L 537.3 -159.870582 
L 537.3 -161.346655 
L 537.3 -162.822729 
L 537.3 -164.298803 
L 537.3 -165.774876 
L 537.3 -167.25095 
L 537.3 -168.727023 
L 537.3 -170.203097 
L 537.3 -171.679171 
L 537.3 -173.155244 
L 537.3 -174.631318 
L 537.3 -176.107391 
L 537.3 -177.583465 
L 537.3 -179.059539 
L 537.3 -180.535612 
L 537.3 -182.011686 
L 537.3 -183.48776 
L 537.3 -184.963833 
L 537.3 -186.439907 
L 537.3 -187.91598 
L 537.3 -189.392054 
L 537.3 -190.868128 
L 537.3 -192.344201 
L 537.3 -193.820275 
L 537.3 -195.296349 
L 537.3 -196.772422 
L 537.3 -198.248496 
L 537.3 -199.724569 
L 537.3 -201.200643 
L 537.3 -202.676717 
L 537.3 -204.15279 
L 537.3 -205.628864 
L 537.3 -207.104937 
L 537.3 -208.581011 
L 537.3 -210.057085 
L 537.3 -211.533158 
L 537.3 -213.009232 
L 537.3 -214.485306 
L 537.3 -215.961379 
L 537.3 -217.437453 
L 537.3 -218.913526 
L 537.3 -220.3896 
L 537.3 -221.865674 
L 537.3 -223.341747 
L 537.3 -224.817821 
L 537.3 -226.293894 
L 537.3 -227.769968 
L 537.3 -229.246042 
L 537.3 -230.722115 
L 537.3 -232.198189 
L 537.3 -233.674263 
L 537.3 -235.150336 
L 537.3 -236.62641 
L 537.3 -238.102483 
L 537.3 -239.578557 
L 537.3 -241.054631 
L 537.3 -242.530704 
L 537.3 -244.006778 
L 537.3 -245.482852 
L 537.3 -246.958925 
L 537.3 -248.434999 
L 537.3 -249.911072 
L 537.3 -251.387146 
L 537.3 -252.86322 
L 537.3 -254.339293 
L 537.3 -255.815367 
L 537.3 -257.29144 
L 537.3 -258.767514 
L 537.3 -260.243588 
L 537.3 -261.719661 
L 537.3 -263.195735 
L 537.3 -264.671809 
L 537.3 -266.147882 
L 537.3 -267.623956 
L 537.3 -269.100029 
L 537.3 -270.576103 
L 537.3 -272.052177 
L 537.3 -273.52825 
L 537.3 -275.004324 
L 537.3 -276.480397 
L 542.072565 -276.480397 
L 542.072565 -276.480397 
L 542.358034 -275.004324 
L 542.632568 -273.52825 
L 542.892338 -272.052177 
L 543.13346 -270.576103 
L 543.352084 -269.100029 
L 543.544482 -267.623956 
L 543.707154 -266.147882 
L 543.836928 -264.671809 
L 543.931064 -263.195735 
L 543.987348 -261.719661 
L 544.00418 -260.243588 
L 543.980645 -258.767514 
L 543.91656 -257.29144 
L 543.81251 -255.815367 
L 543.669844 -254.339293 
L 543.490658 -252.86322 
L 543.277741 -251.387146 
L 543.034509 -249.911072 
L 542.7649 -248.434999 
L 542.473269 -246.958925 
L 542.16426 -245.482852 
L 541.842671 -244.006778 
L 541.513325 -242.530704 
L 541.180937 -241.054631 
L 540.849995 -239.578557 
L 540.524658 -238.102483 
L 540.20867 -236.62641 
L 539.905291 -235.150336 
L 539.617259 -233.674263 
L 539.346769 -232.198189 
L 539.095473 -230.722115 
L 538.864504 -229.246042 
L 538.654513 -227.769968 
L 538.465725 -226.293894 
L 538.298002 -224.817821 
L 538.150911 -223.341747 
L 538.023804 -221.865674 
L 537.915892 -220.3896 
L 537.826317 -218.913526 
L 537.754221 -217.437453 
L 537.69881 -215.961379 
L 537.659411 -214.485306 
L 537.635514 -213.009232 
L 537.626816 -211.533158 
L 537.633253 -210.057085 
L 537.655018 -208.581011 
L 537.692588 -207.104937 
L 537.746729 -205.628864 
L 537.818514 -204.15279 
L 537.90933 -202.676717 
L 538.020889 -201.200643 
L 538.155244 -199.724569 
L 538.314812 -198.248496 
L 538.502396 -196.772422 
L 538.721229 -195.296349 
L 538.975018 -193.820275 
L 539.268001 -192.344201 
L 539.605013 -190.868128 
L 539.99156 -189.392054 
L 540.433892 -187.91598 
L 540.93907 -186.439907 
L 541.515031 -184.963833 
L 542.170621 -183.48776 
L 542.915601 -182.011686 
L 543.760613 -180.535612 
L 544.717082 -179.059539 
L 545.797059 -177.583465 
L 547.012984 -176.107391 
L 548.377361 -174.631318 
L 549.902355 -173.155244 
L 551.599287 -171.679171 
L 553.478063 -170.203097 
L 555.546529 -168.727023 
L 557.809772 -167.25095 
L 560.269415 -165.774876 
L 562.922904 -164.298803 
L 565.762857 -162.822729 
L 568.776491 -161.346655 
L 571.94518 -159.870582 
L 575.244184 -158.394508 
L 578.642577 -156.918434 
L 582.103412 -155.442361 
L 585.584139 -153.966287 
L 589.037285 -152.490214 
L 592.411392 -151.01414 
L 595.652198 -149.538066 
L 598.704017 -148.061993 
L 601.511289 -146.585919 
L 604.020227 -145.109846 
L 606.180506 -143.633772 
L 607.946911 -142.157698 
L 609.280878 -140.681625 
L 610.151852 -139.205551 
L 610.5384 -137.729477 
L 610.429019 -136.253404 
L 609.822603 -134.77733 
L 608.728545 -133.301257 
L 607.166461 -131.825183 
L 605.165557 -130.349109 
z
" style="stroke: #595959; stroke-width: 1.2"/>
    </defs>
    <g clip-path="url(#p000b354da3)">
     <use xlink:href="#mce919f293c" x="0" y="792" style="fill: #e99675; stroke: #595959; stroke-width: 1.2"/>
    </g>
   </g>
   <g id="PolyCollection_7">
    <defs>
     <path id="m1e6740c1f4" d="M 720.396 -219.557163 
L 648.228013 -219.557163 
L 647.491019 -223.849301 
L 647.1576 -228.141438 
L 647.225807 -232.433576 
L 647.685791 -236.725714 
L 648.520122 -241.017851 
L 649.704348 -245.309989 
L 651.20778 -249.602127 
L 652.994451 -253.894264 
L 655.024234 -258.186402 
L 657.254044 -262.47854 
L 659.639097 -266.770677 
L 662.134166 -271.062815 
L 664.694778 -275.354953 
L 667.278323 -279.64709 
L 669.845026 -283.939228 
L 672.358755 -288.231366 
L 674.78764 -292.523503 
L 677.104504 -296.815641 
L 679.287087 -301.107779 
L 681.318088 -305.399916 
L 683.185027 -309.692054 
L 684.879964 -313.984192 
L 686.399093 -318.276329 
L 687.742246 -322.568467 
L 688.912345 -326.860604 
L 689.91483 -331.152742 
L 690.757096 -335.44488 
L 691.447969 -339.737017 
L 691.99723 -344.029155 
L 692.415233 -348.321293 
L 692.712588 -352.61343 
L 692.899948 -356.905568 
L 692.987874 -361.197706 
L 692.98679 -365.489843 
L 692.906991 -369.781981 
L 692.758721 -374.074119 
L 692.552265 -378.366256 
L 692.298078 -382.658394 
L 692.006886 -386.950532 
L 691.689789 -391.242669 
L 691.358313 -395.534807 
L 691.024416 -399.826945 
L 690.70045 -404.119082 
L 690.39905 -408.41122 
L 690.132972 -412.703358 
L 689.914885 -416.995495 
L 689.757106 -421.287633 
L 689.671316 -425.579771 
L 689.668253 -429.871908 
L 689.757403 -434.164046 
L 689.946707 -438.456183 
L 690.242301 -442.748321 
L 690.648294 -447.040459 
L 691.166609 -451.332596 
L 691.796883 -455.624734 
L 692.536442 -459.916872 
L 693.38035 -464.209009 
L 694.321524 -468.501147 
L 695.35092 -472.793285 
L 696.457778 -477.085422 
L 697.629918 -481.37756 
L 698.854062 -485.669698 
L 700.116194 -489.961835 
L 701.401916 -494.253973 
L 702.696807 -498.546111 
L 703.986765 -502.838248 
L 705.258317 -507.130386 
L 706.498894 -511.422524 
L 707.697065 -515.714661 
L 708.842719 -520.006799 
L 709.927198 -524.298937 
L 710.943379 -528.591074 
L 711.885711 -532.883212 
L 712.750206 -537.17535 
L 713.534391 -541.467487 
L 714.23723 -545.759625 
L 714.85902 -550.051762 
L 715.401264 -554.3439 
L 715.866537 -558.636038 
L 716.258343 -562.928175 
L 716.580968 -567.220313 
L 716.839336 -571.512451 
L 717.038875 -575.804588 
L 717.185385 -580.096726 
L 717.284915 -584.388864 
L 717.343655 -588.681001 
L 717.367829 -592.973139 
L 717.363606 -597.265277 
L 717.337013 -601.557414 
L 717.293861 -605.849552 
L 717.239669 -610.14169 
L 717.179612 -614.433827 
L 717.118454 -618.725965 
L 717.06051 -623.018103 
L 717.009599 -627.31024 
L 716.969013 -631.602378 
L 716.941494 -635.894516 
L 716.929216 -640.186653 
L 716.933788 -644.478791 
L 720.396 -644.478791 
L 720.396 -644.478791 
L 720.396 -640.186653 
L 720.396 -635.894516 
L 720.396 -631.602378 
L 720.396 -627.31024 
L 720.396 -623.018103 
L 720.396 -618.725965 
L 720.396 -614.433827 
L 720.396 -610.14169 
L 720.396 -605.849552 
L 720.396 -601.557414 
L 720.396 -597.265277 
L 720.396 -592.973139 
L 720.396 -588.681001 
L 720.396 -584.388864 
L 720.396 -580.096726 
L 720.396 -575.804588 
L 720.396 -571.512451 
L 720.396 -567.220313 
L 720.396 -562.928175 
L 720.396 -558.636038 
L 720.396 -554.3439 
L 720.396 -550.051762 
L 720.396 -545.759625 
L 720.396 -541.467487 
L 720.396 -537.17535 
L 720.396 -532.883212 
L 720.396 -528.591074 
L 720.396 -524.298937 
L 720.396 -520.006799 
L 720.396 -515.714661 
L 720.396 -511.422524 
L 720.396 -507.130386 
L 720.396 -502.838248 
L 720.396 -498.546111 
L 720.396 -494.253973 
L 720.396 -489.961835 
L 720.396 -485.669698 
L 720.396 -481.37756 
L 720.396 -477.085422 
L 720.396 -472.793285 
L 720.396 -468.501147 
L 720.396 -464.209009 
L 720.396 -459.916872 
L 720.396 -455.624734 
L 720.396 -451.332596 
L 720.396 -447.040459 
L 720.396 -442.748321 
L 720.396 -438.456183 
L 720.396 -434.164046 
L 720.396 -429.871908 
L 720.396 -425.579771 
L 720.396 -421.287633 
L 720.396 -416.995495 
L 720.396 -412.703358 
L 720.396 -408.41122 
L 720.396 -404.119082 
L 720.396 -399.826945 
L 720.396 -395.534807 
L 720.396 -391.242669 
L 720.396 -386.950532 
L 720.396 -382.658394 
L 720.396 -378.366256 
L 720.396 -374.074119 
L 720.396 -369.781981 
L 720.396 -365.489843 
L 720.396 -361.197706 
L 720.396 -356.905568 
L 720.396 -352.61343 
L 720.396 -348.321293 
L 720.396 -344.029155 
L 720.396 -339.737017 
L 720.396 -335.44488 
L 720.396 -331.152742 
L 720.396 -326.860604 
L 720.396 -322.568467 
L 720.396 -318.276329 
L 720.396 -313.984192 
L 720.396 -309.692054 
L 720.396 -305.399916 
L 720.396 -301.107779 
L 720.396 -296.815641 
L 720.396 -292.523503 
L 720.396 -288.231366 
L 720.396 -283.939228 
L 720.396 -279.64709 
L 720.396 -275.354953 
L 720.396 -271.062815 
L 720.396 -266.770677 
L 720.396 -262.47854 
L 720.396 -258.186402 
L 720.396 -253.894264 
L 720.396 -249.602127 
L 720.396 -245.309989 
L 720.396 -241.017851 
L 720.396 -236.725714 
L 720.396 -232.433576 
L 720.396 -228.141438 
L 720.396 -223.849301 
L 720.396 -219.557163 
z
" style="stroke: #595959; stroke-width: 1.2"/>
    </defs>
    <g clip-path="url(#p000b354da3)">
     <use xlink:href="#m1e6740c1f4" x="0" y="792" style="fill: #72b6a1; stroke: #595959; stroke-width: 1.2"/>
    </g>
   </g>
   <g id="PolyCollection_8">
    <defs>
     <path id="mf8f3176303" d="M 772.484756 -411.68825 
L 720.396 -411.68825 
L 720.396 -414.669821 
L 720.396 -417.651392 
L 720.396 -420.632962 
L 720.396 -423.614533 
L 720.396 -426.596104 
L 720.396 -429.577674 
L 720.396 -432.559245 
L 720.396 -435.540816 
L 720.396 -438.522386 
L 720.396 -441.503957 
L 720.396 -444.485527 
L 720.396 -447.467098 
L 720.396 -450.448669 
L 720.396 -453.430239 
L 720.396 -456.41181 
L 720.396 -459.393381 
L 720.396 -462.374951 
L 720.396 -465.356522 
L 720.396 -468.338092 
L 720.396 -471.319663 
L 720.396 -474.301234 
L 720.396 -477.282804 
L 720.396 -480.264375 
L 720.396 -483.245946 
L 720.396 -486.227516 
L 720.396 -489.209087 
L 720.396 -492.190657 
L 720.396 -495.172228 
L 720.396 -498.153799 
L 720.396 -501.135369 
L 720.396 -504.11694 
L 720.396 -507.098511 
L 720.396 -510.080081 
L 720.396 -513.061652 
L 720.396 -516.043223 
L 720.396 -519.024793 
L 720.396 -522.006364 
L 720.396 -524.987934 
L 720.396 -527.969505 
L 720.396 -530.951076 
L 720.396 -533.932646 
L 720.396 -536.914217 
L 720.396 -539.895788 
L 720.396 -542.877358 
L 720.396 -545.858929 
L 720.396 -548.840499 
L 720.396 -551.82207 
L 720.396 -554.803641 
L 720.396 -557.785211 
L 720.396 -560.766782 
L 720.396 -563.748353 
L 720.396 -566.729923 
L 720.396 -569.711494 
L 720.396 -572.693064 
L 720.396 -575.674635 
L 720.396 -578.656206 
L 720.396 -581.637776 
L 720.396 -584.619347 
L 720.396 -587.600918 
L 720.396 -590.582488 
L 720.396 -593.564059 
L 720.396 -596.54563 
L 720.396 -599.5272 
L 720.396 -602.508771 
L 720.396 -605.490341 
L 720.396 -608.471912 
L 720.396 -611.453483 
L 720.396 -614.435053 
L 720.396 -617.416624 
L 720.396 -620.398195 
L 720.396 -623.379765 
L 720.396 -626.361336 
L 720.396 -629.342906 
L 720.396 -632.324477 
L 720.396 -635.306048 
L 720.396 -638.287618 
L 720.396 -641.269189 
L 720.396 -644.25076 
L 720.396 -647.23233 
L 720.396 -650.213901 
L 720.396 -653.195471 
L 720.396 -656.177042 
L 720.396 -659.158613 
L 720.396 -662.140183 
L 720.396 -665.121754 
L 720.396 -668.103325 
L 720.396 -671.084895 
L 720.396 -674.066466 
L 720.396 -677.048037 
L 720.396 -680.029607 
L 720.396 -683.011178 
L 720.396 -685.992748 
L 720.396 -688.974319 
L 720.396 -691.95589 
L 720.396 -694.93746 
L 720.396 -697.919031 
L 720.396 -700.900602 
L 720.396 -703.882172 
L 720.396 -706.863743 
L 722.418614 -706.863743 
L 722.418614 -706.863743 
L 722.447942 -703.882172 
L 722.460451 -700.900602 
L 722.458892 -697.919031 
L 722.446786 -694.93746 
L 722.428123 -691.95589 
L 722.407008 -688.974319 
L 722.387294 -685.992748 
L 722.372231 -683.011178 
L 722.364162 -680.029607 
L 722.364308 -677.048037 
L 722.372655 -674.066466 
L 722.387957 -671.084895 
L 722.407853 -668.103325 
L 722.429092 -665.121754 
L 722.447838 -662.140183 
L 722.460027 -659.158613 
L 722.461743 -656.177042 
L 722.449576 -653.195471 
L 722.420933 -650.213901 
L 722.374268 -647.23233 
L 722.309222 -644.25076 
L 722.226668 -641.269189 
L 722.12865 -638.287618 
L 722.018247 -635.306048 
L 721.89936 -632.324477 
L 721.776469 -629.342906 
L 721.654357 -626.361336 
L 721.537845 -623.379765 
L 721.431546 -620.398195 
L 721.339647 -617.416624 
L 721.265739 -614.435053 
L 721.212674 -611.453483 
L 721.182471 -608.471912 
L 721.17625 -605.490341 
L 721.194198 -602.508771 
L 721.23555 -599.5272 
L 721.298609 -596.54563 
L 721.380779 -593.564059 
L 721.478633 -590.582488 
L 721.588016 -587.600918 
L 721.704186 -584.619347 
L 721.821997 -581.637776 
L 721.936118 -578.656206 
L 722.041285 -575.674635 
L 722.132573 -572.693064 
L 722.205672 -569.711494 
L 722.257147 -566.729923 
L 722.284668 -563.748353 
L 722.287184 -560.766782 
L 722.265045 -557.785211 
L 722.220052 -554.803641 
L 722.155448 -551.82207 
L 722.07586 -548.840499 
L 721.987197 -545.858929 
L 721.896542 -542.877358 
L 721.812046 -539.895788 
L 721.742851 -536.914217 
L 721.699052 -533.932646 
L 721.691709 -530.951076 
L 721.732911 -527.969505 
L 721.835869 -524.987934 
L 722.015044 -522.006364 
L 722.286266 -519.024793 
L 722.666817 -516.043223 
L 723.175469 -513.061652 
L 723.832414 -510.080081 
L 724.659087 -507.098511 
L 725.677843 -504.11694 
L 726.911469 -501.135369 
L 728.38252 -498.153799 
L 730.11247 -495.172228 
L 732.120669 -492.190657 
L 734.423124 -489.209087 
L 737.031118 -486.227516 
L 739.949702 -483.245946 
L 743.176113 -480.264375 
L 746.698195 -477.282804 
L 750.492936 -474.301234 
L 754.525215 -471.319663 
L 758.746936 -468.338092 
L 763.096669 -465.356522 
L 767.499957 -462.374951 
L 771.87041 -459.393381 
L 776.111659 -456.41181 
L 780.120204 -453.430239 
L 783.789088 -450.448669 
L 787.012278 -447.467098 
L 789.689523 -444.485527 
L 791.731402 -441.503957 
L 793.064225 -438.522386 
L 793.6344 -435.540816 
L 793.411931 -432.559245 
L 792.392717 -429.577674 
L 790.599437 -426.596104 
L 788.080888 -423.614533 
L 784.909801 -420.632962 
L 781.179259 -417.651392 
L 776.99797 -414.669821 
L 772.484756 -411.68825 
z
" style="stroke: #595959; stroke-width: 1.2"/>
    </defs>
    <g clip-path="url(#p000b354da3)">
     <use xlink:href="#mf8f3176303" x="0" y="792" style="fill: #e99675; stroke: #595959; stroke-width: 1.2"/>
    </g>
   </g>
   <g id="PolyCollection_9">
    <defs>
     <path id="m72ded21e90" d="M 903.492 -214.338189 
L 831.476534 -214.338189 
L 830.690407 -218.486887 
L 830.282018 -222.635586 
L 830.2536 -226.784284 
L 830.600787 -230.932983 
L 831.312755 -235.081682 
L 832.372542 -239.23038 
L 833.757544 -243.379079 
L 835.440148 -247.527777 
L 837.388509 -251.676476 
L 839.567403 -255.825175 
L 841.939151 -259.973873 
L 844.464569 -264.122572 
L 847.103901 -268.27127 
L 849.817721 -272.419969 
L 852.567753 -276.568668 
L 855.317607 -280.717366 
L 858.033389 -284.866065 
L 860.68419 -289.014763 
L 863.242437 -293.163462 
L 865.684112 -297.312161 
L 867.988837 -301.460859 
L 870.139851 -305.609558 
L 872.12388 -309.758257 
L 873.930923 -313.906955 
L 875.553983 -318.055654 
L 876.988762 -322.204352 
L 878.23333 -326.353051 
L 879.287808 -330.50175 
L 880.154065 -334.650448 
L 880.835461 -338.799147 
L 881.336627 -342.947845 
L 881.663301 -347.096544 
L 881.822219 -351.245243 
L 881.821064 -355.393941 
L 881.668445 -359.54264 
L 881.373934 -363.691338 
L 880.948107 -367.840037 
L 880.402613 -371.988736 
L 879.750232 -376.137434 
L 879.004912 -380.286133 
L 878.181789 -384.434831 
L 877.297154 -388.58353 
L 876.368374 -392.732229 
L 875.413762 -396.880927 
L 874.452383 -401.029626 
L 873.503808 -405.178324 
L 872.587817 -409.327023 
L 871.724053 -413.475722 
L 870.931653 -417.62442 
L 870.22885 -421.773119 
L 869.632575 -425.921817 
L 869.15807 -430.070516 
L 868.818526 -434.219215 
L 868.624762 -438.367913 
L 868.58496 -442.516612 
L 868.704461 -446.665311 
L 868.985643 -450.814009 
L 869.427869 -454.962708 
L 870.027528 -459.111406 
L 870.778145 -463.260105 
L 871.670576 -467.408804 
L 872.693267 -471.557502 
L 873.832577 -475.706201 
L 875.073139 -479.854899 
L 876.398268 -484.003598 
L 877.790378 -488.152297 
L 879.231412 -492.300995 
L 880.703256 -496.449694 
L 882.188142 -500.598392 
L 883.669015 -504.747091 
L 885.129853 -508.89579 
L 886.555953 -513.044488 
L 887.934152 -517.193187 
L 889.252994 -521.341885 
L 890.50285 -525.490584 
L 891.675973 -529.639283 
L 892.766509 -533.787981 
L 893.77046 -537.93668 
L 894.685603 -542.085378 
L 895.511378 -546.234077 
L 896.248754 -550.382776 
L 896.900058 -554.531474 
L 897.468809 -558.680173 
L 897.95953 -562.828872 
L 898.377562 -566.97757 
L 898.728881 -571.126269 
L 899.019921 -575.274967 
L 899.257402 -579.423666 
L 899.448175 -583.572365 
L 899.599076 -587.721063 
L 899.716801 -591.869762 
L 899.80779 -596.01846 
L 899.87813 -600.167159 
L 899.933476 -604.315858 
L 899.978982 -608.464556 
L 900.019259 -612.613255 
L 900.058334 -616.761953 
L 900.099633 -620.910652 
L 900.145976 -625.059351 
L 903.492 -625.059351 
L 903.492 -625.059351 
L 903.492 -620.910652 
L 903.492 -616.761953 
L 903.492 -612.613255 
L 903.492 -608.464556 
L 903.492 -604.315858 
L 903.492 -600.167159 
L 903.492 -596.01846 
L 903.492 -591.869762 
L 903.492 -587.721063 
L 903.492 -583.572365 
L 903.492 -579.423666 
L 903.492 -575.274967 
L 903.492 -571.126269 
L 903.492 -566.97757 
L 903.492 -562.828872 
L 903.492 -558.680173 
L 903.492 -554.531474 
L 903.492 -550.382776 
L 903.492 -546.234077 
L 903.492 -542.085378 
L 903.492 -537.93668 
L 903.492 -533.787981 
L 903.492 -529.639283 
L 903.492 -525.490584 
L 903.492 -521.341885 
L 903.492 -517.193187 
L 903.492 -513.044488 
L 903.492 -508.89579 
L 903.492 -504.747091 
L 903.492 -500.598392 
L 903.492 -496.449694 
L 903.492 -492.300995 
L 903.492 -488.152297 
L 903.492 -484.003598 
L 903.492 -479.854899 
L 903.492 -475.706201 
L 903.492 -471.557502 
L 903.492 -467.408804 
L 903.492 -463.260105 
L 903.492 -459.111406 
L 903.492 -454.962708 
L 903.492 -450.814009 
L 903.492 -446.665311 
L 903.492 -442.516612 
L 903.492 -438.367913 
L 903.492 -434.219215 
L 903.492 -430.070516 
L 903.492 -425.921817 
L 903.492 -421.773119 
L 903.492 -417.62442 
L 903.492 -413.475722 
L 903.492 -409.327023 
L 903.492 -405.178324 
L 903.492 -401.029626 
L 903.492 -396.880927 
L 903.492 -392.732229 
L 903.492 -388.58353 
L 903.492 -384.434831 
L 903.492 -380.286133 
L 903.492 -376.137434 
L 903.492 -371.988736 
L 903.492 -367.840037 
L 903.492 -363.691338 
L 903.492 -359.54264 
L 903.492 -355.393941 
L 903.492 -351.245243 
L 903.492 -347.096544 
L 903.492 -342.947845 
L 903.492 -338.799147 
L 903.492 -334.650448 
L 903.492 -330.50175 
L 903.492 -326.353051 
L 903.492 -322.204352 
L 903.492 -318.055654 
L 903.492 -313.906955 
L 903.492 -309.758257 
L 903.492 -305.609558 
L 903.492 -301.460859 
L 903.492 -297.312161 
L 903.492 -293.163462 
L 903.492 -289.014763 
L 903.492 -284.866065 
L 903.492 -280.717366 
L 903.492 -276.568668 
L 903.492 -272.419969 
L 903.492 -268.27127 
L 903.492 -264.122572 
L 903.492 -259.973873 
L 903.492 -255.825175 
L 903.492 -251.676476 
L 903.492 -247.527777 
L 903.492 -243.379079 
L 903.492 -239.23038 
L 903.492 -235.081682 
L 903.492 -230.932983 
L 903.492 -226.784284 
L 903.492 -222.635586 
L 903.492 -218.486887 
L 903.492 -214.338189 
z
" style="stroke: #595959; stroke-width: 1.2"/>
    </defs>
    <g clip-path="url(#p000b354da3)">
     <use xlink:href="#m72ded21e90" x="0" y="792" style="fill: #72b6a1; stroke: #595959; stroke-width: 1.2"/>
    </g>
   </g>
   <g id="PolyCollection_10">
    <defs>
     <path id="m63aac717eb" d="M 959.257305 -409.139449 
L 903.492 -409.139449 
L 903.492 -412.313498 
L 903.492 -415.487546 
L 903.492 -418.661595 
L 903.492 -421.835644 
L 903.492 -425.009692 
L 903.492 -428.183741 
L 903.492 -431.35779 
L 903.492 -434.531838 
L 903.492 -437.705887 
L 903.492 -440.879936 
L 903.492 -444.053984 
L 903.492 -447.228033 
L 903.492 -450.402082 
L 903.492 -453.57613 
L 903.492 -456.750179 
L 903.492 -459.924228 
L 903.492 -463.098276 
L 903.492 -466.272325 
L 903.492 -469.446374 
L 903.492 -472.620422 
L 903.492 -475.794471 
L 903.492 -478.96852 
L 903.492 -482.142568 
L 903.492 -485.316617 
L 903.492 -488.490666 
L 903.492 -491.664714 
L 903.492 -494.838763 
L 903.492 -498.012812 
L 903.492 -501.18686 
L 903.492 -504.360909 
L 903.492 -507.534958 
L 903.492 -510.709006 
L 903.492 -513.883055 
L 903.492 -517.057104 
L 903.492 -520.231152 
L 903.492 -523.405201 
L 903.492 -526.57925 
L 903.492 -529.753298 
L 903.492 -532.927347 
L 903.492 -536.101396 
L 903.492 -539.275444 
L 903.492 -542.449493 
L 903.492 -545.623542 
L 903.492 -548.79759 
L 903.492 -551.971639 
L 903.492 -555.145688 
L 903.492 -558.319736 
L 903.492 -561.493785 
L 903.492 -564.667834 
L 903.492 -567.841882 
L 903.492 -571.015931 
L 903.492 -574.18998 
L 903.492 -577.364028 
L 903.492 -580.538077 
L 903.492 -583.712126 
L 903.492 -586.886174 
L 903.492 -590.060223 
L 903.492 -593.234272 
L 903.492 -596.40832 
L 903.492 -599.582369 
L 903.492 -602.756418 
L 903.492 -605.930466 
L 903.492 -609.104515 
L 903.492 -612.278564 
L 903.492 -615.452612 
L 903.492 -618.626661 
L 903.492 -621.80071 
L 903.492 -624.974758 
L 903.492 -628.148807 
L 903.492 -631.322856 
L 903.492 -634.496904 
L 903.492 -637.670953 
L 903.492 -640.845002 
L 903.492 -644.01905 
L 903.492 -647.193099 
L 903.492 -650.367148 
L 903.492 -653.541196 
L 903.492 -656.715245 
L 903.492 -659.889294 
L 903.492 -663.063342 
L 903.492 -666.237391 
L 903.492 -669.41144 
L 903.492 -672.585488 
L 903.492 -675.759537 
L 903.492 -678.933586 
L 903.492 -682.107634 
L 903.492 -685.281683 
L 903.492 -688.455732 
L 903.492 -691.62978 
L 903.492 -694.803829 
L 903.492 -697.977878 
L 903.492 -701.151926 
L 903.492 -704.325975 
L 903.492 -707.500024 
L 903.492 -710.674072 
L 903.492 -713.848121 
L 903.492 -717.02217 
L 903.492 -720.196218 
L 903.492 -723.370267 
L 911.349648 -723.370267 
L 911.349648 -723.370267 
L 911.613157 -720.196218 
L 911.842186 -717.02217 
L 912.03339 -713.848121 
L 912.183942 -710.674072 
L 912.291612 -707.500024 
L 912.35483 -704.325975 
L 912.37274 -701.151926 
L 912.345235 -697.977878 
L 912.272976 -694.803829 
L 912.15739 -691.62978 
L 912.000657 -688.455732 
L 911.805675 -685.281683 
L 911.576008 -682.107634 
L 911.315823 -678.933586 
L 911.029813 -675.759537 
L 910.723111 -672.585488 
L 910.401193 -669.41144 
L 910.069783 -666.237391 
L 909.734749 -663.063342 
L 909.402008 -659.889294 
L 909.077423 -656.715245 
L 908.766716 -653.541196 
L 908.475383 -650.367148 
L 908.208617 -647.193099 
L 907.97124 -644.01905 
L 907.767647 -640.845002 
L 907.601758 -637.670953 
L 907.476982 -634.496904 
L 907.396188 -631.322856 
L 907.361687 -628.148807 
L 907.375225 -624.974758 
L 907.437985 -621.80071 
L 907.550597 -618.626661 
L 907.713154 -615.452612 
L 907.925248 -612.278564 
L 908.186002 -609.104515 
L 908.494125 -605.930466 
L 908.847968 -602.756418 
L 909.245594 -599.582369 
L 909.684858 -596.40832 
L 910.163497 -593.234272 
L 910.679227 -590.060223 
L 911.229849 -586.886174 
L 911.813358 -583.712126 
L 912.428055 -580.538077 
L 913.072661 -577.364028 
L 913.746419 -574.18998 
L 914.449196 -571.015931 
L 915.181564 -567.841882 
L 915.944872 -564.667834 
L 916.741287 -561.493785 
L 917.573817 -558.319736 
L 918.446299 -555.145688 
L 919.363362 -551.971639 
L 920.33035 -548.79759 
L 921.353213 -545.623542 
L 922.438365 -542.449493 
L 923.592507 -539.275444 
L 924.822424 -536.101396 
L 926.134743 -532.927347 
L 927.535688 -529.753298 
L 929.030801 -526.57925 
L 930.624665 -523.405201 
L 932.320617 -520.231152 
L 934.120471 -517.057104 
L 936.024253 -513.883055 
L 938.029958 -510.709006 
L 940.133341 -507.534958 
L 942.327741 -504.360909 
L 944.603955 -501.18686 
L 946.950168 -498.012812 
L 949.351941 -494.838763 
L 951.792262 -491.664714 
L 954.251666 -488.490666 
L 956.708431 -485.316617 
L 959.138836 -482.142568 
L 961.51749 -478.96852 
L 963.817727 -475.794471 
L 966.012054 -472.620422 
L 968.072649 -469.446374 
L 969.971896 -466.272325 
L 971.682945 -463.098276 
L 973.180279 -459.924228 
L 974.440284 -456.750179 
L 975.441785 -453.57613 
L 976.166557 -450.402082 
L 976.599775 -447.228033 
L 976.7304 -444.053984 
L 976.551485 -440.879936 
L 976.060386 -437.705887 
L 975.258878 -434.531838 
L 974.153164 -431.35779 
L 972.753785 -428.183741 
L 971.075413 -425.009692 
L 969.136562 -421.835644 
L 966.9592 -418.661595 
L 964.568279 -415.487546 
L 961.991215 -412.313498 
L 959.257305 -409.139449 
z
" style="stroke: #595959; stroke-width: 1.2"/>
    </defs>
    <g clip-path="url(#p000b354da3)">
     <use xlink:href="#m63aac717eb" x="0" y="792" style="fill: #e99675; stroke: #595959; stroke-width: 1.2"/>
    </g>
   </g>
   <g id="line2d_7">
    <path d="M 98.647025 684.711476 
L 171.108 684.711476 
" clip-path="url(#p000b354da3)" style="fill: none; stroke-dasharray: 2.16,2.16; stroke-dashoffset: 0; stroke: #595959; stroke-width: 1.2"/>
   </g>
   <g id="line2d_8">
    <path d="M 98.601984 683.133646 
L 171.108 683.133646 
" clip-path="url(#p000b354da3)" style="fill: none; stroke-dasharray: 4.32,4.32; stroke-dashoffset: 0; stroke: #595959; stroke-width: 1.2"/>
   </g>
   <g id="line2d_9">
    <path d="M 128.043074 619.231551 
L 171.108 619.231551 
" clip-path="url(#p000b354da3)" style="fill: none; stroke-dasharray: 2.16,2.16; stroke-dashoffset: 0; stroke: #595959; stroke-width: 1.2"/>
   </g>
   <g id="line2d_10">
    <path d="M 171.108 656.340887 
L 241.008163 656.340887 
" clip-path="url(#p000b354da3)" style="fill: none; stroke-dasharray: 2.16,2.16; stroke-dashoffset: 0; stroke: #595959; stroke-width: 1.2"/>
   </g>
   <g id="line2d_11">
    <path d="M 171.108 653.276257 
L 243.158559 653.276257 
" clip-path="url(#p000b354da3)" style="fill: none; stroke-dasharray: 4.32,4.32; stroke-dashoffset: 0; stroke: #595959; stroke-width: 1.2"/>
   </g>
   <g id="line2d_12">
    <path d="M 171.108 648.02694 
L 227.389494 648.02694 
" clip-path="url(#p000b354da3)" style="fill: none; stroke-dasharray: 2.16,2.16; stroke-dashoffset: 0; stroke: #595959; stroke-width: 1.2"/>
   </g>
   <g id="line2d_13">
    <path d="M 282.428759 680.827588 
L 354.204 680.827588 
" clip-path="url(#p000b354da3)" style="fill: none; stroke-dasharray: 2.16,2.16; stroke-dashoffset: 0; stroke: #595959; stroke-width: 1.2"/>
   </g>
   <g id="line2d_14">
    <path d="M 281.697984 678.642901 
L 354.204 678.642901 
" clip-path="url(#p000b354da3)" style="fill: none; stroke-dasharray: 4.32,4.32; stroke-dashoffset: 0; stroke: #595959; stroke-width: 1.2"/>
   </g>
   <g id="line2d_15">
    <path d="M 320.32052 615.52972 
L 354.204 615.52972 
" clip-path="url(#p000b354da3)" style="fill: none; stroke-dasharray: 2.16,2.16; stroke-dashoffset: 0; stroke: #595959; stroke-width: 1.2"/>
   </g>
   <g id="line2d_16">
    <path d="M 354.204 651.273627 
L 425.461363 651.273627 
" clip-path="url(#p000b354da3)" style="fill: none; stroke-dasharray: 2.16,2.16; stroke-dashoffset: 0; stroke: #595959; stroke-width: 1.2"/>
   </g>
   <g id="line2d_17">
    <path d="M 354.204 646.176024 
L 426.593799 646.176024 
" clip-path="url(#p000b354da3)" style="fill: none; stroke-dasharray: 4.32,4.32; stroke-dashoffset: 0; stroke: #595959; stroke-width: 1.2"/>
   </g>
   <g id="line2d_18">
    <path d="M 354.204 618.958465 
L 403.970092 618.958465 
" clip-path="url(#p000b354da3)" style="fill: none; stroke-dasharray: 2.16,2.16; stroke-dashoffset: 0; stroke: #595959; stroke-width: 1.2"/>
   </g>
   <g id="line2d_19">
    <path d="M 465.620148 684.772162 
L 537.3 684.772162 
" clip-path="url(#p000b354da3)" style="fill: none; stroke-dasharray: 2.16,2.16; stroke-dashoffset: 0; stroke: #595959; stroke-width: 1.2"/>
   </g>
   <g id="line2d_20">
    <path d="M 464.793984 680.706216 
L 537.3 680.706216 
" clip-path="url(#p000b354da3)" style="fill: none; stroke-dasharray: 4.32,4.32; stroke-dashoffset: 0; stroke: #595959; stroke-width: 1.2"/>
   </g>
   <g id="line2d_21">
    <path d="M 494.465332 624.511211 
L 537.3 624.511211 
" clip-path="url(#p000b354da3)" style="fill: none; stroke-dasharray: 2.16,2.16; stroke-dashoffset: 0; stroke: #595959; stroke-width: 1.2"/>
   </g>
   <g id="line2d_22">
    <path d="M 537.3 659.132432 
L 608.01426 659.132432 
" clip-path="url(#p000b354da3)" style="fill: none; stroke-dasharray: 2.16,2.16; stroke-dashoffset: 0; stroke: #595959; stroke-width: 1.2"/>
   </g>
   <g id="line2d_23">
    <path d="M 537.3 654.429286 
L 609.806016 654.429286 
" clip-path="url(#p000b354da3)" style="fill: none; stroke-dasharray: 4.32,4.32; stroke-dashoffset: 0; stroke: #595959; stroke-width: 1.2"/>
   </g>
   <g id="line2d_24">
    <path d="M 537.3 647.08631 
L 603.353025 647.08631 
" clip-path="url(#p000b354da3)" style="fill: none; stroke-dasharray: 2.16,2.16; stroke-dashoffset: 0; stroke: #595959; stroke-width: 1.2"/>
   </g>
   <g id="line2d_25">
    <path d="M 648.220069 567.770034 
L 720.396 567.770034 
" clip-path="url(#p000b354da3)" style="fill: none; stroke-dasharray: 2.16,2.16; stroke-dashoffset: 0; stroke: #595959; stroke-width: 1.2"/>
   </g>
   <g id="line2d_26">
    <path d="M 647.957509 559.334715 
L 720.396 559.334715 
" clip-path="url(#p000b354da3)" style="fill: none; stroke-dasharray: 4.32,4.32; stroke-dashoffset: 0; stroke: #595959; stroke-width: 1.2"/>
   </g>
   <g id="line2d_27">
    <path d="M 691.318132 394.087415 
L 720.396 394.087415 
" clip-path="url(#p000b354da3)" style="fill: none; stroke-dasharray: 2.16,2.16; stroke-dashoffset: 0; stroke: #595959; stroke-width: 1.2"/>
   </g>
   <g id="line2d_28">
    <path d="M 720.396 366.536084 
L 789.897402 366.536084 
" clip-path="url(#p000b354da3)" style="fill: none; stroke-dasharray: 2.16,2.16; stroke-dashoffset: 0; stroke: #595959; stroke-width: 1.2"/>
   </g>
   <g id="line2d_29">
    <path d="M 720.396 357.129793 
L 792.902016 357.129793 
" clip-path="url(#p000b354da3)" style="fill: none; stroke-dasharray: 4.32,4.32; stroke-dashoffset: 0; stroke: #595959; stroke-width: 1.2"/>
   </g>
   <g id="line2d_30">
    <path d="M 720.396 344.385785 
L 786.346116 344.385785 
" clip-path="url(#p000b354da3)" style="fill: none; stroke-dasharray: 2.16,2.16; stroke-dashoffset: 0; stroke: #595959; stroke-width: 1.2"/>
   </g>
   <g id="line2d_31">
    <path d="M 831.014118 571.411179 
L 903.492 571.411179 
" clip-path="url(#p000b354da3)" style="fill: none; stroke-dasharray: 2.16,2.16; stroke-dashoffset: 0; stroke: #595959; stroke-width: 1.2"/>
   </g>
   <g id="line2d_32">
    <path d="M 831.329699 563.036545 
L 903.492 563.036545 
" clip-path="url(#p000b354da3)" style="fill: none; stroke-dasharray: 4.32,4.32; stroke-dashoffset: 0; stroke: #595959; stroke-width: 1.2"/>
   </g>
   <g id="line2d_33">
    <path d="M 869.165261 357.190478 
L 903.492 357.190478 
" clip-path="url(#p000b354da3)" style="fill: none; stroke-dasharray: 2.16,2.16; stroke-dashoffset: 0; stroke: #595959; stroke-width: 1.2"/>
   </g>
   <g id="line2d_34">
    <path d="M 903.492 356.644307 
L 974.541209 356.644307 
" clip-path="url(#p000b354da3)" style="fill: none; stroke-dasharray: 2.16,2.16; stroke-dashoffset: 0; stroke: #595959; stroke-width: 1.2"/>
   </g>
   <g id="line2d_35">
    <path d="M 903.492 338.559953 
L 974.722287 338.559953 
" clip-path="url(#p000b354da3)" style="fill: none; stroke-dasharray: 4.32,4.32; stroke-dashoffset: 0; stroke: #595959; stroke-width: 1.2"/>
   </g>
   <g id="line2d_36">
    <path d="M 903.492 300.32793 
L 951.309259 300.32793 
" clip-path="url(#p000b354da3)" style="fill: none; stroke-dasharray: 2.16,2.16; stroke-dashoffset: 0; stroke: #595959; stroke-width: 1.2"/>
   </g>
   <g id="patch_5">
    <path d="M 79.56 718.574125 
L 79.56 37.68 
" style="fill: none; stroke: #cccccc; stroke-width: 1.25; stroke-linejoin: miter; stroke-linecap: square"/>
   </g>
   <g id="patch_6">
    <path d="M 995.04 718.574125 
L 995.04 37.68 
" style="fill: none; stroke: #cccccc; stroke-width: 1.25; stroke-linejoin: miter; stroke-linecap: square"/>
   </g>
   <g id="patch_7">
    <path d="M 79.56 718.574125 
L 995.04 718.574125 
" style="fill: none; stroke: #cccccc; stroke-width: 1.25; stroke-linejoin: miter; stroke-linecap: square"/>
   </g>
   <g id="patch_8">
    <path d="M 79.56 37.68 
L 995.04 37.68 
" style="fill: none; stroke: #cccccc; stroke-width: 1.25; stroke-linejoin: miter; stroke-linecap: square"/>
   </g>
   <g id="text_13">
    <!-- Impact of KEM on TLS Handshake Time (secp384r1) -->
    <g style="fill: #262626" transform="translate(232.62875 31.68) scale(0.26 -0.26)">
     <defs>
      <path id="ArialMT-49" d="M 597 0 
L 597 4581 
L 1203 4581 
L 1203 0 
L 597 0 
z
" transform="scale(0.015625)"/>
      <path id="ArialMT-70" d="M 422 -1272 
L 422 3319 
L 934 3319 
L 934 2888 
Q 1116 3141 1344 3267 
Q 1572 3394 1897 3394 
Q 2322 3394 2647 3175 
Q 2972 2956 3137 2557 
Q 3303 2159 3303 1684 
Q 3303 1175 3120 767 
Q 2938 359 2589 142 
Q 2241 -75 1856 -75 
Q 1575 -75 1351 44 
Q 1128 163 984 344 
L 984 -1272 
L 422 -1272 
z
M 931 1641 
Q 931 1000 1190 694 
Q 1450 388 1819 388 
Q 2194 388 2461 705 
Q 2728 1022 2728 1688 
Q 2728 2322 2467 2637 
Q 2206 2953 1844 2953 
Q 1484 2953 1207 2617 
Q 931 2281 931 1641 
z
" transform="scale(0.015625)"/>
      <path id="ArialMT-74" d="M 1650 503 
L 1731 6 
Q 1494 -44 1306 -44 
Q 1000 -44 831 53 
Q 663 150 594 308 
Q 525 466 525 972 
L 525 2881 
L 113 2881 
L 113 3319 
L 525 3319 
L 525 4141 
L 1084 4478 
L 1084 3319 
L 1650 3319 
L 1650 2881 
L 1084 2881 
L 1084 941 
Q 1084 700 1114 631 
Q 1144 563 1211 522 
Q 1278 481 1403 481 
Q 1497 481 1650 503 
z
" transform="scale(0.015625)"/>
      <path id="ArialMT-6f" d="M 213 1659 
Q 213 2581 725 3025 
Q 1153 3394 1769 3394 
Q 2453 3394 2887 2945 
Q 3322 2497 3322 1706 
Q 3322 1066 3130 698 
Q 2938 331 2570 128 
Q 2203 -75 1769 -75 
Q 1072 -75 642 372 
Q 213 819 213 1659 
z
M 791 1659 
Q 791 1022 1069 705 
Q 1347 388 1769 388 
Q 2188 388 2466 706 
Q 2744 1025 2744 1678 
Q 2744 2294 2464 2611 
Q 2184 2928 1769 2928 
Q 1347 2928 1069 2612 
Q 791 2297 791 1659 
z
" transform="scale(0.015625)"/>
      <path id="ArialMT-66" d="M 556 0 
L 556 2881 
L 59 2881 
L 59 3319 
L 556 3319 
L 556 3672 
Q 556 4006 616 4169 
Q 697 4388 901 4523 
Q 1106 4659 1475 4659 
Q 1713 4659 2000 4603 
L 1916 4113 
Q 1741 4144 1584 4144 
Q 1328 4144 1222 4034 
Q 1116 3925 1116 3625 
L 1116 3319 
L 1763 3319 
L 1763 2881 
L 1116 2881 
L 1116 0 
L 556 0 
z
" transform="scale(0.015625)"/>
      <path id="ArialMT-4b" d="M 469 0 
L 469 4581 
L 1075 4581 
L 1075 2309 
L 3350 4581 
L 4172 4581 
L 2250 2725 
L 4256 0 
L 3456 0 
L 1825 2319 
L 1075 1588 
L 1075 0 
L 469 0 
z
" transform="scale(0.015625)"/>
      <path id="ArialMT-45" d="M 506 0 
L 506 4581 
L 3819 4581 
L 3819 4041 
L 1113 4041 
L 1113 2638 
L 3647 2638 
L 3647 2100 
L 1113 2100 
L 1113 541 
L 3925 541 
L 3925 0 
L 506 0 
z
" transform="scale(0.015625)"/>
      <path id="ArialMT-4d" d="M 475 0 
L 475 4581 
L 1388 4581 
L 2472 1338 
Q 2622 884 2691 659 
Q 2769 909 2934 1394 
L 4031 4581 
L 4847 4581 
L 4847 0 
L 4263 0 
L 4263 3834 
L 2931 0 
L 2384 0 
L 1059 3900 
L 1059 0 
L 475 0 
z
" transform="scale(0.015625)"/>
      <path id="ArialMT-4c" d="M 469 0 
L 469 4581 
L 1075 4581 
L 1075 541 
L 3331 541 
L 3331 0 
L 469 0 
z
" transform="scale(0.015625)"/>
      <path id="ArialMT-53" d="M 288 1472 
L 859 1522 
Q 900 1178 1048 958 
Q 1197 738 1509 602 
Q 1822 466 2213 466 
Q 2559 466 2825 569 
Q 3091 672 3220 851 
Q 3350 1031 3350 1244 
Q 3350 1459 3225 1620 
Q 3100 1781 2813 1891 
Q 2628 1963 1997 2114 
Q 1366 2266 1113 2400 
Q 784 2572 623 2826 
Q 463 3081 463 3397 
Q 463 3744 659 4045 
Q 856 4347 1234 4503 
Q 1613 4659 2075 4659 
Q 2584 4659 2973 4495 
Q 3363 4331 3572 4012 
Q 3781 3694 3797 3291 
L 3216 3247 
Q 3169 3681 2898 3903 
Q 2628 4125 2100 4125 
Q 1550 4125 1298 3923 
Q 1047 3722 1047 3438 
Q 1047 3191 1225 3031 
Q 1400 2872 2139 2705 
Q 2878 2538 3153 2413 
Q 3553 2228 3743 1945 
Q 3934 1663 3934 1294 
Q 3934 928 3725 604 
Q 3516 281 3123 101 
Q 2731 -78 2241 -78 
Q 1619 -78 1198 103 
Q 778 284 539 648 
Q 300 1013 288 1472 
z
" transform="scale(0.015625)"/>
      <path id="ArialMT-72" d="M 416 0 
L 416 3319 
L 922 3319 
L 922 2816 
Q 1116 3169 1280 3281 
Q 1444 3394 1641 3394 
Q 1925 3394 2219 3213 
L 2025 2691 
Q 1819 2813 1613 2813 
Q 1428 2813 1281 2702 
Q 1134 2591 1072 2394 
Q 978 2094 978 1738 
L 978 0 
L 416 0 
z
" transform="scale(0.015625)"/>
     </defs>
     <use xlink:href="#ArialMT-49"/>
     <use xlink:href="#ArialMT-6d" x="27.783203"/>
     <use xlink:href="#ArialMT-70" x="111.083984"/>
     <use xlink:href="#ArialMT-61" x="166.699219"/>
     <use xlink:href="#ArialMT-63" x="222.314453"/>
     <use xlink:href="#ArialMT-74" x="272.314453"/>
     <use xlink:href="#ArialMT-20" x="300.097656"/>
     <use xlink:href="#ArialMT-6f" x="327.880859"/>
     <use xlink:href="#ArialMT-66" x="383.496094"/>
     <use xlink:href="#ArialMT-20" x="411.279297"/>
     <use xlink:href="#ArialMT-4b" x="439.0625"/>
     <use xlink:href="#ArialMT-45" x="505.761719"/>
     <use xlink:href="#ArialMT-4d" x="572.460938"/>
     <use xlink:href="#ArialMT-20" x="655.761719"/>
     <use xlink:href="#ArialMT-6f" x="683.544922"/>
     <use xlink:href="#ArialMT-6e" x="739.160156"/>
     <use xlink:href="#ArialMT-20" x="794.775391"/>
     <use xlink:href="#ArialMT-54" x="820.808594"/>
     <use xlink:href="#ArialMT-4c" x="881.892578"/>
     <use xlink:href="#ArialMT-53" x="937.507812"/>
     <use xlink:href="#ArialMT-20" x="1004.207031"/>
     <use xlink:href="#ArialMT-48" x="1031.990234"/>
     <use xlink:href="#ArialMT-61" x="1104.207031"/>
     <use xlink:href="#ArialMT-6e" x="1159.822266"/>
     <use xlink:href="#ArialMT-64" x="1215.4375"/>
     <use xlink:href="#ArialMT-73" x="1271.052734"/>
     <use xlink:href="#ArialMT-68" x="1321.052734"/>
     <use xlink:href="#ArialMT-61" x="1376.667969"/>
     <use xlink:href="#ArialMT-6b" x="1432.283203"/>
     <use xlink:href="#ArialMT-65" x="1482.283203"/>
     <use xlink:href="#ArialMT-20" x="1537.898438"/>
     <use xlink:href="#ArialMT-54" x="1563.931641"/>
     <use xlink:href="#ArialMT-69" x="1621.265625"/>
     <use xlink:href="#ArialMT-6d" x="1643.482422"/>
     <use xlink:href="#ArialMT-65" x="1726.783203"/>
     <use xlink:href="#ArialMT-20" x="1782.398438"/>
     <use xlink:href="#ArialMT-28" x="1810.181641"/>
     <use xlink:href="#ArialMT-73" x="1843.482422"/>
     <use xlink:href="#ArialMT-65" x="1893.482422"/>
     <use xlink:href="#ArialMT-63" x="1949.097656"/>
     <use xlink:href="#ArialMT-70" x="1999.097656"/>
     <use xlink:href="#ArialMT-33" x="2054.712891"/>
     <use xlink:href="#ArialMT-38" x="2110.328125"/>
     <use xlink:href="#ArialMT-34" x="2165.943359"/>
     <use xlink:href="#ArialMT-72" x="2221.558594"/>
     <use xlink:href="#ArialMT-31" x="2254.859375"/>
     <use xlink:href="#ArialMT-29" x="2310.474609"/>
    </g>
   </g>
   <g id="legend_1">
    <g id="patch_9">
     <path d="M 96.36 124.7775 
L 380.385 124.7775 
Q 385.185 124.7775 385.185 119.9775 
L 385.185 54.48 
Q 385.185 49.68 380.385 49.68 
L 96.36 49.68 
Q 91.56 49.68 91.56 54.48 
L 91.56 119.9775 
Q 91.56 124.7775 96.36 124.7775 
z
" style="fill: #ffffff; opacity: 0.8; stroke: #cccccc; stroke-linejoin: miter"/>
    </g>
    <g id="text_14">
     <!-- Platform -->
     <g style="fill: #262626" transform="translate(193.696875 76.45875) scale(0.24 -0.24)">
      <defs>
       <path id="ArialMT-50" d="M 494 0 
L 494 4581 
L 2222 4581 
Q 2678 4581 2919 4538 
Q 3256 4481 3484 4323 
Q 3713 4166 3852 3881 
Q 3991 3597 3991 3256 
Q 3991 2672 3619 2267 
Q 3247 1863 2275 1863 
L 1100 1863 
L 1100 0 
L 494 0 
z
M 1100 2403 
L 2284 2403 
Q 2872 2403 3119 2622 
Q 3366 2841 3366 3238 
Q 3366 3525 3220 3729 
Q 3075 3934 2838 4000 
Q 2684 4041 2272 4041 
L 1100 4041 
L 1100 2403 
z
" transform="scale(0.015625)"/>
      </defs>
      <use xlink:href="#ArialMT-50"/>
      <use xlink:href="#ArialMT-6c" x="66.699219"/>
      <use xlink:href="#ArialMT-61" x="88.916016"/>
      <use xlink:href="#ArialMT-74" x="144.53125"/>
      <use xlink:href="#ArialMT-66" x="172.314453"/>
      <use xlink:href="#ArialMT-6f" x="200.097656"/>
      <use xlink:href="#ArialMT-72" x="255.712891"/>
      <use xlink:href="#ArialMT-6d" x="289.013672"/>
     </g>
    </g>
    <g id="patch_10">
     <path d="M 101.16 110.4075 
L 149.16 110.4075 
L 149.16 93.6075 
L 101.16 93.6075 
z
" style="fill: #72b6a1; stroke: #595959; stroke-width: 0.6; stroke-linejoin: miter"/>
    </g>
    <g id="text_15">
     <!-- ARM -->
     <g style="fill: #262626" transform="translate(168.36 110.4075) scale(0.24 -0.24)">
      <defs>
       <path id="ArialMT-41" d="M -9 0 
L 1750 4581 
L 2403 4581 
L 4278 0 
L 3588 0 
L 3053 1388 
L 1138 1388 
L 634 0 
L -9 0 
z
M 1313 1881 
L 2866 1881 
L 2388 3150 
Q 2169 3728 2063 4100 
Q 1975 3659 1816 3225 
L 1313 1881 
z
" transform="scale(0.015625)"/>
       <path id="ArialMT-52" d="M 503 0 
L 503 4581 
L 2534 4581 
Q 3147 4581 3465 4457 
Q 3784 4334 3975 4021 
Q 4166 3709 4166 3331 
Q 4166 2844 3850 2509 
Q 3534 2175 2875 2084 
Q 3116 1969 3241 1856 
Q 3506 1613 3744 1247 
L 4541 0 
L 3778 0 
L 3172 953 
Q 2906 1366 2734 1584 
Q 2563 1803 2427 1890 
Q 2291 1978 2150 2013 
Q 2047 2034 1813 2034 
L 1109 2034 
L 1109 0 
L 503 0 
z
M 1109 2559 
L 2413 2559 
Q 2828 2559 3062 2645 
Q 3297 2731 3419 2920 
Q 3541 3109 3541 3331 
Q 3541 3656 3305 3865 
Q 3069 4075 2559 4075 
L 1109 4075 
L 1109 2559 
z
" transform="scale(0.015625)"/>
      </defs>
      <use xlink:href="#ArialMT-41"/>
      <use xlink:href="#ArialMT-52" x="66.699219"/>
      <use xlink:href="#ArialMT-4d" x="138.916016"/>
     </g>
    </g>
    <g id="patch_11">
     <path d="M 269.6925 110.4075 
L 317.6925 110.4075 
L 317.6925 93.6075 
L 269.6925 93.6075 
z
" style="fill: #e99675; stroke: #595959; stroke-width: 0.6; stroke-linejoin: miter"/>
    </g>
    <g id="text_16">
     <!-- x86 -->
     <g style="fill: #262626" transform="translate(336.8925 110.4075) scale(0.24 -0.24)">
      <use xlink:href="#ArialMT-78"/>
      <use xlink:href="#ArialMT-38" x="50"/>
      <use xlink:href="#ArialMT-36" x="105.615234"/>
     </g>
    </g>
   </g>
  </g>
 </g>
 <defs>
  <clipPath id="p000b354da3">
   <rect x="79.56" y="37.68" width="915.48" height="680.894125"/>
  </clipPath>
 </defs>
</svg>
