<?xml version="1.0" encoding="utf-8" standalone="no"?>
<!DOCTYPE svg PUBLIC "-//W3C//DTD SVG 1.1//EN"
  "http://www.w3.org/Graphics/SVG/1.1/DTD/svg11.dtd">
<svg xmlns:xlink="http://www.w3.org/1999/xlink" width="1008pt" height="792pt" viewBox="0 0 1008 792" xmlns="http://www.w3.org/2000/svg" version="1.1">
 <metadata>
  <rdf:RDF xmlns:dc="http://purl.org/dc/elements/1.1/" xmlns:cc="http://creativecommons.org/ns#" xmlns:rdf="http://www.w3.org/1999/02/22-rdf-syntax-ns#">
   <cc:Work>
    <dc:type rdf:resource="http://purl.org/dc/dcmitype/StillImage"/>
    <dc:date>2025-11-30T13:47:42.833820</dc:date>
    <dc:format>image/svg+xml</dc:format>
    <dc:creator>
     <cc:Agent>
      <dc:title>Matplotlib v3.8.4, https://matplotlib.org/</dc:title>
     </cc:Agent>
    </dc:creator>
   </cc:Work>
  </rdf:RDF>
 </metadata>
 <defs>
  <style type="text/css">*{stroke-linejoin: round; stroke-linecap: butt}</style>
 </defs>
 <g id="figure_1">
  <g id="patch_1">
   <path d="M 0 792 
L 1008 792 
L 1008 0 
L 0 0 
z
" style="fill: #ffffff"/>
  </g>
  <g id="axes_1">
   <g id="patch_2">
    <path d="M 94.005 745.78 
L 995.04 745.78 
L 995.04 37.68 
L 94.005 37.68 
z
" style="fill: #ffffff"/>
   </g>
   <g id="matplotlib.axis_1">
    <g id="xtick_1">
     <g id="text_1">
      <!-- p521 -->
      <g style="fill: #262626" transform="translate(215.260625 773.9675) scale(0.26 -0.26)">
       <defs>
        <path id="ArialMT-70" d="M 422 -1272 
L 422 3319 
L 934 3319 
L 934 2888 
Q 1116 3141 1344 3267 
Q 1572 3394 1897 3394 
Q 2322 3394 2647 3175 
Q 2972 2956 3137 2557 
Q 3303 2159 3303 1684 
Q 3303 1175 3120 767 
Q 2938 359 2589 142 
Q 2241 -75 1856 -75 
Q 1575 -75 1351 44 
Q 1128 163 984 344 
L 984 -1272 
L 422 -1272 
z
M 931 1641 
Q 931 1000 1190 694 
Q 1450 388 1819 388 
Q 2194 388 2461 705 
Q 2728 1022 2728 1688 
Q 2728 2322 2467 2637 
Q 2206 2953 1844 2953 
Q 1484 2953 1207 2617 
Q 931 2281 931 1641 
z
" transform="scale(0.015625)"/>
        <path id="ArialMT-35" d="M 266 1200 
L 856 1250 
Q 922 819 1161 601 
Q 1400 384 1738 384 
Q 2144 384 2425 690 
Q 2706 997 2706 1503 
Q 2706 1984 2436 2262 
Q 2166 2541 1728 2541 
Q 1456 2541 1237 2417 
Q 1019 2294 894 2097 
L 366 2166 
L 809 4519 
L 3088 4519 
L 3088 3981 
L 1259 3981 
L 1013 2750 
Q 1425 3038 1878 3038 
Q 2478 3038 2890 2622 
Q 3303 2206 3303 1553 
Q 3303 931 2941 478 
Q 2500 -78 1738 -78 
Q 1113 -78 717 272 
Q 322 622 266 1200 
z
" transform="scale(0.015625)"/>
        <path id="ArialMT-32" d="M 3222 541 
L 3222 0 
L 194 0 
Q 188 203 259 391 
Q 375 700 629 1000 
Q 884 1300 1366 1694 
Q 2113 2306 2375 2664 
Q 2638 3022 2638 3341 
Q 2638 3675 2398 3904 
Q 2159 4134 1775 4134 
Q 1369 4134 1125 3890 
Q 881 3647 878 3216 
L 300 3275 
Q 359 3922 746 4261 
Q 1134 4600 1788 4600 
Q 2447 4600 2831 4234 
Q 3216 3869 3216 3328 
Q 3216 3053 3103 2787 
Q 2991 2522 2730 2228 
Q 2469 1934 1863 1422 
Q 1356 997 1212 845 
Q 1069 694 975 541 
L 3222 541 
z
" transform="scale(0.015625)"/>
        <path id="ArialMT-31" d="M 2384 0 
L 1822 0 
L 1822 3584 
Q 1619 3391 1289 3197 
Q 959 3003 697 2906 
L 697 3450 
Q 1169 3672 1522 3987 
Q 1875 4303 2022 4600 
L 2384 4600 
L 2384 0 
z
" transform="scale(0.015625)"/>
       </defs>
       <use xlink:href="#ArialMT-70"/>
       <use xlink:href="#ArialMT-35" x="55.615234"/>
       <use xlink:href="#ArialMT-32" x="111.230469"/>
       <use xlink:href="#ArialMT-31" x="166.845703"/>
      </g>
     </g>
    </g>
    <g id="xtick_2">
     <g id="text_2">
      <!-- mlkem1024 -->
      <g style="fill: #262626" transform="translate(477.330781 773.890312) scale(0.26 -0.26)">
       <defs>
        <path id="ArialMT-6d" d="M 422 0 
L 422 3319 
L 925 3319 
L 925 2853 
Q 1081 3097 1340 3245 
Q 1600 3394 1931 3394 
Q 2300 3394 2536 3241 
Q 2772 3088 2869 2813 
Q 3263 3394 3894 3394 
Q 4388 3394 4653 3120 
Q 4919 2847 4919 2278 
L 4919 0 
L 4359 0 
L 4359 2091 
Q 4359 2428 4304 2576 
Q 4250 2725 4106 2815 
Q 3963 2906 3769 2906 
Q 3419 2906 3187 2673 
Q 2956 2441 2956 1928 
L 2956 0 
L 2394 0 
L 2394 2156 
Q 2394 2531 2256 2718 
Q 2119 2906 1806 2906 
Q 1569 2906 1367 2781 
Q 1166 2656 1075 2415 
Q 984 2175 984 1722 
L 984 0 
L 422 0 
z
" transform="scale(0.015625)"/>
        <path id="ArialMT-6c" d="M 409 0 
L 409 4581 
L 972 4581 
L 972 0 
L 409 0 
z
" transform="scale(0.015625)"/>
        <path id="ArialMT-6b" d="M 425 0 
L 425 4581 
L 988 4581 
L 988 1969 
L 2319 3319 
L 3047 3319 
L 1778 2088 
L 3175 0 
L 2481 0 
L 1384 1697 
L 988 1316 
L 988 0 
L 425 0 
z
" transform="scale(0.015625)"/>
        <path id="ArialMT-65" d="M 2694 1069 
L 3275 997 
Q 3138 488 2766 206 
Q 2394 -75 1816 -75 
Q 1088 -75 661 373 
Q 234 822 234 1631 
Q 234 2469 665 2931 
Q 1097 3394 1784 3394 
Q 2450 3394 2872 2941 
Q 3294 2488 3294 1666 
Q 3294 1616 3291 1516 
L 816 1516 
Q 847 969 1125 678 
Q 1403 388 1819 388 
Q 2128 388 2347 550 
Q 2566 713 2694 1069 
z
M 847 1978 
L 2700 1978 
Q 2663 2397 2488 2606 
Q 2219 2931 1791 2931 
Q 1403 2931 1139 2672 
Q 875 2413 847 1978 
z
" transform="scale(0.015625)"/>
        <path id="ArialMT-30" d="M 266 2259 
Q 266 3072 433 3567 
Q 600 4063 929 4331 
Q 1259 4600 1759 4600 
Q 2128 4600 2406 4451 
Q 2684 4303 2865 4023 
Q 3047 3744 3150 3342 
Q 3253 2941 3253 2259 
Q 3253 1453 3087 958 
Q 2922 463 2592 192 
Q 2263 -78 1759 -78 
Q 1097 -78 719 397 
Q 266 969 266 2259 
z
M 844 2259 
Q 844 1131 1108 757 
Q 1372 384 1759 384 
Q 2147 384 2411 759 
Q 2675 1134 2675 2259 
Q 2675 3391 2411 3762 
Q 2147 4134 1753 4134 
Q 1366 4134 1134 3806 
Q 844 3388 844 2259 
z
" transform="scale(0.015625)"/>
        <path id="ArialMT-34" d="M 2069 0 
L 2069 1097 
L 81 1097 
L 81 1613 
L 2172 4581 
L 2631 4581 
L 2631 1613 
L 3250 1613 
L 3250 1097 
L 2631 1097 
L 2631 0 
L 2069 0 
z
M 2069 1613 
L 2069 3678 
L 634 1613 
L 2069 1613 
z
" transform="scale(0.015625)"/>
       </defs>
       <use xlink:href="#ArialMT-6d"/>
       <use xlink:href="#ArialMT-6c" x="83.300781"/>
       <use xlink:href="#ArialMT-6b" x="105.517578"/>
       <use xlink:href="#ArialMT-65" x="155.517578"/>
       <use xlink:href="#ArialMT-6d" x="211.132812"/>
       <use xlink:href="#ArialMT-31" x="294.433594"/>
       <use xlink:href="#ArialMT-30" x="350.048828"/>
       <use xlink:href="#ArialMT-32" x="405.664062"/>
       <use xlink:href="#ArialMT-34" x="461.279297"/>
      </g>
     </g>
    </g>
    <g id="xtick_3">
     <g id="text_3">
      <!-- hqc256 -->
      <g style="fill: #262626" transform="translate(802.221406 773.9675) scale(0.26 -0.26)">
       <defs>
        <path id="ArialMT-68" d="M 422 0 
L 422 4581 
L 984 4581 
L 984 2938 
Q 1378 3394 1978 3394 
Q 2347 3394 2619 3248 
Q 2891 3103 3008 2847 
Q 3125 2591 3125 2103 
L 3125 0 
L 2563 0 
L 2563 2103 
Q 2563 2525 2380 2717 
Q 2197 2909 1863 2909 
Q 1613 2909 1392 2779 
Q 1172 2650 1078 2428 
Q 984 2206 984 1816 
L 984 0 
L 422 0 
z
" transform="scale(0.015625)"/>
        <path id="ArialMT-71" d="M 2538 -1272 
L 2538 353 
Q 2406 169 2170 47 
Q 1934 -75 1669 -75 
Q 1078 -75 651 397 
Q 225 869 225 1691 
Q 225 2191 398 2587 
Q 572 2984 901 3189 
Q 1231 3394 1625 3394 
Q 2241 3394 2594 2875 
L 2594 3319 
L 3100 3319 
L 3100 -1272 
L 2538 -1272 
z
M 803 1669 
Q 803 1028 1072 708 
Q 1341 388 1716 388 
Q 2075 388 2334 692 
Q 2594 997 2594 1619 
Q 2594 2281 2320 2615 
Q 2047 2950 1678 2950 
Q 1313 2950 1058 2639 
Q 803 2328 803 1669 
z
" transform="scale(0.015625)"/>
        <path id="ArialMT-63" d="M 2588 1216 
L 3141 1144 
Q 3050 572 2676 248 
Q 2303 -75 1759 -75 
Q 1078 -75 664 370 
Q 250 816 250 1647 
Q 250 2184 428 2587 
Q 606 2991 970 3192 
Q 1334 3394 1763 3394 
Q 2303 3394 2647 3120 
Q 2991 2847 3088 2344 
L 2541 2259 
Q 2463 2594 2264 2762 
Q 2066 2931 1784 2931 
Q 1359 2931 1093 2626 
Q 828 2322 828 1663 
Q 828 994 1084 691 
Q 1341 388 1753 388 
Q 2084 388 2306 591 
Q 2528 794 2588 1216 
z
" transform="scale(0.015625)"/>
        <path id="ArialMT-36" d="M 3184 3459 
L 2625 3416 
Q 2550 3747 2413 3897 
Q 2184 4138 1850 4138 
Q 1581 4138 1378 3988 
Q 1113 3794 959 3422 
Q 806 3050 800 2363 
Q 1003 2672 1297 2822 
Q 1591 2972 1913 2972 
Q 2475 2972 2870 2558 
Q 3266 2144 3266 1488 
Q 3266 1056 3080 686 
Q 2894 316 2569 119 
Q 2244 -78 1831 -78 
Q 1128 -78 684 439 
Q 241 956 241 2144 
Q 241 3472 731 4075 
Q 1159 4600 1884 4600 
Q 2425 4600 2770 4297 
Q 3116 3994 3184 3459 
z
M 888 1484 
Q 888 1194 1011 928 
Q 1134 663 1356 523 
Q 1578 384 1822 384 
Q 2178 384 2434 671 
Q 2691 959 2691 1453 
Q 2691 1928 2437 2201 
Q 2184 2475 1800 2475 
Q 1419 2475 1153 2201 
Q 888 1928 888 1484 
z
" transform="scale(0.015625)"/>
       </defs>
       <use xlink:href="#ArialMT-68"/>
       <use xlink:href="#ArialMT-71" x="55.615234"/>
       <use xlink:href="#ArialMT-63" x="111.230469"/>
       <use xlink:href="#ArialMT-32" x="161.230469"/>
       <use xlink:href="#ArialMT-35" x="216.845703"/>
       <use xlink:href="#ArialMT-36" x="272.460938"/>
      </g>
     </g>
    </g>
   </g>
   <g id="matplotlib.axis_2">
    <g id="ytick_1">
     <g id="line2d_1">
      <path d="M 94.005 724.168431 
L 995.04 724.168431 
" clip-path="url(#p2a42dfa3b3)" style="fill: none; stroke: #cccccc; stroke-linecap: round"/>
     </g>
     <g id="text_4">
      <!-- 100 -->
      <g style="fill: #262626" transform="translate(41.129688 733.473587) scale(0.26 -0.26)">
       <use xlink:href="#ArialMT-31"/>
       <use xlink:href="#ArialMT-30" x="55.615234"/>
       <use xlink:href="#ArialMT-30" x="111.230469"/>
      </g>
     </g>
    </g>
    <g id="ytick_2">
     <g id="line2d_2">
      <path d="M 94.005 617.352323 
L 995.04 617.352323 
" clip-path="url(#p2a42dfa3b3)" style="fill: none; stroke: #cccccc; stroke-linecap: round"/>
     </g>
     <g id="text_5">
      <!-- 120 -->
      <g style="fill: #262626" transform="translate(41.129688 626.65748) scale(0.26 -0.26)">
       <use xlink:href="#ArialMT-31"/>
       <use xlink:href="#ArialMT-32" x="55.615234"/>
       <use xlink:href="#ArialMT-30" x="111.230469"/>
      </g>
     </g>
    </g>
    <g id="ytick_3">
     <g id="line2d_3">
      <path d="M 94.005 510.536216 
L 995.04 510.536216 
" clip-path="url(#p2a42dfa3b3)" style="fill: none; stroke: #cccccc; stroke-linecap: round"/>
     </g>
     <g id="text_6">
      <!-- 140 -->
      <g style="fill: #262626" transform="translate(41.129688 519.841372) scale(0.26 -0.26)">
       <use xlink:href="#ArialMT-31"/>
       <use xlink:href="#ArialMT-34" x="55.615234"/>
       <use xlink:href="#ArialMT-30" x="111.230469"/>
      </g>
     </g>
    </g>
    <g id="ytick_4">
     <g id="line2d_4">
      <path d="M 94.005 403.720108 
L 995.04 403.720108 
" clip-path="url(#p2a42dfa3b3)" style="fill: none; stroke: #cccccc; stroke-linecap: round"/>
     </g>
     <g id="text_7">
      <!-- 160 -->
      <g style="fill: #262626" transform="translate(41.129688 413.025264) scale(0.26 -0.26)">
       <use xlink:href="#ArialMT-31"/>
       <use xlink:href="#ArialMT-36" x="55.615234"/>
       <use xlink:href="#ArialMT-30" x="111.230469"/>
      </g>
     </g>
    </g>
    <g id="ytick_5">
     <g id="line2d_5">
      <path d="M 94.005 296.904 
L 995.04 296.904 
" clip-path="url(#p2a42dfa3b3)" style="fill: none; stroke: #cccccc; stroke-linecap: round"/>
     </g>
     <g id="text_8">
      <!-- 180 -->
      <g style="fill: #262626" transform="translate(41.129688 306.209157) scale(0.26 -0.26)">
       <defs>
        <path id="ArialMT-38" d="M 1131 2484 
Q 781 2613 612 2850 
Q 444 3088 444 3419 
Q 444 3919 803 4259 
Q 1163 4600 1759 4600 
Q 2359 4600 2725 4251 
Q 3091 3903 3091 3403 
Q 3091 3084 2923 2848 
Q 2756 2613 2416 2484 
Q 2838 2347 3058 2040 
Q 3278 1734 3278 1309 
Q 3278 722 2862 322 
Q 2447 -78 1769 -78 
Q 1091 -78 675 323 
Q 259 725 259 1325 
Q 259 1772 486 2073 
Q 713 2375 1131 2484 
z
M 1019 3438 
Q 1019 3113 1228 2906 
Q 1438 2700 1772 2700 
Q 2097 2700 2305 2904 
Q 2513 3109 2513 3406 
Q 2513 3716 2298 3927 
Q 2084 4138 1766 4138 
Q 1444 4138 1231 3931 
Q 1019 3725 1019 3438 
z
M 838 1322 
Q 838 1081 952 856 
Q 1066 631 1291 507 
Q 1516 384 1775 384 
Q 2178 384 2440 643 
Q 2703 903 2703 1303 
Q 2703 1709 2433 1975 
Q 2163 2241 1756 2241 
Q 1359 2241 1098 1978 
Q 838 1716 838 1322 
z
" transform="scale(0.015625)"/>
       </defs>
       <use xlink:href="#ArialMT-31"/>
       <use xlink:href="#ArialMT-38" x="55.615234"/>
       <use xlink:href="#ArialMT-30" x="111.230469"/>
      </g>
     </g>
    </g>
    <g id="ytick_6">
     <g id="line2d_6">
      <path d="M 94.005 190.087893 
L 995.04 190.087893 
" clip-path="url(#p2a42dfa3b3)" style="fill: none; stroke: #cccccc; stroke-linecap: round"/>
     </g>
     <g id="text_9">
      <!-- 200 -->
      <g style="fill: #262626" transform="translate(41.129688 199.393049) scale(0.26 -0.26)">
       <use xlink:href="#ArialMT-32"/>
       <use xlink:href="#ArialMT-30" x="55.615234"/>
       <use xlink:href="#ArialMT-30" x="111.230469"/>
      </g>
     </g>
    </g>
    <g id="ytick_7">
     <g id="line2d_7">
      <path d="M 94.005 83.271785 
L 995.04 83.271785 
" clip-path="url(#p2a42dfa3b3)" style="fill: none; stroke: #cccccc; stroke-linecap: round"/>
     </g>
     <g id="text_10">
      <!-- 220 -->
      <g style="fill: #262626" transform="translate(41.129688 92.576941) scale(0.26 -0.26)">
       <use xlink:href="#ArialMT-32"/>
       <use xlink:href="#ArialMT-32" x="55.615234"/>
       <use xlink:href="#ArialMT-30" x="111.230469"/>
      </g>
     </g>
    </g>
    <g id="text_11">
     <!-- VPN Time (ms) -->
     <g style="fill: #262626" transform="translate(31.6575 479.841562) rotate(-90) scale(0.26 -0.26)">
      <defs>
       <path id="ArialMT-56" d="M 1803 0 
L 28 4581 
L 684 4581 
L 1875 1253 
Q 2019 853 2116 503 
Q 2222 878 2363 1253 
L 3600 4581 
L 4219 4581 
L 2425 0 
L 1803 0 
z
" transform="scale(0.015625)"/>
       <path id="ArialMT-50" d="M 494 0 
L 494 4581 
L 2222 4581 
Q 2678 4581 2919 4538 
Q 3256 4481 3484 4323 
Q 3713 4166 3852 3881 
Q 3991 3597 3991 3256 
Q 3991 2672 3619 2267 
Q 3247 1863 2275 1863 
L 1100 1863 
L 1100 0 
L 494 0 
z
M 1100 2403 
L 2284 2403 
Q 2872 2403 3119 2622 
Q 3366 2841 3366 3238 
Q 3366 3525 3220 3729 
Q 3075 3934 2838 4000 
Q 2684 4041 2272 4041 
L 1100 4041 
L 1100 2403 
z
" transform="scale(0.015625)"/>
       <path id="ArialMT-4e" d="M 488 0 
L 488 4581 
L 1109 4581 
L 3516 984 
L 3516 4581 
L 4097 4581 
L 4097 0 
L 3475 0 
L 1069 3600 
L 1069 0 
L 488 0 
z
" transform="scale(0.015625)"/>
       <path id="ArialMT-20" transform="scale(0.015625)"/>
       <path id="ArialMT-54" d="M 1659 0 
L 1659 4041 
L 150 4041 
L 150 4581 
L 3781 4581 
L 3781 4041 
L 2266 4041 
L 2266 0 
L 1659 0 
z
" transform="scale(0.015625)"/>
       <path id="ArialMT-69" d="M 425 3934 
L 425 4581 
L 988 4581 
L 988 3934 
L 425 3934 
z
M 425 0 
L 425 3319 
L 988 3319 
L 988 0 
L 425 0 
z
" transform="scale(0.015625)"/>
       <path id="ArialMT-28" d="M 1497 -1347 
Q 1031 -759 709 28 
Q 388 816 388 1659 
Q 388 2403 628 3084 
Q 909 3875 1497 4659 
L 1900 4659 
Q 1522 4009 1400 3731 
Q 1209 3300 1100 2831 
Q 966 2247 966 1656 
Q 966 153 1900 -1347 
L 1497 -1347 
z
" transform="scale(0.015625)"/>
       <path id="ArialMT-73" d="M 197 991 
L 753 1078 
Q 800 744 1014 566 
Q 1228 388 1613 388 
Q 2000 388 2187 545 
Q 2375 703 2375 916 
Q 2375 1106 2209 1216 
Q 2094 1291 1634 1406 
Q 1016 1563 777 1677 
Q 538 1791 414 1992 
Q 291 2194 291 2438 
Q 291 2659 392 2848 
Q 494 3038 669 3163 
Q 800 3259 1026 3326 
Q 1253 3394 1513 3394 
Q 1903 3394 2198 3281 
Q 2494 3169 2634 2976 
Q 2775 2784 2828 2463 
L 2278 2388 
Q 2241 2644 2061 2787 
Q 1881 2931 1553 2931 
Q 1166 2931 1000 2803 
Q 834 2675 834 2503 
Q 834 2394 903 2306 
Q 972 2216 1119 2156 
Q 1203 2125 1616 2013 
Q 2213 1853 2448 1751 
Q 2684 1650 2818 1456 
Q 2953 1263 2953 975 
Q 2953 694 2789 445 
Q 2625 197 2315 61 
Q 2006 -75 1616 -75 
Q 969 -75 630 194 
Q 291 463 197 991 
z
" transform="scale(0.015625)"/>
       <path id="ArialMT-29" d="M 791 -1347 
L 388 -1347 
Q 1322 153 1322 1656 
Q 1322 2244 1188 2822 
Q 1081 3291 891 3722 
Q 769 4003 388 4659 
L 791 4659 
Q 1378 3875 1659 3084 
Q 1900 2403 1900 1659 
Q 1900 816 1576 28 
Q 1253 -759 791 -1347 
z
" transform="scale(0.015625)"/>
      </defs>
      <use xlink:href="#ArialMT-56"/>
      <use xlink:href="#ArialMT-50" x="66.699219"/>
      <use xlink:href="#ArialMT-4e" x="133.398438"/>
      <use xlink:href="#ArialMT-20" x="205.615234"/>
      <use xlink:href="#ArialMT-54" x="231.648438"/>
      <use xlink:href="#ArialMT-69" x="288.982422"/>
      <use xlink:href="#ArialMT-6d" x="311.199219"/>
      <use xlink:href="#ArialMT-65" x="394.5"/>
      <use xlink:href="#ArialMT-20" x="450.115234"/>
      <use xlink:href="#ArialMT-28" x="477.898438"/>
      <use xlink:href="#ArialMT-6d" x="511.199219"/>
      <use xlink:href="#ArialMT-73" x="594.5"/>
      <use xlink:href="#ArialMT-29" x="644.5"/>
     </g>
    </g>
   </g>
   <g id="patch_3">
    <path d="M 244.1775 1258.248969 
L 244.1775 1258.248969 
L 244.1775 1258.248969 
L 244.1775 1258.248969 
z
" clip-path="url(#p2a42dfa3b3)" style="fill: #72b6a1; stroke: #595959; stroke-width: 0.6; stroke-linejoin: miter"/>
   </g>
   <g id="PolyCollection_1">
    <defs>
     <path id="m3f816d5512" d="M 244.1775 -109.062587 
L 197.271984 -109.062587 
L 193.280145 -110.543446 
L 189.165184 -112.024306 
L 184.948629 -113.505166 
L 180.65463 -114.986025 
L 176.309774 -116.466885 
L 171.942835 -117.947745 
L 167.584469 -119.428604 
L 163.26684 -120.909464 
L 159.023198 -122.390324 
L 154.887402 -123.871183 
L 150.893404 -125.352043 
L 147.074695 -126.832903 
L 143.463728 -128.313762 
L 140.091336 -129.794622 
L 136.986146 -131.275482 
L 134.174009 -132.756341 
L 131.677461 -134.237201 
L 129.515231 -135.718061 
L 127.70181 -137.19892 
L 126.247085 -138.67978 
L 125.156072 -140.16064 
L 124.428739 -141.641499 
L 124.059948 -143.122359 
L 124.0395 -144.603219 
L 124.352319 -146.084078 
L 124.978743 -147.564938 
L 125.894945 -149.045798 
L 127.073462 -150.526657 
L 128.483823 -152.007517 
L 130.093272 -153.488377 
L 131.867542 -154.969236 
L 133.771682 -156.450096 
L 135.770888 -157.930956 
L 137.831333 -159.411815 
L 139.92094 -160.892675 
L 142.010093 -162.373535 
L 144.072251 -163.854394 
L 146.084435 -165.335254 
L 148.027591 -166.816114 
L 149.886788 -168.296973 
L 151.651281 -169.777833 
L 153.314407 -171.258693 
L 154.873352 -172.739553 
L 156.328782 -174.220412 
L 157.684383 -175.701272 
L 158.946312 -177.182132 
L 160.122611 -178.662991 
L 161.222606 -180.143851 
L 162.256313 -181.624711 
L 163.2339 -183.10557 
L 164.165215 -184.58643 
L 165.059403 -186.06729 
L 165.924629 -187.548149 
L 166.767912 -189.029009 
L 167.595067 -190.509869 
L 168.41075 -191.990728 
L 169.218596 -193.471588 
L 170.021425 -194.952448 
L 170.821496 -196.433307 
L 171.620788 -197.914167 
L 172.421278 -199.395027 
L 173.225203 -200.875886 
L 174.035267 -202.356746 
L 174.854802 -203.837606 
L 175.687848 -205.318465 
L 176.53916 -206.799325 
L 177.414139 -208.280185 
L 178.318693 -209.761044 
L 179.259031 -211.241904 
L 180.241423 -212.722764 
L 181.271916 -214.203623 
L 182.35605 -215.684483 
L 183.498575 -217.165343 
L 184.703204 -218.646202 
L 185.972396 -220.127062 
L 187.3072 -221.607922 
L 188.707164 -223.088781 
L 190.170308 -224.569641 
L 191.693169 -226.050501 
L 193.270908 -227.53136 
L 194.89748 -229.01222 
L 196.565843 -230.49308 
L 198.268212 -231.973939 
L 199.996322 -233.454799 
L 201.741704 -234.935659 
L 203.49595 -236.416519 
L 205.250952 -237.897378 
L 206.999112 -239.378238 
L 208.733507 -240.859098 
L 210.448007 -242.339957 
L 212.137342 -243.820817 
L 213.797121 -245.301677 
L 215.423799 -246.782536 
L 217.014614 -248.263396 
L 218.567479 -249.744256 
L 220.080865 -251.225115 
L 221.55366 -252.705975 
L 222.985032 -254.186835 
L 224.374302 -255.667694 
L 244.1775 -255.667694 
L 244.1775 -255.667694 
L 244.1775 -254.186835 
L 244.1775 -252.705975 
L 244.1775 -251.225115 
L 244.1775 -249.744256 
L 244.1775 -248.263396 
L 244.1775 -246.782536 
L 244.1775 -245.301677 
L 244.1775 -243.820817 
L 244.1775 -242.339957 
L 244.1775 -240.859098 
L 244.1775 -239.378238 
L 244.1775 -237.897378 
L 244.1775 -236.416519 
L 244.1775 -234.935659 
L 244.1775 -233.454799 
L 244.1775 -231.973939 
L 244.1775 -230.49308 
L 244.1775 -229.01222 
L 244.1775 -227.53136 
L 244.1775 -226.050501 
L 244.1775 -224.569641 
L 244.1775 -223.088781 
L 244.1775 -221.607922 
L 244.1775 -220.127062 
L 244.1775 -218.646202 
L 244.1775 -217.165343 
L 244.1775 -215.684483 
L 244.1775 -214.203623 
L 244.1775 -212.722764 
L 244.1775 -211.241904 
L 244.1775 -209.761044 
L 244.1775 -208.280185 
L 244.1775 -206.799325 
L 244.1775 -205.318465 
L 244.1775 -203.837606 
L 244.1775 -202.356746 
L 244.1775 -200.875886 
L 244.1775 -199.395027 
L 244.1775 -197.914167 
L 244.1775 -196.433307 
L 244.1775 -194.952448 
L 244.1775 -193.471588 
L 244.1775 -191.990728 
L 244.1775 -190.509869 
L 244.1775 -189.029009 
L 244.1775 -187.548149 
L 244.1775 -186.06729 
L 244.1775 -184.58643 
L 244.1775 -183.10557 
L 244.1775 -181.624711 
L 244.1775 -180.143851 
L 244.1775 -178.662991 
L 244.1775 -177.182132 
L 244.1775 -175.701272 
L 244.1775 -174.220412 
L 244.1775 -172.739553 
L 244.1775 -171.258693 
L 244.1775 -169.777833 
L 244.1775 -168.296973 
L 244.1775 -166.816114 
L 244.1775 -165.335254 
L 244.1775 -163.854394 
L 244.1775 -162.373535 
L 244.1775 -160.892675 
L 244.1775 -159.411815 
L 244.1775 -157.930956 
L 244.1775 -156.450096 
L 244.1775 -154.969236 
L 244.1775 -153.488377 
L 244.1775 -152.007517 
L 244.1775 -150.526657 
L 244.1775 -149.045798 
L 244.1775 -147.564938 
L 244.1775 -146.084078 
L 244.1775 -144.603219 
L 244.1775 -143.122359 
L 244.1775 -141.641499 
L 244.1775 -140.16064 
L 244.1775 -138.67978 
L 244.1775 -137.19892 
L 244.1775 -135.718061 
L 244.1775 -134.237201 
L 244.1775 -132.756341 
L 244.1775 -131.275482 
L 244.1775 -129.794622 
L 244.1775 -128.313762 
L 244.1775 -126.832903 
L 244.1775 -125.352043 
L 244.1775 -123.871183 
L 244.1775 -122.390324 
L 244.1775 -120.909464 
L 244.1775 -119.428604 
L 244.1775 -117.947745 
L 244.1775 -116.466885 
L 244.1775 -114.986025 
L 244.1775 -113.505166 
L 244.1775 -112.024306 
L 244.1775 -110.543446 
L 244.1775 -109.062587 
z
" style="stroke: #595959; stroke-width: 1.2"/>
    </defs>
    <g clip-path="url(#p2a42dfa3b3)">
     <use xlink:href="#m3f816d5512" x="0" y="792" style="fill: #72b6a1; stroke: #595959; stroke-width: 1.2"/>
    </g>
   </g>
   <g id="patch_4">
    <path d="M 244.1775 1258.248969 
L 244.1775 1258.248969 
L 244.1775 1258.248969 
L 244.1775 1258.248969 
z
" clip-path="url(#p2a42dfa3b3)" style="fill: #e99675; stroke: #595959; stroke-width: 0.6; stroke-linejoin: miter"/>
   </g>
   <g id="PolyCollection_2">
    <defs>
     <path id="mea2c8635c3" d="M 329.65028 -96.137838 
L 244.1775 -96.137838 
L 244.1775 -96.97834 
L 244.1775 -97.818843 
L 244.1775 -98.659345 
L 244.1775 -99.499848 
L 244.1775 -100.34035 
L 244.1775 -101.180853 
L 244.1775 -102.021355 
L 244.1775 -102.861858 
L 244.1775 -103.70236 
L 244.1775 -104.542863 
L 244.1775 -105.383365 
L 244.1775 -106.223868 
L 244.1775 -107.06437 
L 244.1775 -107.904873 
L 244.1775 -108.745375 
L 244.1775 -109.585878 
L 244.1775 -110.42638 
L 244.1775 -111.266883 
L 244.1775 -112.107385 
L 244.1775 -112.947888 
L 244.1775 -113.78839 
L 244.1775 -114.628893 
L 244.1775 -115.469395 
L 244.1775 -116.309898 
L 244.1775 -117.1504 
L 244.1775 -117.990903 
L 244.1775 -118.831405 
L 244.1775 -119.671908 
L 244.1775 -120.51241 
L 244.1775 -121.352913 
L 244.1775 -122.193415 
L 244.1775 -123.033918 
L 244.1775 -123.87442 
L 244.1775 -124.714923 
L 244.1775 -125.555425 
L 244.1775 -126.395928 
L 244.1775 -127.23643 
L 244.1775 -128.076933 
L 244.1775 -128.917435 
L 244.1775 -129.757938 
L 244.1775 -130.59844 
L 244.1775 -131.438943 
L 244.1775 -132.279445 
L 244.1775 -133.119948 
L 244.1775 -133.96045 
L 244.1775 -134.800953 
L 244.1775 -135.641455 
L 244.1775 -136.481958 
L 244.1775 -137.32246 
L 244.1775 -138.162963 
L 244.1775 -139.003465 
L 244.1775 -139.843968 
L 244.1775 -140.68447 
L 244.1775 -141.524973 
L 244.1775 -142.365475 
L 244.1775 -143.205978 
L 244.1775 -144.04648 
L 244.1775 -144.886983 
L 244.1775 -145.727485 
L 244.1775 -146.567988 
L 244.1775 -147.40849 
L 244.1775 -148.248993 
L 244.1775 -149.089495 
L 244.1775 -149.929998 
L 244.1775 -150.7705 
L 244.1775 -151.611003 
L 244.1775 -152.451505 
L 244.1775 -153.292008 
L 244.1775 -154.13251 
L 244.1775 -154.973013 
L 244.1775 -155.813515 
L 244.1775 -156.654018 
L 244.1775 -157.49452 
L 244.1775 -158.335023 
L 244.1775 -159.175525 
L 244.1775 -160.016028 
L 244.1775 -160.85653 
L 244.1775 -161.697033 
L 244.1775 -162.537535 
L 244.1775 -163.378038 
L 244.1775 -164.21854 
L 244.1775 -165.059043 
L 244.1775 -165.899545 
L 244.1775 -166.740048 
L 244.1775 -167.58055 
L 244.1775 -168.421053 
L 244.1775 -169.261555 
L 244.1775 -170.102058 
L 244.1775 -170.94256 
L 244.1775 -171.783063 
L 244.1775 -172.623565 
L 244.1775 -173.464068 
L 244.1775 -174.30457 
L 244.1775 -175.145073 
L 244.1775 -175.985575 
L 244.1775 -176.826078 
L 244.1775 -177.66658 
L 244.1775 -178.507083 
L 244.1775 -179.347585 
L 248.560983 -179.347585 
L 248.560983 -179.347585 
L 248.596509 -178.507083 
L 248.594717 -177.66658 
L 248.560888 -176.826078 
L 248.501995 -175.985575 
L 248.426254 -175.145073 
L 248.342568 -174.30457 
L 248.259912 -173.464068 
L 248.186703 -172.623565 
L 248.130199 -171.783063 
L 248.095988 -170.94256 
L 248.087601 -170.102058 
L 248.106282 -169.261555 
L 248.150939 -168.421053 
L 248.218272 -167.58055 
L 248.303087 -166.740048 
L 248.398746 -165.899545 
L 248.497746 -165.059043 
L 248.592356 -164.21854 
L 248.675272 -163.378038 
L 248.740238 -162.537535 
L 248.782575 -161.697033 
L 248.799579 -160.85653 
L 248.790755 -160.016028 
L 248.757874 -159.175525 
L 248.704835 -158.335023 
L 248.637369 -157.49452 
L 248.562595 -156.654018 
L 248.488479 -155.813515 
L 248.423251 -154.973013 
L 248.374818 -154.13251 
L 248.350257 -153.292008 
L 248.355402 -152.451505 
L 248.394601 -151.611003 
L 248.470637 -150.7705 
L 248.584844 -149.929998 
L 248.737392 -149.089495 
L 248.927735 -148.248993 
L 249.155154 -147.40849 
L 249.419367 -146.567988 
L 249.72113 -145.727485 
L 250.062767 -144.886983 
L 250.448578 -144.04648 
L 250.885073 -143.205978 
L 251.381 -142.365475 
L 251.947157 -141.524973 
L 252.59599 -140.68447 
L 253.34101 -139.843968 
L 254.196084 -139.003465 
L 255.174645 -138.162963 
L 256.288905 -137.32246 
L 257.549137 -136.481958 
L 258.963095 -135.641455 
L 260.535615 -134.800953 
L 262.268442 -133.96045 
L 264.160294 -133.119948 
L 266.207138 -132.279445 
L 268.40267 -131.438943 
L 270.738929 -130.59844 
L 273.206988 -129.757938 
L 275.797653 -128.917435 
L 278.502107 -128.076933 
L 281.312429 -127.23643 
L 284.221953 -126.395928 
L 287.225433 -125.555425 
L 290.319013 -124.714923 
L 293.500011 -123.87442 
L 296.766549 -123.033918 
L 300.117068 -122.193415 
L 303.549776 -121.352913 
L 307.06208 -120.51241 
L 310.65002 -119.671908 
L 314.30776 -118.831405 
L 318.027111 -117.990903 
L 321.797109 -117.1504 
L 325.603617 -116.309898 
L 329.428932 -115.469395 
L 333.251387 -114.628893 
L 337.044921 -113.78839 
L 340.778654 -112.947888 
L 344.416473 -112.107385 
L 347.916711 -111.266883 
L 351.231988 -110.42638 
L 354.309304 -109.585878 
L 357.090505 -108.745375 
L 359.51318 -107.904873 
L 361.512082 -107.06437 
L 363.021075 -106.223868 
L 363.975589 -105.383365 
L 364.3155 -104.542863 
L 363.988284 -103.70236 
L 362.952262 -102.861858 
L 361.179706 -102.021355 
L 358.659543 -101.180853 
L 355.399447 -100.34035 
L 351.42707 -99.499848 
L 346.79029 -98.659345 
L 341.556356 -97.818843 
L 335.809957 -96.97834 
L 329.65028 -96.137838 
z
" style="stroke: #595959; stroke-width: 1.2"/>
    </defs>
    <g clip-path="url(#p2a42dfa3b3)">
     <use xlink:href="#mea2c8635c3" x="0" y="792" style="fill: #e99675; stroke: #595959; stroke-width: 1.2"/>
    </g>
   </g>
   <g id="PolyCollection_3">
    <defs>
     <path id="m48ff0afec1" d="M 544.5225 -78.406364 
L 540.907974 -78.406364 
L 540.921776 -80.265935 
L 540.978012 -82.125506 
L 541.072279 -83.985078 
L 541.198018 -85.844649 
L 541.346686 -87.70422 
L 541.507981 -89.563792 
L 541.670101 -91.423363 
L 541.820005 -93.282934 
L 541.943641 -95.142506 
L 542.026116 -97.002077 
L 542.051797 -98.861648 
L 542.004322 -100.72122 
L 541.866531 -102.580791 
L 541.620319 -104.440362 
L 541.246439 -106.299934 
L 540.724265 -108.159505 
L 540.031559 -110.019076 
L 539.144281 -111.878648 
L 538.036477 -113.738219 
L 536.680293 -115.59779 
L 535.04618 -117.457362 
L 533.103323 -119.316933 
L 530.820352 -121.176504 
L 528.166376 -123.036076 
L 525.112361 -124.895647 
L 521.632852 -126.755218 
L 517.708023 -128.61479 
L 513.325975 -130.474361 
L 508.485184 -132.333932 
L 503.196949 -134.193503 
L 497.487659 -136.053075 
L 491.400662 -137.912646 
L 484.997527 -139.772217 
L 478.358483 -141.631789 
L 471.581865 -143.49136 
L 464.782453 -145.350931 
L 458.088662 -147.210503 
L 451.638636 -149.070074 
L 445.575408 -150.929645 
L 440.041341 -152.789217 
L 435.172197 -154.648788 
L 431.091184 -156.508359 
L 427.903382 -158.367931 
L 425.690911 -160.227502 
L 424.509187 -162.087073 
L 424.3845 -163.946645 
L 425.313068 -165.806216 
L 427.26161 -167.665787 
L 430.169347 -169.525359 
L 433.951278 -171.38493 
L 438.502448 -173.244501 
L 443.702914 -175.104073 
L 449.423061 -176.963644 
L 455.528936 -178.823215 
L 461.887299 -180.682787 
L 468.370141 -182.542358 
L 474.858473 -184.401929 
L 481.245295 -186.261501 
L 487.437677 -188.121072 
L 493.357989 -189.980643 
L 498.944347 -191.840215 
L 504.150372 -193.699786 
L 508.94441 -195.559357 
L 513.308326 -197.418929 
L 517.236009 -199.2785 
L 520.731708 -201.138071 
L 523.808272 -202.997643 
L 526.48539 -204.857214 
L 528.787864 -206.716785 
L 530.743954 -208.576357 
L 532.383837 -210.435928 
L 533.73818 -212.295499 
L 534.836858 -214.155071 
L 535.707857 -216.014642 
L 536.376363 -217.874213 
L 536.864106 -219.733785 
L 537.188962 -221.593356 
L 537.36487 -223.452927 
L 537.402055 -225.312499 
L 537.307577 -227.17207 
L 537.086176 -229.031641 
L 536.741352 -230.891213 
L 536.276627 -232.750784 
L 535.696861 -234.610355 
L 535.009536 -236.469927 
L 534.22586 -238.329498 
L 533.361584 -240.189069 
L 532.437434 -242.048641 
L 531.479066 -243.908212 
L 530.516534 -245.767783 
L 529.583259 -247.627355 
L 528.714575 -249.486926 
L 527.945947 -251.346497 
L 527.310997 -253.206069 
L 526.839517 -255.06564 
L 526.555627 -256.925211 
L 526.476244 -258.784783 
L 526.61 -260.644354 
L 526.956709 -262.503925 
L 544.5225 -262.503925 
L 544.5225 -262.503925 
L 544.5225 -260.644354 
L 544.5225 -258.784783 
L 544.5225 -256.925211 
L 544.5225 -255.06564 
L 544.5225 -253.206069 
L 544.5225 -251.346497 
L 544.5225 -249.486926 
L 544.5225 -247.627355 
L 544.5225 -245.767783 
L 544.5225 -243.908212 
L 544.5225 -242.048641 
L 544.5225 -240.189069 
L 544.5225 -238.329498 
L 544.5225 -236.469927 
L 544.5225 -234.610355 
L 544.5225 -232.750784 
L 544.5225 -230.891213 
L 544.5225 -229.031641 
L 544.5225 -227.17207 
L 544.5225 -225.312499 
L 544.5225 -223.452927 
L 544.5225 -221.593356 
L 544.5225 -219.733785 
L 544.5225 -217.874213 
L 544.5225 -216.014642 
L 544.5225 -214.155071 
L 544.5225 -212.295499 
L 544.5225 -210.435928 
L 544.5225 -208.576357 
L 544.5225 -206.716785 
L 544.5225 -204.857214 
L 544.5225 -202.997643 
L 544.5225 -201.138071 
L 544.5225 -199.2785 
L 544.5225 -197.418929 
L 544.5225 -195.559357 
L 544.5225 -193.699786 
L 544.5225 -191.840215 
L 544.5225 -189.980643 
L 544.5225 -188.121072 
L 544.5225 -186.261501 
L 544.5225 -184.401929 
L 544.5225 -182.542358 
L 544.5225 -180.682787 
L 544.5225 -178.823215 
L 544.5225 -176.963644 
L 544.5225 -175.104073 
L 544.5225 -173.244501 
L 544.5225 -171.38493 
L 544.5225 -169.525359 
L 544.5225 -167.665787 
L 544.5225 -165.806216 
L 544.5225 -163.946645 
L 544.5225 -162.087073 
L 544.5225 -160.227502 
L 544.5225 -158.367931 
L 544.5225 -156.508359 
L 544.5225 -154.648788 
L 544.5225 -152.789217 
L 544.5225 -150.929645 
L 544.5225 -149.070074 
L 544.5225 -147.210503 
L 544.5225 -145.350931 
L 544.5225 -143.49136 
L 544.5225 -141.631789 
L 544.5225 -139.772217 
L 544.5225 -137.912646 
L 544.5225 -136.053075 
L 544.5225 -134.193503 
L 544.5225 -132.333932 
L 544.5225 -130.474361 
L 544.5225 -128.61479 
L 544.5225 -126.755218 
L 544.5225 -124.895647 
L 544.5225 -123.036076 
L 544.5225 -121.176504 
L 544.5225 -119.316933 
L 544.5225 -117.457362 
L 544.5225 -115.59779 
L 544.5225 -113.738219 
L 544.5225 -111.878648 
L 544.5225 -110.019076 
L 544.5225 -108.159505 
L 544.5225 -106.299934 
L 544.5225 -104.440362 
L 544.5225 -102.580791 
L 544.5225 -100.72122 
L 544.5225 -98.861648 
L 544.5225 -97.002077 
L 544.5225 -95.142506 
L 544.5225 -93.282934 
L 544.5225 -91.423363 
L 544.5225 -89.563792 
L 544.5225 -87.70422 
L 544.5225 -85.844649 
L 544.5225 -83.985078 
L 544.5225 -82.125506 
L 544.5225 -80.265935 
L 544.5225 -78.406364 
z
" style="stroke: #595959; stroke-width: 1.2"/>
    </defs>
    <g clip-path="url(#p2a42dfa3b3)">
     <use xlink:href="#m48ff0afec1" x="0" y="792" style="fill: #72b6a1; stroke: #595959; stroke-width: 1.2"/>
    </g>
   </g>
   <g id="PolyCollection_4">
    <defs>
     <path id="mdb6fe68de9" d="M 590.207408 -100.677522 
L 544.5225 -100.677522 
L 544.5225 -101.455445 
L 544.5225 -102.233369 
L 544.5225 -103.011292 
L 544.5225 -103.789216 
L 544.5225 -104.567139 
L 544.5225 -105.345062 
L 544.5225 -106.122986 
L 544.5225 -106.900909 
L 544.5225 -107.678832 
L 544.5225 -108.456756 
L 544.5225 -109.234679 
L 544.5225 -110.012603 
L 544.5225 -110.790526 
L 544.5225 -111.568449 
L 544.5225 -112.346373 
L 544.5225 -113.124296 
L 544.5225 -113.902219 
L 544.5225 -114.680143 
L 544.5225 -115.458066 
L 544.5225 -116.235989 
L 544.5225 -117.013913 
L 544.5225 -117.791836 
L 544.5225 -118.56976 
L 544.5225 -119.347683 
L 544.5225 -120.125606 
L 544.5225 -120.90353 
L 544.5225 -121.681453 
L 544.5225 -122.459376 
L 544.5225 -123.2373 
L 544.5225 -124.015223 
L 544.5225 -124.793147 
L 544.5225 -125.57107 
L 544.5225 -126.348993 
L 544.5225 -127.126917 
L 544.5225 -127.90484 
L 544.5225 -128.682763 
L 544.5225 -129.460687 
L 544.5225 -130.23861 
L 544.5225 -131.016534 
L 544.5225 -131.794457 
L 544.5225 -132.57238 
L 544.5225 -133.350304 
L 544.5225 -134.128227 
L 544.5225 -134.90615 
L 544.5225 -135.684074 
L 544.5225 -136.461997 
L 544.5225 -137.23992 
L 544.5225 -138.017844 
L 544.5225 -138.795767 
L 544.5225 -139.573691 
L 544.5225 -140.351614 
L 544.5225 -141.129537 
L 544.5225 -141.907461 
L 544.5225 -142.685384 
L 544.5225 -143.463307 
L 544.5225 -144.241231 
L 544.5225 -145.019154 
L 544.5225 -145.797078 
L 544.5225 -146.575001 
L 544.5225 -147.352924 
L 544.5225 -148.130848 
L 544.5225 -148.908771 
L 544.5225 -149.686694 
L 544.5225 -150.464618 
L 544.5225 -151.242541 
L 544.5225 -152.020464 
L 544.5225 -152.798388 
L 544.5225 -153.576311 
L 544.5225 -154.354235 
L 544.5225 -155.132158 
L 544.5225 -155.910081 
L 544.5225 -156.688005 
L 544.5225 -157.465928 
L 544.5225 -158.243851 
L 544.5225 -159.021775 
L 544.5225 -159.799698 
L 544.5225 -160.577622 
L 544.5225 -161.355545 
L 544.5225 -162.133468 
L 544.5225 -162.911392 
L 544.5225 -163.689315 
L 544.5225 -164.467238 
L 544.5225 -165.245162 
L 544.5225 -166.023085 
L 544.5225 -166.801009 
L 544.5225 -167.578932 
L 544.5225 -168.356855 
L 544.5225 -169.134779 
L 544.5225 -169.912702 
L 544.5225 -170.690625 
L 544.5225 -171.468549 
L 544.5225 -172.246472 
L 544.5225 -173.024395 
L 544.5225 -173.802319 
L 544.5225 -174.580242 
L 544.5225 -175.358166 
L 544.5225 -176.136089 
L 544.5225 -176.914012 
L 544.5225 -177.691936 
L 548.823142 -177.691936 
L 548.823142 -177.691936 
L 548.796024 -176.914012 
L 548.712629 -176.136089 
L 548.576882 -175.358166 
L 548.394927 -174.580242 
L 548.174796 -173.802319 
L 547.925997 -173.024395 
L 547.659038 -172.246472 
L 547.384941 -171.468549 
L 547.114782 -170.690625 
L 546.859291 -169.912702 
L 546.628531 -169.134779 
L 546.431667 -168.356855 
L 546.276823 -167.578932 
L 546.171024 -166.801009 
L 546.120193 -166.023085 
L 546.129191 -165.245162 
L 546.201875 -164.467238 
L 546.341156 -163.689315 
L 546.549037 -162.911392 
L 546.826637 -162.133468 
L 547.174187 -161.355545 
L 547.591012 -160.577622 
L 548.075508 -159.799698 
L 548.625123 -159.021775 
L 549.236359 -158.243851 
L 549.904802 -157.465928 
L 550.625196 -156.688005 
L 551.391554 -155.910081 
L 552.197323 -155.132158 
L 553.035581 -154.354235 
L 553.899278 -153.576311 
L 554.781501 -152.798388 
L 555.675751 -152.020464 
L 556.576226 -151.242541 
L 557.478086 -150.464618 
L 558.377688 -149.686694 
L 559.272771 -148.908771 
L 560.162571 -148.130848 
L 561.047859 -147.352924 
L 561.930881 -146.575001 
L 562.815214 -145.797078 
L 563.705532 -145.019154 
L 564.607307 -144.241231 
L 565.526476 -143.463307 
L 566.469113 -142.685384 
L 567.441148 -141.907461 
L 568.448173 -141.129537 
L 569.495381 -140.351614 
L 570.587649 -139.573691 
L 571.72979 -138.795767 
L 572.926941 -138.017844 
L 574.185072 -137.23992 
L 575.511552 -136.461997 
L 576.91571 -135.684074 
L 578.409325 -134.90615 
L 580.006957 -134.128227 
L 581.726064 -133.350304 
L 583.586845 -132.57238 
L 585.611775 -131.794457 
L 587.824808 -131.016534 
L 590.25026 -130.23861 
L 592.911397 -129.460687 
L 595.828772 -128.682763 
L 599.018398 -127.90484 
L 602.489827 -127.126917 
L 606.244262 -126.348993 
L 610.272814 -125.57107 
L 614.555046 -124.793147 
L 619.05793 -124.015223 
L 623.735339 -123.2373 
L 628.52819 -122.459376 
L 633.365285 -121.681453 
L 638.164893 -120.90353 
L 642.837025 -120.125606 
L 647.286325 -119.347683 
L 651.415424 -118.56976 
L 655.128575 -117.791836 
L 658.335339 -117.013913 
L 660.95411 -116.235989 
L 662.915244 -115.458066 
L 664.163621 -114.680143 
L 664.6605 -113.902219 
L 664.3846 -113.124296 
L 663.332393 -112.346373 
L 661.517658 -111.568449 
L 658.970402 -110.790526 
L 655.735266 -110.012603 
L 651.869568 -109.234679 
L 647.441113 -108.456756 
L 642.525909 -107.678832 
L 637.205874 -106.900909 
L 631.566608 -106.122986 
L 625.695284 -105.345062 
L 619.678667 -104.567139 
L 613.601287 -103.789216 
L 607.543766 -103.011292 
L 601.581302 -102.233369 
L 595.782333 -101.455445 
L 590.207408 -100.677522 
z
" style="stroke: #595959; stroke-width: 1.2"/>
    </defs>
    <g clip-path="url(#p2a42dfa3b3)">
     <use xlink:href="#mdb6fe68de9" x="0" y="792" style="fill: #e99675; stroke: #595959; stroke-width: 1.2"/>
    </g>
   </g>
   <g id="PolyCollection_5">
    <defs>
     <path id="mb6f58d8cb6" d="M 844.8675 -472.611209 
L 774.740792 -472.611209 
L 770.420452 -474.375293 
L 766.142651 -476.139377 
L 761.940793 -477.903462 
L 757.848211 -479.667546 
L 753.897496 -481.43163 
L 750.119818 -483.195714 
L 746.54425 -484.959798 
L 743.197107 -486.723883 
L 740.101348 -488.487967 
L 737.276022 -490.252051 
L 734.735823 -492.016135 
L 732.490728 -493.780219 
L 730.545765 -495.544304 
L 728.900904 -497.308388 
L 727.551083 -499.072472 
L 726.486369 -500.836556 
L 725.692257 -502.60064 
L 725.15009 -504.364725 
L 724.837591 -506.128809 
L 724.7295 -507.892893 
L 724.798276 -509.656977 
L 725.014861 -511.421061 
L 725.349468 -513.185146 
L 725.772376 -514.94923 
L 726.2547 -516.713314 
L 726.769111 -518.477398 
L 727.290498 -520.241482 
L 727.796528 -522.005567 
L 728.268118 -523.769651 
L 728.689778 -525.533735 
L 729.049842 -527.297819 
L 729.340576 -529.061903 
L 729.558155 -530.825988 
L 729.702538 -532.590072 
L 729.777224 -534.354156 
L 729.788924 -536.11824 
L 729.747156 -537.882324 
L 729.663773 -539.646409 
L 729.552454 -541.410493 
L 729.428166 -543.174577 
L 729.306626 -544.938661 
L 729.203763 -546.702745 
L 729.135213 -548.46683 
L 729.115852 -550.230914 
L 729.159369 -551.994998 
L 729.277915 -553.759082 
L 729.481799 -555.523166 
L 729.77927 -557.287251 
L 730.176364 -559.051335 
L 730.67682 -560.815419 
L 731.282082 -562.579503 
L 731.99135 -564.343587 
L 732.801706 -566.107672 
L 733.708295 -567.871756 
L 734.704546 -569.63584 
L 735.782443 -571.399924 
L 736.932817 -573.164008 
L 738.145663 -574.928093 
L 739.410463 -576.692177 
L 740.716513 -578.456261 
L 742.053232 -580.220345 
L 743.410463 -581.984429 
L 744.778731 -583.748514 
L 746.149478 -585.512598 
L 747.515256 -587.276682 
L 748.869869 -589.040766 
L 750.208476 -590.80485 
L 751.527641 -592.568935 
L 752.825342 -594.333019 
L 754.100939 -596.097103 
L 755.355092 -597.861187 
L 756.589664 -599.625271 
L 757.807581 -601.389356 
L 759.012688 -603.15344 
L 760.209579 -604.917524 
L 761.403434 -606.681608 
L 762.599852 -608.445692 
L 763.804686 -610.209777 
L 765.0239 -611.973861 
L 766.263435 -613.737945 
L 767.529084 -615.502029 
L 768.826401 -617.266113 
L 770.160605 -619.030198 
L 771.536517 -620.794282 
L 772.958496 -622.558366 
L 774.430393 -624.32245 
L 775.955502 -626.086534 
L 777.536521 -627.850619 
L 779.175516 -629.614703 
L 780.873874 -631.378787 
L 782.632266 -633.142871 
L 784.450602 -634.906955 
L 786.327988 -636.67104 
L 788.262687 -638.435124 
L 790.252083 -640.199208 
L 792.292654 -641.963292 
L 794.379961 -643.727376 
L 796.508643 -645.491461 
L 798.672448 -647.255545 
L 844.8675 -647.255545 
L 844.8675 -647.255545 
L 844.8675 -645.491461 
L 844.8675 -643.727376 
L 844.8675 -641.963292 
L 844.8675 -640.199208 
L 844.8675 -638.435124 
L 844.8675 -636.67104 
L 844.8675 -634.906955 
L 844.8675 -633.142871 
L 844.8675 -631.378787 
L 844.8675 -629.614703 
L 844.8675 -627.850619 
L 844.8675 -626.086534 
L 844.8675 -624.32245 
L 844.8675 -622.558366 
L 844.8675 -620.794282 
L 844.8675 -619.030198 
L 844.8675 -617.266113 
L 844.8675 -615.502029 
L 844.8675 -613.737945 
L 844.8675 -611.973861 
L 844.8675 -610.209777 
L 844.8675 -608.445692 
L 844.8675 -606.681608 
L 844.8675 -604.917524 
L 844.8675 -603.15344 
L 844.8675 -601.389356 
L 844.8675 -599.625271 
L 844.8675 -597.861187 
L 844.8675 -596.097103 
L 844.8675 -594.333019 
L 844.8675 -592.568935 
L 844.8675 -590.80485 
L 844.8675 -589.040766 
L 844.8675 -587.276682 
L 844.8675 -585.512598 
L 844.8675 -583.748514 
L 844.8675 -581.984429 
L 844.8675 -580.220345 
L 844.8675 -578.456261 
L 844.8675 -576.692177 
L 844.8675 -574.928093 
L 844.8675 -573.164008 
L 844.8675 -571.399924 
L 844.8675 -569.63584 
L 844.8675 -567.871756 
L 844.8675 -566.107672 
L 844.8675 -564.343587 
L 844.8675 -562.579503 
L 844.8675 -560.815419 
L 844.8675 -559.051335 
L 844.8675 -557.287251 
L 844.8675 -555.523166 
L 844.8675 -553.759082 
L 844.8675 -551.994998 
L 844.8675 -550.230914 
L 844.8675 -548.46683 
L 844.8675 -546.702745 
L 844.8675 -544.938661 
L 844.8675 -543.174577 
L 844.8675 -541.410493 
L 844.8675 -539.646409 
L 844.8675 -537.882324 
L 844.8675 -536.11824 
L 844.8675 -534.354156 
L 844.8675 -532.590072 
L 844.8675 -530.825988 
L 844.8675 -529.061903 
L 844.8675 -527.297819 
L 844.8675 -525.533735 
L 844.8675 -523.769651 
L 844.8675 -522.005567 
L 844.8675 -520.241482 
L 844.8675 -518.477398 
L 844.8675 -516.713314 
L 844.8675 -514.94923 
L 844.8675 -513.185146 
L 844.8675 -511.421061 
L 844.8675 -509.656977 
L 844.8675 -507.892893 
L 844.8675 -506.128809 
L 844.8675 -504.364725 
L 844.8675 -502.60064 
L 844.8675 -500.836556 
L 844.8675 -499.072472 
L 844.8675 -497.308388 
L 844.8675 -495.544304 
L 844.8675 -493.780219 
L 844.8675 -492.016135 
L 844.8675 -490.252051 
L 844.8675 -488.487967 
L 844.8675 -486.723883 
L 844.8675 -484.959798 
L 844.8675 -483.195714 
L 844.8675 -481.43163 
L 844.8675 -479.667546 
L 844.8675 -477.903462 
L 844.8675 -476.139377 
L 844.8675 -474.375293 
L 844.8675 -472.611209 
z
" style="stroke: #595959; stroke-width: 1.2"/>
    </defs>
    <g clip-path="url(#p2a42dfa3b3)">
     <use xlink:href="#mb6f58d8cb6" x="0" y="792" style="fill: #72b6a1; stroke: #595959; stroke-width: 1.2"/>
    </g>
   </g>
   <g id="PolyCollection_6">
    <defs>
     <path id="mad1146755b" d="M 900.448496 -644.478326 
L 844.8675 -644.478326 
L 844.8675 -645.262723 
L 844.8675 -646.04712 
L 844.8675 -646.831517 
L 844.8675 -647.615914 
L 844.8675 -648.400311 
L 844.8675 -649.184709 
L 844.8675 -649.969106 
L 844.8675 -650.753503 
L 844.8675 -651.5379 
L 844.8675 -652.322297 
L 844.8675 -653.106694 
L 844.8675 -653.891091 
L 844.8675 -654.675488 
L 844.8675 -655.459885 
L 844.8675 -656.244282 
L 844.8675 -657.028679 
L 844.8675 -657.813076 
L 844.8675 -658.597473 
L 844.8675 -659.38187 
L 844.8675 -660.166268 
L 844.8675 -660.950665 
L 844.8675 -661.735062 
L 844.8675 -662.519459 
L 844.8675 -663.303856 
L 844.8675 -664.088253 
L 844.8675 -664.87265 
L 844.8675 -665.657047 
L 844.8675 -666.441444 
L 844.8675 -667.225841 
L 844.8675 -668.010238 
L 844.8675 -668.794635 
L 844.8675 -669.579032 
L 844.8675 -670.36343 
L 844.8675 -671.147827 
L 844.8675 -671.932224 
L 844.8675 -672.716621 
L 844.8675 -673.501018 
L 844.8675 -674.285415 
L 844.8675 -675.069812 
L 844.8675 -675.854209 
L 844.8675 -676.638606 
L 844.8675 -677.423003 
L 844.8675 -678.2074 
L 844.8675 -678.991797 
L 844.8675 -679.776194 
L 844.8675 -680.560591 
L 844.8675 -681.344989 
L 844.8675 -682.129386 
L 844.8675 -682.913783 
L 844.8675 -683.69818 
L 844.8675 -684.482577 
L 844.8675 -685.266974 
L 844.8675 -686.051371 
L 844.8675 -686.835768 
L 844.8675 -687.620165 
L 844.8675 -688.404562 
L 844.8675 -689.188959 
L 844.8675 -689.973356 
L 844.8675 -690.757753 
L 844.8675 -691.542151 
L 844.8675 -692.326548 
L 844.8675 -693.110945 
L 844.8675 -693.895342 
L 844.8675 -694.679739 
L 844.8675 -695.464136 
L 844.8675 -696.248533 
L 844.8675 -697.03293 
L 844.8675 -697.817327 
L 844.8675 -698.601724 
L 844.8675 -699.386121 
L 844.8675 -700.170518 
L 844.8675 -700.954915 
L 844.8675 -701.739312 
L 844.8675 -702.52371 
L 844.8675 -703.308107 
L 844.8675 -704.092504 
L 844.8675 -704.876901 
L 844.8675 -705.661298 
L 844.8675 -706.445695 
L 844.8675 -707.230092 
L 844.8675 -708.014489 
L 844.8675 -708.798886 
L 844.8675 -709.583283 
L 844.8675 -710.36768 
L 844.8675 -711.152077 
L 844.8675 -711.936474 
L 844.8675 -712.720871 
L 844.8675 -713.505269 
L 844.8675 -714.289666 
L 844.8675 -715.074063 
L 844.8675 -715.85846 
L 844.8675 -716.642857 
L 844.8675 -717.427254 
L 844.8675 -718.211651 
L 844.8675 -718.996048 
L 844.8675 -719.780445 
L 844.8675 -720.564842 
L 844.8675 -721.349239 
L 844.8675 -722.133636 
L 857.124614 -722.133636 
L 857.124614 -722.133636 
L 858.09306 -721.349239 
L 859.104092 -720.564842 
L 860.155685 -719.780445 
L 861.244811 -718.996048 
L 862.367341 -718.211651 
L 863.518006 -717.427254 
L 864.690409 -716.642857 
L 865.877108 -715.85846 
L 867.069767 -715.074063 
L 868.259378 -714.289666 
L 869.436547 -713.505269 
L 870.591837 -712.720871 
L 871.716144 -711.936474 
L 872.8011 -711.152077 
L 873.839477 -710.36768 
L 874.825561 -709.583283 
L 875.755496 -708.798886 
L 876.627551 -708.014489 
L 877.442312 -707.230092 
L 878.202785 -706.445695 
L 878.914387 -705.661298 
L 879.584842 -704.876901 
L 880.22397 -704.092504 
L 880.843389 -703.308107 
L 881.456127 -702.52371 
L 882.076186 -701.739312 
L 882.71805 -700.954915 
L 883.396179 -700.170518 
L 884.124496 -699.386121 
L 884.9159 -698.601724 
L 885.781819 -697.817327 
L 886.731811 -697.03293 
L 887.773251 -696.248533 
L 888.911088 -695.464136 
L 890.147698 -694.679739 
L 891.482839 -693.895342 
L 892.913692 -693.110945 
L 894.435012 -692.326548 
L 896.039358 -691.542151 
L 897.717427 -690.757753 
L 899.458438 -689.973356 
L 901.250602 -689.188959 
L 903.081622 -688.404562 
L 904.93922 -687.620165 
L 906.811674 -686.835768 
L 908.688335 -686.051371 
L 910.560097 -685.266974 
L 912.419802 -684.482577 
L 914.262562 -683.69818 
L 916.085965 -682.913783 
L 917.89016 -682.129386 
L 919.677807 -681.344989 
L 921.453885 -680.560591 
L 923.225373 -679.776194 
L 925.000792 -678.991797 
L 926.789649 -678.2074 
L 928.60179 -677.423003 
L 930.446696 -676.638606 
L 932.332759 -675.854209 
L 934.266564 -675.069812 
L 936.252217 -674.285415 
L 938.29075 -673.501018 
L 940.379635 -672.716621 
L 942.512423 -671.932224 
L 944.678536 -671.147827 
L 946.863217 -670.36343 
L 949.047636 -669.579032 
L 951.209161 -668.794635 
L 953.321768 -668.010238 
L 955.356589 -667.225841 
L 957.282563 -666.441444 
L 959.067176 -665.657047 
L 960.677252 -664.87265 
L 962.07978 -664.088253 
L 963.242745 -663.303856 
L 964.135925 -662.519459 
L 964.731652 -661.735062 
L 965.0055 -660.950665 
L 964.936882 -660.166268 
L 964.509553 -659.38187 
L 963.712001 -658.597473 
L 962.537717 -657.813076 
L 960.98535 -657.028679 
L 959.05874 -656.244282 
L 956.766835 -655.459885 
L 954.123509 -654.675488 
L 951.147266 -653.891091 
L 947.860873 -653.106694 
L 944.290907 -652.322297 
L 940.467248 -651.5379 
L 936.422515 -650.753503 
L 932.191483 -649.969106 
L 927.810462 -649.184709 
L 923.316688 -648.400311 
L 918.747701 -647.615914 
L 914.140748 -646.831517 
L 909.532218 -646.04712 
L 904.957101 -645.262723 
L 900.448496 -644.478326 
z
" style="stroke: #595959; stroke-width: 1.2"/>
    </defs>
    <g clip-path="url(#p2a42dfa3b3)">
     <use xlink:href="#mad1146755b" x="0" y="792" style="fill: #e99675; stroke: #595959; stroke-width: 1.2"/>
    </g>
   </g>
   <g id="line2d_8">
    <path d="M 126.346286 652.441415 
L 244.1775 652.441415 
" clip-path="url(#p2a42dfa3b3)" style="fill: none; stroke-dasharray: 2.16,2.16; stroke-dashoffset: 0; stroke: #595959; stroke-width: 1.2"/>
   </g>
   <g id="line2d_9">
    <path d="M 136.854954 633.64178 
L 244.1775 633.64178 
" clip-path="url(#p2a42dfa3b3)" style="fill: none; stroke-dasharray: 4.32,4.32; stroke-dashoffset: 0; stroke: #595959; stroke-width: 1.2"/>
   </g>
   <g id="line2d_10">
    <path d="M 170.762986 596.362958 
L 244.1775 596.362958 
" clip-path="url(#p2a42dfa3b3)" style="fill: none; stroke-dasharray: 2.16,2.16; stroke-dashoffset: 0; stroke: #595959; stroke-width: 1.2"/>
   </g>
   <g id="line2d_11">
    <path d="M 244.1775 691.696334 
L 354.287227 691.696334 
" clip-path="url(#p2a42dfa3b3)" style="fill: none; stroke-dasharray: 2.16,2.16; stroke-dashoffset: 0; stroke: #595959; stroke-width: 1.2"/>
   </g>
   <g id="line2d_12">
    <path d="M 244.1775 685.340776 
L 360.338736 685.340776 
" clip-path="url(#p2a42dfa3b3)" style="fill: none; stroke-dasharray: 4.32,4.32; stroke-dashoffset: 0; stroke: #595959; stroke-width: 1.2"/>
   </g>
   <g id="line2d_13">
    <path d="M 244.1775 676.314815 
L 328.576418 676.314815 
" clip-path="url(#p2a42dfa3b3)" style="fill: none; stroke-dasharray: 2.16,2.16; stroke-dashoffset: 0; stroke: #595959; stroke-width: 1.2"/>
   </g>
   <g id="line2d_14">
    <path d="M 432.225498 635.083797 
L 544.5225 635.083797 
" clip-path="url(#p2a42dfa3b3)" style="fill: none; stroke-dasharray: 2.16,2.16; stroke-dashoffset: 0; stroke: #595959; stroke-width: 1.2"/>
   </g>
   <g id="line2d_15">
    <path d="M 425.58588 627.87371 
L 544.5225 627.87371 
" clip-path="url(#p2a42dfa3b3)" style="fill: none; stroke-dasharray: 4.32,4.32; stroke-dashoffset: 0; stroke: #595959; stroke-width: 1.2"/>
   </g>
   <g id="line2d_16">
    <path d="M 444.71111 616.658019 
L 544.5225 616.658019 
" clip-path="url(#p2a42dfa3b3)" style="fill: none; stroke-dasharray: 2.16,2.16; stroke-dashoffset: 0; stroke: #595959; stroke-width: 1.2"/>
   </g>
   <g id="line2d_17">
    <path d="M 544.5225 681.92266 
L 654.623139 681.92266 
" clip-path="url(#p2a42dfa3b3)" style="fill: none; stroke-dasharray: 2.16,2.16; stroke-dashoffset: 0; stroke: #595959; stroke-width: 1.2"/>
   </g>
   <g id="line2d_18">
    <path d="M 544.5225 676.475039 
L 661.731317 676.475039 
" clip-path="url(#p2a42dfa3b3)" style="fill: none; stroke-dasharray: 4.32,4.32; stroke-dashoffset: 0; stroke: #595959; stroke-width: 1.2"/>
   </g>
   <g id="line2d_19">
    <path d="M 544.5225 667.609302 
L 618.312576 667.609302 
" clip-path="url(#p2a42dfa3b3)" style="fill: none; stroke-dasharray: 2.16,2.16; stroke-dashoffset: 0; stroke: #595959; stroke-width: 1.2"/>
   </g>
   <g id="line2d_20">
    <path d="M 726.347264 288.198488 
L 844.8675 288.198488 
" clip-path="url(#p2a42dfa3b3)" style="fill: none; stroke-dasharray: 2.16,2.16; stroke-dashoffset: 0; stroke: #595959; stroke-width: 1.2"/>
   </g>
   <g id="line2d_21">
    <path d="M 730.462235 246.70043 
L 844.8675 246.70043 
" clip-path="url(#p2a42dfa3b3)" style="fill: none; stroke-dasharray: 4.32,4.32; stroke-dashoffset: 0; stroke: #595959; stroke-width: 1.2"/>
   </g>
   <g id="line2d_22">
    <path d="M 751.155066 201.517216 
L 844.8675 201.517216 
" clip-path="url(#p2a42dfa3b3)" style="fill: none; stroke-dasharray: 2.16,2.16; stroke-dashoffset: 0; stroke: #595959; stroke-width: 1.2"/>
   </g>
   <g id="line2d_23">
    <path d="M 844.8675 135.037541 
L 959.824172 135.037541 
" clip-path="url(#p2a42dfa3b3)" style="fill: none; stroke-dasharray: 2.16,2.16; stroke-dashoffset: 0; stroke: #595959; stroke-width: 1.2"/>
   </g>
   <g id="line2d_24">
    <path d="M 844.8675 124.556211 
L 954.251698 124.556211 
" clip-path="url(#p2a42dfa3b3)" style="fill: none; stroke-dasharray: 4.32,4.32; stroke-dashoffset: 0; stroke: #595959; stroke-width: 1.2"/>
   </g>
   <g id="line2d_25">
    <path d="M 844.8675 109.081227 
L 915.37378 109.081227 
" clip-path="url(#p2a42dfa3b3)" style="fill: none; stroke-dasharray: 2.16,2.16; stroke-dashoffset: 0; stroke: #595959; stroke-width: 1.2"/>
   </g>
   <g id="patch_5">
    <path d="M 94.005 745.78 
L 94.005 37.68 
" style="fill: none; stroke: #cccccc; stroke-width: 1.25; stroke-linejoin: miter; stroke-linecap: square"/>
   </g>
   <g id="patch_6">
    <path d="M 995.04 745.78 
L 995.04 37.68 
" style="fill: none; stroke: #cccccc; stroke-width: 1.25; stroke-linejoin: miter; stroke-linecap: square"/>
   </g>
   <g id="patch_7">
    <path d="M 94.005 745.78 
L 995.04 745.78 
" style="fill: none; stroke: #cccccc; stroke-width: 1.25; stroke-linejoin: miter; stroke-linecap: square"/>
   </g>
   <g id="patch_8">
    <path d="M 94.005 37.68 
L 995.04 37.68 
" style="fill: none; stroke: #cccccc; stroke-width: 1.25; stroke-linejoin: miter; stroke-linecap: square"/>
   </g>
   <g id="text_12">
    <!-- Impact of KEM on VPN Setup Time (mldsa87) -->
    <g style="fill: #262626" transform="translate(280.096406 31.68) scale(0.26 -0.26)">
     <defs>
      <path id="ArialMT-49" d="M 597 0 
L 597 4581 
L 1203 4581 
L 1203 0 
L 597 0 
z
" transform="scale(0.015625)"/>
      <path id="ArialMT-61" d="M 2588 409 
Q 2275 144 1986 34 
Q 1697 -75 1366 -75 
Q 819 -75 525 192 
Q 231 459 231 875 
Q 231 1119 342 1320 
Q 453 1522 633 1644 
Q 813 1766 1038 1828 
Q 1203 1872 1538 1913 
Q 2219 1994 2541 2106 
Q 2544 2222 2544 2253 
Q 2544 2597 2384 2738 
Q 2169 2928 1744 2928 
Q 1347 2928 1158 2789 
Q 969 2650 878 2297 
L 328 2372 
Q 403 2725 575 2942 
Q 747 3159 1072 3276 
Q 1397 3394 1825 3394 
Q 2250 3394 2515 3294 
Q 2781 3194 2906 3042 
Q 3031 2891 3081 2659 
Q 3109 2516 3109 2141 
L 3109 1391 
Q 3109 606 3145 398 
Q 3181 191 3288 0 
L 2700 0 
Q 2613 175 2588 409 
z
M 2541 1666 
Q 2234 1541 1622 1453 
Q 1275 1403 1131 1340 
Q 988 1278 909 1158 
Q 831 1038 831 891 
Q 831 666 1001 516 
Q 1172 366 1500 366 
Q 1825 366 2078 508 
Q 2331 650 2450 897 
Q 2541 1088 2541 1459 
L 2541 1666 
z
" transform="scale(0.015625)"/>
      <path id="ArialMT-74" d="M 1650 503 
L 1731 6 
Q 1494 -44 1306 -44 
Q 1000 -44 831 53 
Q 663 150 594 308 
Q 525 466 525 972 
L 525 2881 
L 113 2881 
L 113 3319 
L 525 3319 
L 525 4141 
L 1084 4478 
L 1084 3319 
L 1650 3319 
L 1650 2881 
L 1084 2881 
L 1084 941 
Q 1084 700 1114 631 
Q 1144 563 1211 522 
Q 1278 481 1403 481 
Q 1497 481 1650 503 
z
" transform="scale(0.015625)"/>
      <path id="ArialMT-6f" d="M 213 1659 
Q 213 2581 725 3025 
Q 1153 3394 1769 3394 
Q 2453 3394 2887 2945 
Q 3322 2497 3322 1706 
Q 3322 1066 3130 698 
Q 2938 331 2570 128 
Q 2203 -75 1769 -75 
Q 1072 -75 642 372 
Q 213 819 213 1659 
z
M 791 1659 
Q 791 1022 1069 705 
Q 1347 388 1769 388 
Q 2188 388 2466 706 
Q 2744 1025 2744 1678 
Q 2744 2294 2464 2611 
Q 2184 2928 1769 2928 
Q 1347 2928 1069 2612 
Q 791 2297 791 1659 
z
" transform="scale(0.015625)"/>
      <path id="ArialMT-66" d="M 556 0 
L 556 2881 
L 59 2881 
L 59 3319 
L 556 3319 
L 556 3672 
Q 556 4006 616 4169 
Q 697 4388 901 4523 
Q 1106 4659 1475 4659 
Q 1713 4659 2000 4603 
L 1916 4113 
Q 1741 4144 1584 4144 
Q 1328 4144 1222 4034 
Q 1116 3925 1116 3625 
L 1116 3319 
L 1763 3319 
L 1763 2881 
L 1116 2881 
L 1116 0 
L 556 0 
z
" transform="scale(0.015625)"/>
      <path id="ArialMT-4b" d="M 469 0 
L 469 4581 
L 1075 4581 
L 1075 2309 
L 3350 4581 
L 4172 4581 
L 2250 2725 
L 4256 0 
L 3456 0 
L 1825 2319 
L 1075 1588 
L 1075 0 
L 469 0 
z
" transform="scale(0.015625)"/>
      <path id="ArialMT-45" d="M 506 0 
L 506 4581 
L 3819 4581 
L 3819 4041 
L 1113 4041 
L 1113 2638 
L 3647 2638 
L 3647 2100 
L 1113 2100 
L 1113 541 
L 3925 541 
L 3925 0 
L 506 0 
z
" transform="scale(0.015625)"/>
      <path id="ArialMT-4d" d="M 475 0 
L 475 4581 
L 1388 4581 
L 2472 1338 
Q 2622 884 2691 659 
Q 2769 909 2934 1394 
L 4031 4581 
L 4847 4581 
L 4847 0 
L 4263 0 
L 4263 3834 
L 2931 0 
L 2384 0 
L 1059 3900 
L 1059 0 
L 475 0 
z
" transform="scale(0.015625)"/>
      <path id="ArialMT-6e" d="M 422 0 
L 422 3319 
L 928 3319 
L 928 2847 
Q 1294 3394 1984 3394 
Q 2284 3394 2536 3286 
Q 2788 3178 2913 3003 
Q 3038 2828 3088 2588 
Q 3119 2431 3119 2041 
L 3119 0 
L 2556 0 
L 2556 2019 
Q 2556 2363 2490 2533 
Q 2425 2703 2258 2804 
Q 2091 2906 1866 2906 
Q 1506 2906 1245 2678 
Q 984 2450 984 1813 
L 984 0 
L 422 0 
z
" transform="scale(0.015625)"/>
      <path id="ArialMT-53" d="M 288 1472 
L 859 1522 
Q 900 1178 1048 958 
Q 1197 738 1509 602 
Q 1822 466 2213 466 
Q 2559 466 2825 569 
Q 3091 672 3220 851 
Q 3350 1031 3350 1244 
Q 3350 1459 3225 1620 
Q 3100 1781 2813 1891 
Q 2628 1963 1997 2114 
Q 1366 2266 1113 2400 
Q 784 2572 623 2826 
Q 463 3081 463 3397 
Q 463 3744 659 4045 
Q 856 4347 1234 4503 
Q 1613 4659 2075 4659 
Q 2584 4659 2973 4495 
Q 3363 4331 3572 4012 
Q 3781 3694 3797 3291 
L 3216 3247 
Q 3169 3681 2898 3903 
Q 2628 4125 2100 4125 
Q 1550 4125 1298 3923 
Q 1047 3722 1047 3438 
Q 1047 3191 1225 3031 
Q 1400 2872 2139 2705 
Q 2878 2538 3153 2413 
Q 3553 2228 3743 1945 
Q 3934 1663 3934 1294 
Q 3934 928 3725 604 
Q 3516 281 3123 101 
Q 2731 -78 2241 -78 
Q 1619 -78 1198 103 
Q 778 284 539 648 
Q 300 1013 288 1472 
z
" transform="scale(0.015625)"/>
      <path id="ArialMT-75" d="M 2597 0 
L 2597 488 
Q 2209 -75 1544 -75 
Q 1250 -75 995 37 
Q 741 150 617 320 
Q 494 491 444 738 
Q 409 903 409 1263 
L 409 3319 
L 972 3319 
L 972 1478 
Q 972 1038 1006 884 
Q 1059 663 1231 536 
Q 1403 409 1656 409 
Q 1909 409 2131 539 
Q 2353 669 2445 892 
Q 2538 1116 2538 1541 
L 2538 3319 
L 3100 3319 
L 3100 0 
L 2597 0 
z
" transform="scale(0.015625)"/>
      <path id="ArialMT-64" d="M 2575 0 
L 2575 419 
Q 2259 -75 1647 -75 
Q 1250 -75 917 144 
Q 584 363 401 755 
Q 219 1147 219 1656 
Q 219 2153 384 2558 
Q 550 2963 881 3178 
Q 1213 3394 1622 3394 
Q 1922 3394 2156 3267 
Q 2391 3141 2538 2938 
L 2538 4581 
L 3097 4581 
L 3097 0 
L 2575 0 
z
M 797 1656 
Q 797 1019 1065 703 
Q 1334 388 1700 388 
Q 2069 388 2326 689 
Q 2584 991 2584 1609 
Q 2584 2291 2321 2609 
Q 2059 2928 1675 2928 
Q 1300 2928 1048 2622 
Q 797 2316 797 1656 
z
" transform="scale(0.015625)"/>
      <path id="ArialMT-37" d="M 303 3981 
L 303 4522 
L 3269 4522 
L 3269 4084 
Q 2831 3619 2401 2847 
Q 1972 2075 1738 1259 
Q 1569 684 1522 0 
L 944 0 
Q 953 541 1156 1306 
Q 1359 2072 1739 2783 
Q 2119 3494 2547 3981 
L 303 3981 
z
" transform="scale(0.015625)"/>
     </defs>
     <use xlink:href="#ArialMT-49"/>
     <use xlink:href="#ArialMT-6d" x="27.783203"/>
     <use xlink:href="#ArialMT-70" x="111.083984"/>
     <use xlink:href="#ArialMT-61" x="166.699219"/>
     <use xlink:href="#ArialMT-63" x="222.314453"/>
     <use xlink:href="#ArialMT-74" x="272.314453"/>
     <use xlink:href="#ArialMT-20" x="300.097656"/>
     <use xlink:href="#ArialMT-6f" x="327.880859"/>
     <use xlink:href="#ArialMT-66" x="383.496094"/>
     <use xlink:href="#ArialMT-20" x="411.279297"/>
     <use xlink:href="#ArialMT-4b" x="439.0625"/>
     <use xlink:href="#ArialMT-45" x="505.761719"/>
     <use xlink:href="#ArialMT-4d" x="572.460938"/>
     <use xlink:href="#ArialMT-20" x="655.761719"/>
     <use xlink:href="#ArialMT-6f" x="683.544922"/>
     <use xlink:href="#ArialMT-6e" x="739.160156"/>
     <use xlink:href="#ArialMT-20" x="794.775391"/>
     <use xlink:href="#ArialMT-56" x="822.558594"/>
     <use xlink:href="#ArialMT-50" x="889.257812"/>
     <use xlink:href="#ArialMT-4e" x="955.957031"/>
     <use xlink:href="#ArialMT-20" x="1028.173828"/>
     <use xlink:href="#ArialMT-53" x="1055.957031"/>
     <use xlink:href="#ArialMT-65" x="1122.65625"/>
     <use xlink:href="#ArialMT-74" x="1178.271484"/>
     <use xlink:href="#ArialMT-75" x="1206.054688"/>
     <use xlink:href="#ArialMT-70" x="1261.669922"/>
     <use xlink:href="#ArialMT-20" x="1317.285156"/>
     <use xlink:href="#ArialMT-54" x="1343.318359"/>
     <use xlink:href="#ArialMT-69" x="1400.652344"/>
     <use xlink:href="#ArialMT-6d" x="1422.869141"/>
     <use xlink:href="#ArialMT-65" x="1506.169922"/>
     <use xlink:href="#ArialMT-20" x="1561.785156"/>
     <use xlink:href="#ArialMT-28" x="1589.568359"/>
     <use xlink:href="#ArialMT-6d" x="1622.869141"/>
     <use xlink:href="#ArialMT-6c" x="1706.169922"/>
     <use xlink:href="#ArialMT-64" x="1728.386719"/>
     <use xlink:href="#ArialMT-73" x="1784.001953"/>
     <use xlink:href="#ArialMT-61" x="1834.001953"/>
     <use xlink:href="#ArialMT-38" x="1889.617188"/>
     <use xlink:href="#ArialMT-37" x="1945.232422"/>
     <use xlink:href="#ArialMT-29" x="2000.847656"/>
    </g>
   </g>
   <g id="legend_1">
    <g id="patch_9">
     <path d="M 110.805 124.7775 
L 394.83 124.7775 
Q 399.63 124.7775 399.63 119.9775 
L 399.63 54.48 
Q 399.63 49.68 394.83 49.68 
L 110.805 49.68 
Q 106.005 49.68 106.005 54.48 
L 106.005 119.9775 
Q 106.005 124.7775 110.805 124.7775 
z
" style="fill: #ffffff; opacity: 0.8; stroke: #cccccc; stroke-linejoin: miter"/>
    </g>
    <g id="text_13">
     <!-- Platform -->
     <g style="fill: #262626" transform="translate(208.141875 76.45875) scale(0.24 -0.24)">
      <defs>
       <path id="ArialMT-72" d="M 416 0 
L 416 3319 
L 922 3319 
L 922 2816 
Q 1116 3169 1280 3281 
Q 1444 3394 1641 3394 
Q 1925 3394 2219 3213 
L 2025 2691 
Q 1819 2813 1613 2813 
Q 1428 2813 1281 2702 
Q 1134 2591 1072 2394 
Q 978 2094 978 1738 
L 978 0 
L 416 0 
z
" transform="scale(0.015625)"/>
      </defs>
      <use xlink:href="#ArialMT-50"/>
      <use xlink:href="#ArialMT-6c" x="66.699219"/>
      <use xlink:href="#ArialMT-61" x="88.916016"/>
      <use xlink:href="#ArialMT-74" x="144.53125"/>
      <use xlink:href="#ArialMT-66" x="172.314453"/>
      <use xlink:href="#ArialMT-6f" x="200.097656"/>
      <use xlink:href="#ArialMT-72" x="255.712891"/>
      <use xlink:href="#ArialMT-6d" x="289.013672"/>
     </g>
    </g>
    <g id="patch_10">
     <path d="M 115.605 110.4075 
L 163.605 110.4075 
L 163.605 93.6075 
L 115.605 93.6075 
z
" style="fill: #72b6a1; stroke: #595959; stroke-width: 0.6; stroke-linejoin: miter"/>
    </g>
    <g id="text_14">
     <!-- ARM -->
     <g style="fill: #262626" transform="translate(182.805 110.4075) scale(0.24 -0.24)">
      <defs>
       <path id="ArialMT-41" d="M -9 0 
L 1750 4581 
L 2403 4581 
L 4278 0 
L 3588 0 
L 3053 1388 
L 1138 1388 
L 634 0 
L -9 0 
z
M 1313 1881 
L 2866 1881 
L 2388 3150 
Q 2169 3728 2063 4100 
Q 1975 3659 1816 3225 
L 1313 1881 
z
" transform="scale(0.015625)"/>
       <path id="ArialMT-52" d="M 503 0 
L 503 4581 
L 2534 4581 
Q 3147 4581 3465 4457 
Q 3784 4334 3975 4021 
Q 4166 3709 4166 3331 
Q 4166 2844 3850 2509 
Q 3534 2175 2875 2084 
Q 3116 1969 3241 1856 
Q 3506 1613 3744 1247 
L 4541 0 
L 3778 0 
L 3172 953 
Q 2906 1366 2734 1584 
Q 2563 1803 2427 1890 
Q 2291 1978 2150 2013 
Q 2047 2034 1813 2034 
L 1109 2034 
L 1109 0 
L 503 0 
z
M 1109 2559 
L 2413 2559 
Q 2828 2559 3062 2645 
Q 3297 2731 3419 2920 
Q 3541 3109 3541 3331 
Q 3541 3656 3305 3865 
Q 3069 4075 2559 4075 
L 1109 4075 
L 1109 2559 
z
" transform="scale(0.015625)"/>
      </defs>
      <use xlink:href="#ArialMT-41"/>
      <use xlink:href="#ArialMT-52" x="66.699219"/>
      <use xlink:href="#ArialMT-4d" x="138.916016"/>
     </g>
    </g>
    <g id="patch_11">
     <path d="M 284.1375 110.4075 
L 332.1375 110.4075 
L 332.1375 93.6075 
L 284.1375 93.6075 
z
" style="fill: #e99675; stroke: #595959; stroke-width: 0.6; stroke-linejoin: miter"/>
    </g>
    <g id="text_15">
     <!-- x86 -->
     <g style="fill: #262626" transform="translate(351.3375 110.4075) scale(0.24 -0.24)">
      <defs>
       <path id="ArialMT-78" d="M 47 0 
L 1259 1725 
L 138 3319 
L 841 3319 
L 1350 2541 
Q 1494 2319 1581 2169 
Q 1719 2375 1834 2534 
L 2394 3319 
L 3066 3319 
L 1919 1756 
L 3153 0 
L 2463 0 
L 1781 1031 
L 1600 1309 
L 728 0 
L 47 0 
z
" transform="scale(0.015625)"/>
      </defs>
      <use xlink:href="#ArialMT-78"/>
      <use xlink:href="#ArialMT-38" x="50"/>
      <use xlink:href="#ArialMT-36" x="105.615234"/>
     </g>
    </g>
   </g>
  </g>
 </g>
 <defs>
  <clipPath id="p2a42dfa3b3">
   <rect x="94.005" y="37.68" width="901.035" height="708.1"/>
  </clipPath>
 </defs>
</svg>
